%TF.GenerationSoftware,KiCad,Pcbnew,10.0.3-10.0.3~ubuntu26.04.1*%
%TF.CreationDate,2026-07-14T13:52:03+03:00*%
%TF.ProjectId,hector,68656374-6f72-42e6-9b69-6361645f7063,01*%
%TF.SameCoordinates,Original*%
%TF.FileFunction,Profile,NP*%
%FSLAX46Y46*%
G04 Gerber Fmt 4.6, Leading zero omitted, Abs format (unit mm)*
G04 Created by KiCad (PCBNEW 10.0.3-10.0.3~ubuntu26.04.1) date 2026-07-14 13:52:03*
%MOMM*%
%LPD*%
G01*
G04 APERTURE LIST*
%TA.AperFunction,Profile*%
%ADD10C,0.050000*%
%TD*%
G04 APERTURE END LIST*
D10*
X64572414Y-167296118D02*
G75*
G02*
X65087493Y-166560459I625186J110418D01*
G01*
X65087500Y-166560500D02*
X78041500Y-164274500D01*
X67678300Y-185305700D02*
X64572414Y-167296118D01*
X68413918Y-185820786D02*
G75*
G02*
X67678259Y-185305707I-110418J625186D01*
G01*
X78041500Y-112077500D02*
X78041500Y-164274500D01*
X78041500Y-112077500D02*
G75*
G02*
X80581500Y-109537500I2540000J0D01*
G01*
X78041500Y-184086500D02*
X68413918Y-185820786D01*
X78041500Y-184086500D02*
X78041500Y-192976500D01*
X80581500Y-109537500D02*
X123507500Y-109537500D01*
X80581500Y-195516500D02*
G75*
G02*
X78041500Y-192976500I0J2540000D01*
G01*
X123507500Y-105092500D02*
G75*
G02*
X124142500Y-104457500I635000J0D01*
G01*
X123507500Y-109537500D02*
X123507500Y-105092500D01*
X124142500Y-104457500D02*
X142557500Y-104457500D01*
X142557500Y-104457500D02*
G75*
G02*
X143192500Y-105092500I0J-635000D01*
G01*
X143192500Y-105092500D02*
X143192500Y-109537500D01*
X143192500Y-109537500D02*
X187134500Y-109537500D01*
X157162500Y-195516500D02*
X80581500Y-195516500D01*
X157162500Y-195516500D02*
X175577500Y-200469500D01*
X175577500Y-200469500D02*
X191833500Y-209740500D01*
X187134500Y-109537500D02*
G75*
G02*
X189674500Y-112077500I0J-2540000D01*
G01*
X189674500Y-112077500D02*
X189674500Y-140652500D01*
X189674500Y-145986500D02*
X189674500Y-163893500D01*
X189674500Y-185864500D02*
X189674500Y-169227500D01*
X189674500Y-185864500D02*
X201688700Y-192773300D01*
X192700922Y-209508076D02*
G75*
G02*
X191833496Y-209740506I-549922J317476D01*
G01*
X201688700Y-192773300D02*
G75*
G02*
X201921065Y-193640687I-317600J-549900D01*
G01*
X201921125Y-193640722D02*
X192700922Y-209508076D01*
X202891373Y-193640722D02*
G75*
G02*
X203123831Y-192773358I550027J317422D01*
G01*
X202891373Y-193640722D02*
X212111576Y-209508076D01*
X212978998Y-209740500D02*
G75*
G02*
X212111616Y-209508053I-317498J549800D01*
G01*
X215137998Y-112077500D02*
X215137998Y-140652500D01*
X215137998Y-112077500D02*
G75*
G02*
X217677998Y-109537598I2540002J-100D01*
G01*
X215137998Y-140652500D02*
X189674500Y-140652500D01*
X215137998Y-145986500D02*
X189674500Y-145986500D01*
X215137998Y-145986500D02*
X215137998Y-163893500D01*
X215137998Y-163893500D02*
X189674500Y-163893500D01*
X215137998Y-169227500D02*
X189674500Y-169227500D01*
X215137998Y-185864500D02*
X203123798Y-192773300D01*
X215137998Y-185864500D02*
X215137998Y-169227500D01*
X229234998Y-200469500D02*
X212978998Y-209740500D01*
X247649998Y-195516500D02*
X229234998Y-200469500D01*
X247649998Y-195516500D02*
X324230998Y-195516500D01*
X261619998Y-105092500D02*
X261619998Y-109537500D01*
X261619998Y-105092500D02*
G75*
G02*
X262254998Y-104457498I634902J100D01*
G01*
X261619998Y-109537500D02*
X217677998Y-109537500D01*
X280669998Y-104457500D02*
X262254998Y-104457500D01*
X280669998Y-104457500D02*
G75*
G02*
X281305000Y-105092500I102J-634900D01*
G01*
X281304998Y-109537500D02*
X281304998Y-105092500D01*
X324230998Y-109537500D02*
X281304998Y-109537500D01*
X324230998Y-109537500D02*
G75*
G02*
X326771000Y-112077500I-98J-2540100D01*
G01*
X326770998Y-112077500D02*
X326770998Y-164274500D01*
X326770998Y-184086500D02*
X326770998Y-192976500D01*
X326770998Y-184086500D02*
X336398580Y-185820786D01*
X326770998Y-192976500D02*
G75*
G02*
X324230998Y-195516598I-2540098J0D01*
G01*
X337134198Y-185305700D02*
G75*
G02*
X336398582Y-185820777I-625298J110200D01*
G01*
X337134198Y-185305700D02*
X340240084Y-167296118D01*
X339724998Y-166560500D02*
X326770998Y-164274500D01*
X339724998Y-166560500D02*
G75*
G02*
X340240079Y-167296117I-110198J-625300D01*
G01*
M02*
