%TF.GenerationSoftware,KiCad,Pcbnew,10.0.3-10.0.3~ubuntu26.04.1*%
%TF.CreationDate,2026-07-14T13:52:03+03:00*%
%TF.ProjectId,hector,68656374-6f72-42e6-9b69-6361645f7063,01*%
%TF.SameCoordinates,Original*%
%TF.FileFunction,Legend,Top*%
%TF.FilePolarity,Positive*%
%FSLAX46Y46*%
G04 Gerber Fmt 4.6, Leading zero omitted, Abs format (unit mm)*
G04 Created by KiCad (PCBNEW 10.0.3-10.0.3~ubuntu26.04.1) date 2026-07-14 13:52:03*
%MOMM*%
%LPD*%
G01*
G04 APERTURE LIST*
G04 Aperture macros list*
%AMRoundRect*
0 Rectangle with rounded corners*
0 $1 Rounding radius*
0 $2 $3 $4 $5 $6 $7 $8 $9 X,Y pos of 4 corners*
0 Add a 4 corners polygon primitive as box body*
4,1,4,$2,$3,$4,$5,$6,$7,$8,$9,$2,$3,0*
0 Add four circle primitives for the rounded corners*
1,1,$1+$1,$2,$3*
1,1,$1+$1,$4,$5*
1,1,$1+$1,$6,$7*
1,1,$1+$1,$8,$9*
0 Add four rect primitives between the rounded corners*
20,1,$1+$1,$2,$3,$4,$5,0*
20,1,$1+$1,$4,$5,$6,$7,0*
20,1,$1+$1,$6,$7,$8,$9,0*
20,1,$1+$1,$8,$9,$2,$3,0*%
G04 Aperture macros list end*
%ADD10C,0.100000*%
%ADD11C,0.150000*%
%ADD12C,0.120000*%
%ADD13RoundRect,0.237500X0.237500X-0.300000X0.237500X0.300000X-0.237500X0.300000X-0.237500X-0.300000X0*%
%ADD14RoundRect,0.237500X0.300000X0.237500X-0.300000X0.237500X-0.300000X-0.237500X0.300000X-0.237500X0*%
%ADD15RoundRect,0.237500X-0.300000X-0.237500X0.300000X-0.237500X0.300000X0.237500X-0.300000X0.237500X0*%
%ADD16RoundRect,0.237500X0.228308X0.307053X-0.351247X0.151762X-0.228308X-0.307053X0.351247X-0.151762X0*%
%ADD17RoundRect,0.237500X0.254201X0.285986X-0.336684X0.181797X-0.254201X-0.285986X0.336684X-0.181797X0*%
%ADD18RoundRect,0.175000X-0.350451X-0.115906X0.289674X-0.228777X0.350451X0.115906X-0.289674X0.228777X0*%
%ADD19RoundRect,0.237500X-0.237500X0.300000X-0.237500X-0.300000X0.237500X-0.300000X0.237500X0.300000X0*%
%ADD20RoundRect,0.237500X-0.237500X0.250000X-0.237500X-0.250000X0.237500X-0.250000X0.237500X0.250000X0*%
%ADD21R,1.700000X1.700000*%
%ADD22O,1.700000X1.700000*%
%ADD23C,2.500000*%
%ADD24C,0.500000*%
%ADD25RoundRect,0.237500X0.336684X0.181797X-0.254201X0.285986X-0.336684X-0.181797X0.254201X-0.285986X0*%
%ADD26RoundRect,0.237500X0.282702X0.257848X-0.315836X0.215995X-0.282702X-0.257848X0.315836X-0.215995X0*%
%ADD27C,5.700000*%
%ADD28RoundRect,0.175000X-0.312001X-0.197245X0.336416X-0.151903X0.312001X0.197245X-0.336416X0.151903X0*%
%ADD29RoundRect,0.175000X-0.336416X-0.151903X0.312001X-0.197245X0.336416X0.151903X-0.312001X0.197245X0*%
%ADD30RoundRect,0.175000X-0.325000X-0.175000X0.325000X-0.175000X0.325000X0.175000X-0.325000X0.175000X0*%
%ADD31RoundRect,0.237500X0.250000X0.237500X-0.250000X0.237500X-0.250000X-0.237500X0.250000X-0.237500X0*%
%ADD32RoundRect,0.075000X0.700000X0.075000X-0.700000X0.075000X-0.700000X-0.075000X0.700000X-0.075000X0*%
%ADD33RoundRect,0.075000X0.075000X0.700000X-0.075000X0.700000X-0.075000X-0.700000X0.075000X-0.700000X0*%
%ADD34RoundRect,0.237500X0.351247X0.151762X-0.228308X0.307053X-0.351247X-0.151762X0.228308X-0.307053X0*%
%ADD35RoundRect,0.237500X0.315836X0.215995X-0.282702X0.257848X-0.315836X-0.215995X0.282702X-0.257848X0*%
%ADD36RoundRect,0.237500X-0.250000X-0.237500X0.250000X-0.237500X0.250000X0.237500X-0.250000X0.237500X0*%
%ADD37RoundRect,0.237500X0.237500X-0.287500X0.237500X0.287500X-0.237500X0.287500X-0.237500X-0.287500X0*%
%ADD38RoundRect,0.237500X0.378558X0.055681X-0.141058X0.355681X-0.378558X-0.055681X0.141058X-0.355681X0*%
%ADD39RoundRect,0.237500X0.237500X-0.250000X0.237500X0.250000X-0.237500X0.250000X-0.237500X-0.250000X0*%
%ADD40RoundRect,0.175000X-0.368958X0.010946X0.193958X-0.314054X0.368958X-0.010946X-0.193958X0.314054X0*%
%ADD41RoundRect,0.237500X0.141058X0.355681X-0.378558X0.055681X-0.141058X-0.355681X0.378558X-0.055681X0*%
%ADD42RoundRect,0.325000X0.325000X-0.575000X0.325000X0.575000X-0.325000X0.575000X-0.325000X-0.575000X0*%
%ADD43C,0.650000*%
%ADD44R,1.240000X0.600000*%
%ADD45R,1.240000X0.300000*%
%ADD46O,2.100000X1.000000*%
%ADD47O,1.800000X1.000000*%
%ADD48RoundRect,0.162500X-0.162500X0.617500X-0.162500X-0.617500X0.162500X-0.617500X0.162500X0.617500X0*%
%ADD49RoundRect,0.175000X-0.289674X-0.228777X0.350451X-0.115906X0.289674X0.228777X-0.350451X0.115906X0*%
%ADD50RoundRect,0.150000X-0.512500X-0.150000X0.512500X-0.150000X0.512500X0.150000X-0.512500X0.150000X0*%
%ADD51RoundRect,0.175000X-0.268633X-0.253153X0.359219X-0.084921X0.268633X0.253153X-0.359219X0.084921X0*%
%ADD52RoundRect,0.175000X-0.359219X-0.084921X0.268633X-0.253153X0.359219X0.084921X-0.268633X0.253153X0*%
%ADD53RoundRect,0.162500X0.617500X0.162500X-0.617500X0.162500X-0.617500X-0.162500X0.617500X-0.162500X0*%
%ADD54RoundRect,0.237500X-0.287500X-0.237500X0.287500X-0.237500X0.287500X0.237500X-0.287500X0.237500X0*%
%ADD55RoundRect,0.175000X-0.193958X-0.314054X0.368958X0.010946X0.193958X0.314054X-0.368958X-0.010946X0*%
%ADD56RoundRect,0.150000X0.512500X0.150000X-0.512500X0.150000X-0.512500X-0.150000X0.512500X-0.150000X0*%
%ADD57RoundRect,0.237500X0.287500X0.237500X-0.287500X0.237500X-0.287500X-0.237500X0.287500X-0.237500X0*%
G04 APERTURE END LIST*
D10*
X192106249Y-142567030D02*
X192106249Y-143376554D01*
X192106249Y-143376554D02*
X192058630Y-143471792D01*
X192058630Y-143471792D02*
X192011011Y-143519411D01*
X192011011Y-143519411D02*
X191915773Y-143567030D01*
X191915773Y-143567030D02*
X191772916Y-143567030D01*
X191772916Y-143567030D02*
X191677678Y-143519411D01*
X192106249Y-143186078D02*
X192011011Y-143233697D01*
X192011011Y-143233697D02*
X191820535Y-143233697D01*
X191820535Y-143233697D02*
X191725297Y-143186078D01*
X191725297Y-143186078D02*
X191677678Y-143138458D01*
X191677678Y-143138458D02*
X191630059Y-143043220D01*
X191630059Y-143043220D02*
X191630059Y-142757506D01*
X191630059Y-142757506D02*
X191677678Y-142662268D01*
X191677678Y-142662268D02*
X191725297Y-142614649D01*
X191725297Y-142614649D02*
X191820535Y-142567030D01*
X191820535Y-142567030D02*
X192011011Y-142567030D01*
X192011011Y-142567030D02*
X192106249Y-142614649D01*
X192582440Y-143233697D02*
X192582440Y-142567030D01*
X192582440Y-142233697D02*
X192534821Y-142281316D01*
X192534821Y-142281316D02*
X192582440Y-142328935D01*
X192582440Y-142328935D02*
X192630059Y-142281316D01*
X192630059Y-142281316D02*
X192582440Y-142233697D01*
X192582440Y-142233697D02*
X192582440Y-142328935D01*
X192915773Y-142567030D02*
X193296725Y-142567030D01*
X193058630Y-142233697D02*
X193058630Y-143090839D01*
X193058630Y-143090839D02*
X193106249Y-143186078D01*
X193106249Y-143186078D02*
X193201487Y-143233697D01*
X193201487Y-143233697D02*
X193296725Y-143233697D01*
X193630059Y-143233697D02*
X193630059Y-142233697D01*
X194058630Y-143233697D02*
X194058630Y-142709887D01*
X194058630Y-142709887D02*
X194011011Y-142614649D01*
X194011011Y-142614649D02*
X193915773Y-142567030D01*
X193915773Y-142567030D02*
X193772916Y-142567030D01*
X193772916Y-142567030D02*
X193677678Y-142614649D01*
X193677678Y-142614649D02*
X193630059Y-142662268D01*
X194963392Y-142567030D02*
X194963392Y-143233697D01*
X194534821Y-142567030D02*
X194534821Y-143090839D01*
X194534821Y-143090839D02*
X194582440Y-143186078D01*
X194582440Y-143186078D02*
X194677678Y-143233697D01*
X194677678Y-143233697D02*
X194820535Y-143233697D01*
X194820535Y-143233697D02*
X194915773Y-143186078D01*
X194915773Y-143186078D02*
X194963392Y-143138458D01*
X195439583Y-143233697D02*
X195439583Y-142233697D01*
X195439583Y-142614649D02*
X195534821Y-142567030D01*
X195534821Y-142567030D02*
X195725297Y-142567030D01*
X195725297Y-142567030D02*
X195820535Y-142614649D01*
X195820535Y-142614649D02*
X195868154Y-142662268D01*
X195868154Y-142662268D02*
X195915773Y-142757506D01*
X195915773Y-142757506D02*
X195915773Y-143043220D01*
X195915773Y-143043220D02*
X195868154Y-143138458D01*
X195868154Y-143138458D02*
X195820535Y-143186078D01*
X195820535Y-143186078D02*
X195725297Y-143233697D01*
X195725297Y-143233697D02*
X195534821Y-143233697D01*
X195534821Y-143233697D02*
X195439583Y-143186078D01*
X196344345Y-143138458D02*
X196391964Y-143186078D01*
X196391964Y-143186078D02*
X196344345Y-143233697D01*
X196344345Y-143233697D02*
X196296726Y-143186078D01*
X196296726Y-143186078D02*
X196344345Y-143138458D01*
X196344345Y-143138458D02*
X196344345Y-143233697D01*
X197249106Y-143186078D02*
X197153868Y-143233697D01*
X197153868Y-143233697D02*
X196963392Y-143233697D01*
X196963392Y-143233697D02*
X196868154Y-143186078D01*
X196868154Y-143186078D02*
X196820535Y-143138458D01*
X196820535Y-143138458D02*
X196772916Y-143043220D01*
X196772916Y-143043220D02*
X196772916Y-142757506D01*
X196772916Y-142757506D02*
X196820535Y-142662268D01*
X196820535Y-142662268D02*
X196868154Y-142614649D01*
X196868154Y-142614649D02*
X196963392Y-142567030D01*
X196963392Y-142567030D02*
X197153868Y-142567030D01*
X197153868Y-142567030D02*
X197249106Y-142614649D01*
X197820535Y-143233697D02*
X197725297Y-143186078D01*
X197725297Y-143186078D02*
X197677678Y-143138458D01*
X197677678Y-143138458D02*
X197630059Y-143043220D01*
X197630059Y-143043220D02*
X197630059Y-142757506D01*
X197630059Y-142757506D02*
X197677678Y-142662268D01*
X197677678Y-142662268D02*
X197725297Y-142614649D01*
X197725297Y-142614649D02*
X197820535Y-142567030D01*
X197820535Y-142567030D02*
X197963392Y-142567030D01*
X197963392Y-142567030D02*
X198058630Y-142614649D01*
X198058630Y-142614649D02*
X198106249Y-142662268D01*
X198106249Y-142662268D02*
X198153868Y-142757506D01*
X198153868Y-142757506D02*
X198153868Y-143043220D01*
X198153868Y-143043220D02*
X198106249Y-143138458D01*
X198106249Y-143138458D02*
X198058630Y-143186078D01*
X198058630Y-143186078D02*
X197963392Y-143233697D01*
X197963392Y-143233697D02*
X197820535Y-143233697D01*
X198582440Y-143233697D02*
X198582440Y-142567030D01*
X198582440Y-142662268D02*
X198630059Y-142614649D01*
X198630059Y-142614649D02*
X198725297Y-142567030D01*
X198725297Y-142567030D02*
X198868154Y-142567030D01*
X198868154Y-142567030D02*
X198963392Y-142614649D01*
X198963392Y-142614649D02*
X199011011Y-142709887D01*
X199011011Y-142709887D02*
X199011011Y-143233697D01*
X199011011Y-142709887D02*
X199058630Y-142614649D01*
X199058630Y-142614649D02*
X199153868Y-142567030D01*
X199153868Y-142567030D02*
X199296725Y-142567030D01*
X199296725Y-142567030D02*
X199391964Y-142614649D01*
X199391964Y-142614649D02*
X199439583Y-142709887D01*
X199439583Y-142709887D02*
X199439583Y-143233697D01*
X200630058Y-142186078D02*
X199772916Y-143471792D01*
X201534820Y-143233697D02*
X201201487Y-142757506D01*
X200963392Y-143233697D02*
X200963392Y-142233697D01*
X200963392Y-142233697D02*
X201344344Y-142233697D01*
X201344344Y-142233697D02*
X201439582Y-142281316D01*
X201439582Y-142281316D02*
X201487201Y-142328935D01*
X201487201Y-142328935D02*
X201534820Y-142424173D01*
X201534820Y-142424173D02*
X201534820Y-142567030D01*
X201534820Y-142567030D02*
X201487201Y-142662268D01*
X201487201Y-142662268D02*
X201439582Y-142709887D01*
X201439582Y-142709887D02*
X201344344Y-142757506D01*
X201344344Y-142757506D02*
X200963392Y-142757506D01*
X201963392Y-143233697D02*
X201963392Y-142567030D01*
X201963392Y-142233697D02*
X201915773Y-142281316D01*
X201915773Y-142281316D02*
X201963392Y-142328935D01*
X201963392Y-142328935D02*
X202011011Y-142281316D01*
X202011011Y-142281316D02*
X201963392Y-142233697D01*
X201963392Y-142233697D02*
X201963392Y-142328935D01*
X202868153Y-143186078D02*
X202772915Y-143233697D01*
X202772915Y-143233697D02*
X202582439Y-143233697D01*
X202582439Y-143233697D02*
X202487201Y-143186078D01*
X202487201Y-143186078D02*
X202439582Y-143138458D01*
X202439582Y-143138458D02*
X202391963Y-143043220D01*
X202391963Y-143043220D02*
X202391963Y-142757506D01*
X202391963Y-142757506D02*
X202439582Y-142662268D01*
X202439582Y-142662268D02*
X202487201Y-142614649D01*
X202487201Y-142614649D02*
X202582439Y-142567030D01*
X202582439Y-142567030D02*
X202772915Y-142567030D01*
X202772915Y-142567030D02*
X202868153Y-142614649D01*
X203296725Y-143233697D02*
X203296725Y-142233697D01*
X203391963Y-142852744D02*
X203677677Y-143233697D01*
X203677677Y-142567030D02*
X203296725Y-142947982D01*
X204106249Y-143233697D02*
X204106249Y-142233697D01*
X204677677Y-143233697D02*
X204249106Y-142662268D01*
X204677677Y-142233697D02*
X204106249Y-142805125D01*
X205106249Y-143233697D02*
X205106249Y-142567030D01*
X205106249Y-142757506D02*
X205153868Y-142662268D01*
X205153868Y-142662268D02*
X205201487Y-142614649D01*
X205201487Y-142614649D02*
X205296725Y-142567030D01*
X205296725Y-142567030D02*
X205391963Y-142567030D01*
X205868154Y-143233697D02*
X205772916Y-143186078D01*
X205772916Y-143186078D02*
X205725297Y-143138458D01*
X205725297Y-143138458D02*
X205677678Y-143043220D01*
X205677678Y-143043220D02*
X205677678Y-142757506D01*
X205677678Y-142757506D02*
X205725297Y-142662268D01*
X205725297Y-142662268D02*
X205772916Y-142614649D01*
X205772916Y-142614649D02*
X205868154Y-142567030D01*
X205868154Y-142567030D02*
X206011011Y-142567030D01*
X206011011Y-142567030D02*
X206106249Y-142614649D01*
X206106249Y-142614649D02*
X206153868Y-142662268D01*
X206153868Y-142662268D02*
X206201487Y-142757506D01*
X206201487Y-142757506D02*
X206201487Y-143043220D01*
X206201487Y-143043220D02*
X206153868Y-143138458D01*
X206153868Y-143138458D02*
X206106249Y-143186078D01*
X206106249Y-143186078D02*
X206011011Y-143233697D01*
X206011011Y-143233697D02*
X205868154Y-143233697D01*
X206582440Y-143186078D02*
X206677678Y-143233697D01*
X206677678Y-143233697D02*
X206868154Y-143233697D01*
X206868154Y-143233697D02*
X206963392Y-143186078D01*
X206963392Y-143186078D02*
X207011011Y-143090839D01*
X207011011Y-143090839D02*
X207011011Y-143043220D01*
X207011011Y-143043220D02*
X206963392Y-142947982D01*
X206963392Y-142947982D02*
X206868154Y-142900363D01*
X206868154Y-142900363D02*
X206725297Y-142900363D01*
X206725297Y-142900363D02*
X206630059Y-142852744D01*
X206630059Y-142852744D02*
X206582440Y-142757506D01*
X206582440Y-142757506D02*
X206582440Y-142709887D01*
X206582440Y-142709887D02*
X206630059Y-142614649D01*
X206630059Y-142614649D02*
X206725297Y-142567030D01*
X206725297Y-142567030D02*
X206868154Y-142567030D01*
X206868154Y-142567030D02*
X206963392Y-142614649D01*
X207391964Y-143186078D02*
X207487202Y-143233697D01*
X207487202Y-143233697D02*
X207677678Y-143233697D01*
X207677678Y-143233697D02*
X207772916Y-143186078D01*
X207772916Y-143186078D02*
X207820535Y-143090839D01*
X207820535Y-143090839D02*
X207820535Y-143043220D01*
X207820535Y-143043220D02*
X207772916Y-142947982D01*
X207772916Y-142947982D02*
X207677678Y-142900363D01*
X207677678Y-142900363D02*
X207534821Y-142900363D01*
X207534821Y-142900363D02*
X207439583Y-142852744D01*
X207439583Y-142852744D02*
X207391964Y-142757506D01*
X207391964Y-142757506D02*
X207391964Y-142709887D01*
X207391964Y-142709887D02*
X207439583Y-142614649D01*
X207439583Y-142614649D02*
X207534821Y-142567030D01*
X207534821Y-142567030D02*
X207677678Y-142567030D01*
X207677678Y-142567030D02*
X207772916Y-142614649D01*
X208963392Y-142186078D02*
X208106250Y-143471792D01*
X209296726Y-143233697D02*
X209296726Y-142233697D01*
X209725297Y-143233697D02*
X209725297Y-142709887D01*
X209725297Y-142709887D02*
X209677678Y-142614649D01*
X209677678Y-142614649D02*
X209582440Y-142567030D01*
X209582440Y-142567030D02*
X209439583Y-142567030D01*
X209439583Y-142567030D02*
X209344345Y-142614649D01*
X209344345Y-142614649D02*
X209296726Y-142662268D01*
X210582440Y-143186078D02*
X210487202Y-143233697D01*
X210487202Y-143233697D02*
X210296726Y-143233697D01*
X210296726Y-143233697D02*
X210201488Y-143186078D01*
X210201488Y-143186078D02*
X210153869Y-143090839D01*
X210153869Y-143090839D02*
X210153869Y-142709887D01*
X210153869Y-142709887D02*
X210201488Y-142614649D01*
X210201488Y-142614649D02*
X210296726Y-142567030D01*
X210296726Y-142567030D02*
X210487202Y-142567030D01*
X210487202Y-142567030D02*
X210582440Y-142614649D01*
X210582440Y-142614649D02*
X210630059Y-142709887D01*
X210630059Y-142709887D02*
X210630059Y-142805125D01*
X210630059Y-142805125D02*
X210153869Y-142900363D01*
X211487202Y-143186078D02*
X211391964Y-143233697D01*
X211391964Y-143233697D02*
X211201488Y-143233697D01*
X211201488Y-143233697D02*
X211106250Y-143186078D01*
X211106250Y-143186078D02*
X211058631Y-143138458D01*
X211058631Y-143138458D02*
X211011012Y-143043220D01*
X211011012Y-143043220D02*
X211011012Y-142757506D01*
X211011012Y-142757506D02*
X211058631Y-142662268D01*
X211058631Y-142662268D02*
X211106250Y-142614649D01*
X211106250Y-142614649D02*
X211201488Y-142567030D01*
X211201488Y-142567030D02*
X211391964Y-142567030D01*
X211391964Y-142567030D02*
X211487202Y-142614649D01*
X211772917Y-142567030D02*
X212153869Y-142567030D01*
X211915774Y-142233697D02*
X211915774Y-143090839D01*
X211915774Y-143090839D02*
X211963393Y-143186078D01*
X211963393Y-143186078D02*
X212058631Y-143233697D01*
X212058631Y-143233697D02*
X212153869Y-143233697D01*
X212630060Y-143233697D02*
X212534822Y-143186078D01*
X212534822Y-143186078D02*
X212487203Y-143138458D01*
X212487203Y-143138458D02*
X212439584Y-143043220D01*
X212439584Y-143043220D02*
X212439584Y-142757506D01*
X212439584Y-142757506D02*
X212487203Y-142662268D01*
X212487203Y-142662268D02*
X212534822Y-142614649D01*
X212534822Y-142614649D02*
X212630060Y-142567030D01*
X212630060Y-142567030D02*
X212772917Y-142567030D01*
X212772917Y-142567030D02*
X212868155Y-142614649D01*
X212868155Y-142614649D02*
X212915774Y-142662268D01*
X212915774Y-142662268D02*
X212963393Y-142757506D01*
X212963393Y-142757506D02*
X212963393Y-143043220D01*
X212963393Y-143043220D02*
X212915774Y-143138458D01*
X212915774Y-143138458D02*
X212868155Y-143186078D01*
X212868155Y-143186078D02*
X212772917Y-143233697D01*
X212772917Y-143233697D02*
X212630060Y-143233697D01*
X213391965Y-143233697D02*
X213391965Y-142567030D01*
X213391965Y-142757506D02*
X213439584Y-142662268D01*
X213439584Y-142662268D02*
X213487203Y-142614649D01*
X213487203Y-142614649D02*
X213582441Y-142567030D01*
X213582441Y-142567030D02*
X213677679Y-142567030D01*
X200868154Y-144843641D02*
X200868154Y-144176974D01*
X200868154Y-144367450D02*
X200915773Y-144272212D01*
X200915773Y-144272212D02*
X200963392Y-144224593D01*
X200963392Y-144224593D02*
X201058630Y-144176974D01*
X201058630Y-144176974D02*
X201153868Y-144176974D01*
X201868154Y-144796022D02*
X201772916Y-144843641D01*
X201772916Y-144843641D02*
X201582440Y-144843641D01*
X201582440Y-144843641D02*
X201487202Y-144796022D01*
X201487202Y-144796022D02*
X201439583Y-144700783D01*
X201439583Y-144700783D02*
X201439583Y-144319831D01*
X201439583Y-144319831D02*
X201487202Y-144224593D01*
X201487202Y-144224593D02*
X201582440Y-144176974D01*
X201582440Y-144176974D02*
X201772916Y-144176974D01*
X201772916Y-144176974D02*
X201868154Y-144224593D01*
X201868154Y-144224593D02*
X201915773Y-144319831D01*
X201915773Y-144319831D02*
X201915773Y-144415069D01*
X201915773Y-144415069D02*
X201439583Y-144510307D01*
X202249107Y-144176974D02*
X202487202Y-144843641D01*
X202487202Y-144843641D02*
X202725297Y-144176974D01*
X204391964Y-144843641D02*
X203820536Y-144843641D01*
X204106250Y-144843641D02*
X204106250Y-143843641D01*
X204106250Y-143843641D02*
X204011012Y-143986498D01*
X204011012Y-143986498D02*
X203915774Y-144081736D01*
X203915774Y-144081736D02*
X203820536Y-144129355D01*
X115697461Y-189105193D02*
X115745080Y-189009955D01*
X115745080Y-189009955D02*
X115745080Y-188867098D01*
X115745080Y-188867098D02*
X115697461Y-188724241D01*
X115697461Y-188724241D02*
X115602223Y-188629003D01*
X115602223Y-188629003D02*
X115506985Y-188581384D01*
X115506985Y-188581384D02*
X115316509Y-188533765D01*
X115316509Y-188533765D02*
X115173652Y-188533765D01*
X115173652Y-188533765D02*
X114983176Y-188581384D01*
X114983176Y-188581384D02*
X114887938Y-188629003D01*
X114887938Y-188629003D02*
X114792700Y-188724241D01*
X114792700Y-188724241D02*
X114745080Y-188867098D01*
X114745080Y-188867098D02*
X114745080Y-188962336D01*
X114745080Y-188962336D02*
X114792700Y-189105193D01*
X114792700Y-189105193D02*
X114840319Y-189152812D01*
X114840319Y-189152812D02*
X115173652Y-189152812D01*
X115173652Y-189152812D02*
X115173652Y-188962336D01*
X114745080Y-189581384D02*
X115745080Y-189581384D01*
X115745080Y-189581384D02*
X114745080Y-190152812D01*
X114745080Y-190152812D02*
X115745080Y-190152812D01*
X114745080Y-190629003D02*
X115745080Y-190629003D01*
X115745080Y-190629003D02*
X115745080Y-190867098D01*
X115745080Y-190867098D02*
X115697461Y-191009955D01*
X115697461Y-191009955D02*
X115602223Y-191105193D01*
X115602223Y-191105193D02*
X115506985Y-191152812D01*
X115506985Y-191152812D02*
X115316509Y-191200431D01*
X115316509Y-191200431D02*
X115173652Y-191200431D01*
X115173652Y-191200431D02*
X114983176Y-191152812D01*
X114983176Y-191152812D02*
X114887938Y-191105193D01*
X114887938Y-191105193D02*
X114792700Y-191009955D01*
X114792700Y-191009955D02*
X114745080Y-190867098D01*
X114745080Y-190867098D02*
X114745080Y-190629003D01*
X117332700Y-188533765D02*
X117285080Y-188676622D01*
X117285080Y-188676622D02*
X117285080Y-188914717D01*
X117285080Y-188914717D02*
X117332700Y-189009955D01*
X117332700Y-189009955D02*
X117380319Y-189057574D01*
X117380319Y-189057574D02*
X117475557Y-189105193D01*
X117475557Y-189105193D02*
X117570795Y-189105193D01*
X117570795Y-189105193D02*
X117666033Y-189057574D01*
X117666033Y-189057574D02*
X117713652Y-189009955D01*
X117713652Y-189009955D02*
X117761271Y-188914717D01*
X117761271Y-188914717D02*
X117808890Y-188724241D01*
X117808890Y-188724241D02*
X117856509Y-188629003D01*
X117856509Y-188629003D02*
X117904128Y-188581384D01*
X117904128Y-188581384D02*
X117999366Y-188533765D01*
X117999366Y-188533765D02*
X118094604Y-188533765D01*
X118094604Y-188533765D02*
X118189842Y-188581384D01*
X118189842Y-188581384D02*
X118237461Y-188629003D01*
X118237461Y-188629003D02*
X118285080Y-188724241D01*
X118285080Y-188724241D02*
X118285080Y-188962336D01*
X118285080Y-188962336D02*
X118237461Y-189105193D01*
X118285080Y-189438527D02*
X117285080Y-189676622D01*
X117285080Y-189676622D02*
X117999366Y-189867098D01*
X117999366Y-189867098D02*
X117285080Y-190057574D01*
X117285080Y-190057574D02*
X118285080Y-190295670D01*
X117285080Y-190676622D02*
X118285080Y-190676622D01*
X118285080Y-191343288D02*
X118285080Y-191533764D01*
X118285080Y-191533764D02*
X118237461Y-191629002D01*
X118237461Y-191629002D02*
X118142223Y-191724240D01*
X118142223Y-191724240D02*
X117951747Y-191771859D01*
X117951747Y-191771859D02*
X117618414Y-191771859D01*
X117618414Y-191771859D02*
X117427938Y-191724240D01*
X117427938Y-191724240D02*
X117332700Y-191629002D01*
X117332700Y-191629002D02*
X117285080Y-191533764D01*
X117285080Y-191533764D02*
X117285080Y-191343288D01*
X117285080Y-191343288D02*
X117332700Y-191248050D01*
X117332700Y-191248050D02*
X117427938Y-191152812D01*
X117427938Y-191152812D02*
X117618414Y-191105193D01*
X117618414Y-191105193D02*
X117951747Y-191105193D01*
X117951747Y-191105193D02*
X118142223Y-191152812D01*
X118142223Y-191152812D02*
X118237461Y-191248050D01*
X118237461Y-191248050D02*
X118285080Y-191343288D01*
X119872699Y-188533765D02*
X119825079Y-188676622D01*
X119825079Y-188676622D02*
X119825079Y-188914717D01*
X119825079Y-188914717D02*
X119872699Y-189009955D01*
X119872699Y-189009955D02*
X119920318Y-189057574D01*
X119920318Y-189057574D02*
X120015556Y-189105193D01*
X120015556Y-189105193D02*
X120110794Y-189105193D01*
X120110794Y-189105193D02*
X120206032Y-189057574D01*
X120206032Y-189057574D02*
X120253651Y-189009955D01*
X120253651Y-189009955D02*
X120301270Y-188914717D01*
X120301270Y-188914717D02*
X120348889Y-188724241D01*
X120348889Y-188724241D02*
X120396508Y-188629003D01*
X120396508Y-188629003D02*
X120444127Y-188581384D01*
X120444127Y-188581384D02*
X120539365Y-188533765D01*
X120539365Y-188533765D02*
X120634603Y-188533765D01*
X120634603Y-188533765D02*
X120729841Y-188581384D01*
X120729841Y-188581384D02*
X120777460Y-188629003D01*
X120777460Y-188629003D02*
X120825079Y-188724241D01*
X120825079Y-188724241D02*
X120825079Y-188962336D01*
X120825079Y-188962336D02*
X120777460Y-189105193D01*
X120825079Y-189438527D02*
X119825079Y-189676622D01*
X119825079Y-189676622D02*
X120539365Y-189867098D01*
X120539365Y-189867098D02*
X119825079Y-190057574D01*
X119825079Y-190057574D02*
X120825079Y-190295670D01*
X119920318Y-191248050D02*
X119872699Y-191200431D01*
X119872699Y-191200431D02*
X119825079Y-191057574D01*
X119825079Y-191057574D02*
X119825079Y-190962336D01*
X119825079Y-190962336D02*
X119872699Y-190819479D01*
X119872699Y-190819479D02*
X119967937Y-190724241D01*
X119967937Y-190724241D02*
X120063175Y-190676622D01*
X120063175Y-190676622D02*
X120253651Y-190629003D01*
X120253651Y-190629003D02*
X120396508Y-190629003D01*
X120396508Y-190629003D02*
X120586984Y-190676622D01*
X120586984Y-190676622D02*
X120682222Y-190724241D01*
X120682222Y-190724241D02*
X120777460Y-190819479D01*
X120777460Y-190819479D02*
X120825079Y-190962336D01*
X120825079Y-190962336D02*
X120825079Y-191057574D01*
X120825079Y-191057574D02*
X120777460Y-191200431D01*
X120777460Y-191200431D02*
X120729841Y-191248050D01*
X119825079Y-192152812D02*
X119825079Y-191676622D01*
X119825079Y-191676622D02*
X120825079Y-191676622D01*
X119825079Y-192486146D02*
X120825079Y-192486146D01*
X119825079Y-193057574D02*
X120396508Y-192629003D01*
X120825079Y-193057574D02*
X120253651Y-192486146D01*
X123365080Y-188486146D02*
X123365080Y-189105193D01*
X123365080Y-189105193D02*
X122984128Y-188771860D01*
X122984128Y-188771860D02*
X122984128Y-188914717D01*
X122984128Y-188914717D02*
X122936509Y-189009955D01*
X122936509Y-189009955D02*
X122888890Y-189057574D01*
X122888890Y-189057574D02*
X122793652Y-189105193D01*
X122793652Y-189105193D02*
X122555557Y-189105193D01*
X122555557Y-189105193D02*
X122460319Y-189057574D01*
X122460319Y-189057574D02*
X122412700Y-189009955D01*
X122412700Y-189009955D02*
X122365080Y-188914717D01*
X122365080Y-188914717D02*
X122365080Y-188629003D01*
X122365080Y-188629003D02*
X122412700Y-188533765D01*
X122412700Y-188533765D02*
X122460319Y-188486146D01*
X123031747Y-189438527D02*
X122365080Y-189676622D01*
X122365080Y-189676622D02*
X123031747Y-189914717D01*
X123365080Y-190200432D02*
X123365080Y-190819479D01*
X123365080Y-190819479D02*
X122984128Y-190486146D01*
X122984128Y-190486146D02*
X122984128Y-190629003D01*
X122984128Y-190629003D02*
X122936509Y-190724241D01*
X122936509Y-190724241D02*
X122888890Y-190771860D01*
X122888890Y-190771860D02*
X122793652Y-190819479D01*
X122793652Y-190819479D02*
X122555557Y-190819479D01*
X122555557Y-190819479D02*
X122460319Y-190771860D01*
X122460319Y-190771860D02*
X122412700Y-190724241D01*
X122412700Y-190724241D02*
X122365080Y-190629003D01*
X122365080Y-190629003D02*
X122365080Y-190343289D01*
X122365080Y-190343289D02*
X122412700Y-190248051D01*
X122412700Y-190248051D02*
X122460319Y-190200432D01*
X284972579Y-189121146D02*
X284972579Y-189740193D01*
X284972579Y-189740193D02*
X284591627Y-189406860D01*
X284591627Y-189406860D02*
X284591627Y-189549717D01*
X284591627Y-189549717D02*
X284544008Y-189644955D01*
X284544008Y-189644955D02*
X284496389Y-189692574D01*
X284496389Y-189692574D02*
X284401151Y-189740193D01*
X284401151Y-189740193D02*
X284163056Y-189740193D01*
X284163056Y-189740193D02*
X284067818Y-189692574D01*
X284067818Y-189692574D02*
X284020199Y-189644955D01*
X284020199Y-189644955D02*
X283972579Y-189549717D01*
X283972579Y-189549717D02*
X283972579Y-189264003D01*
X283972579Y-189264003D02*
X284020199Y-189168765D01*
X284020199Y-189168765D02*
X284067818Y-189121146D01*
X284639246Y-190073527D02*
X283972579Y-190311622D01*
X283972579Y-190311622D02*
X284639246Y-190549717D01*
X284972579Y-190835432D02*
X284972579Y-191454479D01*
X284972579Y-191454479D02*
X284591627Y-191121146D01*
X284591627Y-191121146D02*
X284591627Y-191264003D01*
X284591627Y-191264003D02*
X284544008Y-191359241D01*
X284544008Y-191359241D02*
X284496389Y-191406860D01*
X284496389Y-191406860D02*
X284401151Y-191454479D01*
X284401151Y-191454479D02*
X284163056Y-191454479D01*
X284163056Y-191454479D02*
X284067818Y-191406860D01*
X284067818Y-191406860D02*
X284020199Y-191359241D01*
X284020199Y-191359241D02*
X283972579Y-191264003D01*
X283972579Y-191264003D02*
X283972579Y-190978289D01*
X283972579Y-190978289D02*
X284020199Y-190883051D01*
X284020199Y-190883051D02*
X284067818Y-190835432D01*
X286560198Y-189168765D02*
X286512578Y-189311622D01*
X286512578Y-189311622D02*
X286512578Y-189549717D01*
X286512578Y-189549717D02*
X286560198Y-189644955D01*
X286560198Y-189644955D02*
X286607817Y-189692574D01*
X286607817Y-189692574D02*
X286703055Y-189740193D01*
X286703055Y-189740193D02*
X286798293Y-189740193D01*
X286798293Y-189740193D02*
X286893531Y-189692574D01*
X286893531Y-189692574D02*
X286941150Y-189644955D01*
X286941150Y-189644955D02*
X286988769Y-189549717D01*
X286988769Y-189549717D02*
X287036388Y-189359241D01*
X287036388Y-189359241D02*
X287084007Y-189264003D01*
X287084007Y-189264003D02*
X287131626Y-189216384D01*
X287131626Y-189216384D02*
X287226864Y-189168765D01*
X287226864Y-189168765D02*
X287322102Y-189168765D01*
X287322102Y-189168765D02*
X287417340Y-189216384D01*
X287417340Y-189216384D02*
X287464959Y-189264003D01*
X287464959Y-189264003D02*
X287512578Y-189359241D01*
X287512578Y-189359241D02*
X287512578Y-189597336D01*
X287512578Y-189597336D02*
X287464959Y-189740193D01*
X287512578Y-190073527D02*
X286512578Y-190311622D01*
X286512578Y-190311622D02*
X287226864Y-190502098D01*
X287226864Y-190502098D02*
X286512578Y-190692574D01*
X286512578Y-190692574D02*
X287512578Y-190930670D01*
X286607817Y-191883050D02*
X286560198Y-191835431D01*
X286560198Y-191835431D02*
X286512578Y-191692574D01*
X286512578Y-191692574D02*
X286512578Y-191597336D01*
X286512578Y-191597336D02*
X286560198Y-191454479D01*
X286560198Y-191454479D02*
X286655436Y-191359241D01*
X286655436Y-191359241D02*
X286750674Y-191311622D01*
X286750674Y-191311622D02*
X286941150Y-191264003D01*
X286941150Y-191264003D02*
X287084007Y-191264003D01*
X287084007Y-191264003D02*
X287274483Y-191311622D01*
X287274483Y-191311622D02*
X287369721Y-191359241D01*
X287369721Y-191359241D02*
X287464959Y-191454479D01*
X287464959Y-191454479D02*
X287512578Y-191597336D01*
X287512578Y-191597336D02*
X287512578Y-191692574D01*
X287512578Y-191692574D02*
X287464959Y-191835431D01*
X287464959Y-191835431D02*
X287417340Y-191883050D01*
X286512578Y-192787812D02*
X286512578Y-192311622D01*
X286512578Y-192311622D02*
X287512578Y-192311622D01*
X286512578Y-193121146D02*
X287512578Y-193121146D01*
X286512578Y-193692574D02*
X287084007Y-193264003D01*
X287512578Y-193692574D02*
X286941150Y-193121146D01*
X289100200Y-189168765D02*
X289052580Y-189311622D01*
X289052580Y-189311622D02*
X289052580Y-189549717D01*
X289052580Y-189549717D02*
X289100200Y-189644955D01*
X289100200Y-189644955D02*
X289147819Y-189692574D01*
X289147819Y-189692574D02*
X289243057Y-189740193D01*
X289243057Y-189740193D02*
X289338295Y-189740193D01*
X289338295Y-189740193D02*
X289433533Y-189692574D01*
X289433533Y-189692574D02*
X289481152Y-189644955D01*
X289481152Y-189644955D02*
X289528771Y-189549717D01*
X289528771Y-189549717D02*
X289576390Y-189359241D01*
X289576390Y-189359241D02*
X289624009Y-189264003D01*
X289624009Y-189264003D02*
X289671628Y-189216384D01*
X289671628Y-189216384D02*
X289766866Y-189168765D01*
X289766866Y-189168765D02*
X289862104Y-189168765D01*
X289862104Y-189168765D02*
X289957342Y-189216384D01*
X289957342Y-189216384D02*
X290004961Y-189264003D01*
X290004961Y-189264003D02*
X290052580Y-189359241D01*
X290052580Y-189359241D02*
X290052580Y-189597336D01*
X290052580Y-189597336D02*
X290004961Y-189740193D01*
X290052580Y-190073527D02*
X289052580Y-190311622D01*
X289052580Y-190311622D02*
X289766866Y-190502098D01*
X289766866Y-190502098D02*
X289052580Y-190692574D01*
X289052580Y-190692574D02*
X290052580Y-190930670D01*
X289052580Y-191311622D02*
X290052580Y-191311622D01*
X290052580Y-191978288D02*
X290052580Y-192168764D01*
X290052580Y-192168764D02*
X290004961Y-192264002D01*
X290004961Y-192264002D02*
X289909723Y-192359240D01*
X289909723Y-192359240D02*
X289719247Y-192406859D01*
X289719247Y-192406859D02*
X289385914Y-192406859D01*
X289385914Y-192406859D02*
X289195438Y-192359240D01*
X289195438Y-192359240D02*
X289100200Y-192264002D01*
X289100200Y-192264002D02*
X289052580Y-192168764D01*
X289052580Y-192168764D02*
X289052580Y-191978288D01*
X289052580Y-191978288D02*
X289100200Y-191883050D01*
X289100200Y-191883050D02*
X289195438Y-191787812D01*
X289195438Y-191787812D02*
X289385914Y-191740193D01*
X289385914Y-191740193D02*
X289719247Y-191740193D01*
X289719247Y-191740193D02*
X289909723Y-191787812D01*
X289909723Y-191787812D02*
X290004961Y-191883050D01*
X290004961Y-191883050D02*
X290052580Y-191978288D01*
X292544960Y-189740193D02*
X292592579Y-189644955D01*
X292592579Y-189644955D02*
X292592579Y-189502098D01*
X292592579Y-189502098D02*
X292544960Y-189359241D01*
X292544960Y-189359241D02*
X292449722Y-189264003D01*
X292449722Y-189264003D02*
X292354484Y-189216384D01*
X292354484Y-189216384D02*
X292164008Y-189168765D01*
X292164008Y-189168765D02*
X292021151Y-189168765D01*
X292021151Y-189168765D02*
X291830675Y-189216384D01*
X291830675Y-189216384D02*
X291735437Y-189264003D01*
X291735437Y-189264003D02*
X291640199Y-189359241D01*
X291640199Y-189359241D02*
X291592579Y-189502098D01*
X291592579Y-189502098D02*
X291592579Y-189597336D01*
X291592579Y-189597336D02*
X291640199Y-189740193D01*
X291640199Y-189740193D02*
X291687818Y-189787812D01*
X291687818Y-189787812D02*
X292021151Y-189787812D01*
X292021151Y-189787812D02*
X292021151Y-189597336D01*
X291592579Y-190216384D02*
X292592579Y-190216384D01*
X292592579Y-190216384D02*
X291592579Y-190787812D01*
X291592579Y-190787812D02*
X292592579Y-190787812D01*
X291592579Y-191264003D02*
X292592579Y-191264003D01*
X292592579Y-191264003D02*
X292592579Y-191502098D01*
X292592579Y-191502098D02*
X292544960Y-191644955D01*
X292544960Y-191644955D02*
X292449722Y-191740193D01*
X292449722Y-191740193D02*
X292354484Y-191787812D01*
X292354484Y-191787812D02*
X292164008Y-191835431D01*
X292164008Y-191835431D02*
X292021151Y-191835431D01*
X292021151Y-191835431D02*
X291830675Y-191787812D01*
X291830675Y-191787812D02*
X291735437Y-191740193D01*
X291735437Y-191740193D02*
X291640199Y-191644955D01*
X291640199Y-191644955D02*
X291592579Y-191502098D01*
X291592579Y-191502098D02*
X291592579Y-191264003D01*
X127430812Y-189546919D02*
X127097479Y-189070728D01*
X126859384Y-189546919D02*
X126859384Y-188546919D01*
X126859384Y-188546919D02*
X127240336Y-188546919D01*
X127240336Y-188546919D02*
X127335574Y-188594538D01*
X127335574Y-188594538D02*
X127383193Y-188642157D01*
X127383193Y-188642157D02*
X127430812Y-188737395D01*
X127430812Y-188737395D02*
X127430812Y-188880252D01*
X127430812Y-188880252D02*
X127383193Y-188975490D01*
X127383193Y-188975490D02*
X127335574Y-189023109D01*
X127335574Y-189023109D02*
X127240336Y-189070728D01*
X127240336Y-189070728D02*
X126859384Y-189070728D01*
X128240336Y-189499300D02*
X128145098Y-189546919D01*
X128145098Y-189546919D02*
X127954622Y-189546919D01*
X127954622Y-189546919D02*
X127859384Y-189499300D01*
X127859384Y-189499300D02*
X127811765Y-189404061D01*
X127811765Y-189404061D02*
X127811765Y-189023109D01*
X127811765Y-189023109D02*
X127859384Y-188927871D01*
X127859384Y-188927871D02*
X127954622Y-188880252D01*
X127954622Y-188880252D02*
X128145098Y-188880252D01*
X128145098Y-188880252D02*
X128240336Y-188927871D01*
X128240336Y-188927871D02*
X128287955Y-189023109D01*
X128287955Y-189023109D02*
X128287955Y-189118347D01*
X128287955Y-189118347D02*
X127811765Y-189213585D01*
X128668908Y-189499300D02*
X128764146Y-189546919D01*
X128764146Y-189546919D02*
X128954622Y-189546919D01*
X128954622Y-189546919D02*
X129049860Y-189499300D01*
X129049860Y-189499300D02*
X129097479Y-189404061D01*
X129097479Y-189404061D02*
X129097479Y-189356442D01*
X129097479Y-189356442D02*
X129049860Y-189261204D01*
X129049860Y-189261204D02*
X128954622Y-189213585D01*
X128954622Y-189213585D02*
X128811765Y-189213585D01*
X128811765Y-189213585D02*
X128716527Y-189165966D01*
X128716527Y-189165966D02*
X128668908Y-189070728D01*
X128668908Y-189070728D02*
X128668908Y-189023109D01*
X128668908Y-189023109D02*
X128716527Y-188927871D01*
X128716527Y-188927871D02*
X128811765Y-188880252D01*
X128811765Y-188880252D02*
X128954622Y-188880252D01*
X128954622Y-188880252D02*
X129049860Y-188927871D01*
X129907003Y-189499300D02*
X129811765Y-189546919D01*
X129811765Y-189546919D02*
X129621289Y-189546919D01*
X129621289Y-189546919D02*
X129526051Y-189499300D01*
X129526051Y-189499300D02*
X129478432Y-189404061D01*
X129478432Y-189404061D02*
X129478432Y-189023109D01*
X129478432Y-189023109D02*
X129526051Y-188927871D01*
X129526051Y-188927871D02*
X129621289Y-188880252D01*
X129621289Y-188880252D02*
X129811765Y-188880252D01*
X129811765Y-188880252D02*
X129907003Y-188927871D01*
X129907003Y-188927871D02*
X129954622Y-189023109D01*
X129954622Y-189023109D02*
X129954622Y-189118347D01*
X129954622Y-189118347D02*
X129478432Y-189213585D01*
X130240337Y-188880252D02*
X130621289Y-188880252D01*
X130383194Y-188546919D02*
X130383194Y-189404061D01*
X130383194Y-189404061D02*
X130430813Y-189499300D01*
X130430813Y-189499300D02*
X130526051Y-189546919D01*
X130526051Y-189546919D02*
X130621289Y-189546919D01*
X130367765Y-194579300D02*
X130510622Y-194626919D01*
X130510622Y-194626919D02*
X130748717Y-194626919D01*
X130748717Y-194626919D02*
X130843955Y-194579300D01*
X130843955Y-194579300D02*
X130891574Y-194531680D01*
X130891574Y-194531680D02*
X130939193Y-194436442D01*
X130939193Y-194436442D02*
X130939193Y-194341204D01*
X130939193Y-194341204D02*
X130891574Y-194245966D01*
X130891574Y-194245966D02*
X130843955Y-194198347D01*
X130843955Y-194198347D02*
X130748717Y-194150728D01*
X130748717Y-194150728D02*
X130558241Y-194103109D01*
X130558241Y-194103109D02*
X130463003Y-194055490D01*
X130463003Y-194055490D02*
X130415384Y-194007871D01*
X130415384Y-194007871D02*
X130367765Y-193912633D01*
X130367765Y-193912633D02*
X130367765Y-193817395D01*
X130367765Y-193817395D02*
X130415384Y-193722157D01*
X130415384Y-193722157D02*
X130463003Y-193674538D01*
X130463003Y-193674538D02*
X130558241Y-193626919D01*
X130558241Y-193626919D02*
X130796336Y-193626919D01*
X130796336Y-193626919D02*
X130939193Y-193674538D01*
X131367765Y-194626919D02*
X131367765Y-193626919D01*
X131367765Y-193626919D02*
X131605860Y-193626919D01*
X131605860Y-193626919D02*
X131748717Y-193674538D01*
X131748717Y-193674538D02*
X131843955Y-193769776D01*
X131843955Y-193769776D02*
X131891574Y-193865014D01*
X131891574Y-193865014D02*
X131939193Y-194055490D01*
X131939193Y-194055490D02*
X131939193Y-194198347D01*
X131939193Y-194198347D02*
X131891574Y-194388823D01*
X131891574Y-194388823D02*
X131843955Y-194484061D01*
X131843955Y-194484061D02*
X131748717Y-194579300D01*
X131748717Y-194579300D02*
X131605860Y-194626919D01*
X131605860Y-194626919D02*
X131367765Y-194626919D01*
X132320146Y-194341204D02*
X132796336Y-194341204D01*
X132224908Y-194626919D02*
X132558241Y-193626919D01*
X132558241Y-193626919D02*
X132891574Y-194626919D01*
X134558717Y-189023109D02*
X134701574Y-189070728D01*
X134701574Y-189070728D02*
X134749193Y-189118347D01*
X134749193Y-189118347D02*
X134796812Y-189213585D01*
X134796812Y-189213585D02*
X134796812Y-189356442D01*
X134796812Y-189356442D02*
X134749193Y-189451680D01*
X134749193Y-189451680D02*
X134701574Y-189499300D01*
X134701574Y-189499300D02*
X134606336Y-189546919D01*
X134606336Y-189546919D02*
X134225384Y-189546919D01*
X134225384Y-189546919D02*
X134225384Y-188546919D01*
X134225384Y-188546919D02*
X134558717Y-188546919D01*
X134558717Y-188546919D02*
X134653955Y-188594538D01*
X134653955Y-188594538D02*
X134701574Y-188642157D01*
X134701574Y-188642157D02*
X134749193Y-188737395D01*
X134749193Y-188737395D02*
X134749193Y-188832633D01*
X134749193Y-188832633D02*
X134701574Y-188927871D01*
X134701574Y-188927871D02*
X134653955Y-188975490D01*
X134653955Y-188975490D02*
X134558717Y-189023109D01*
X134558717Y-189023109D02*
X134225384Y-189023109D01*
X135368241Y-189546919D02*
X135273003Y-189499300D01*
X135273003Y-189499300D02*
X135225384Y-189451680D01*
X135225384Y-189451680D02*
X135177765Y-189356442D01*
X135177765Y-189356442D02*
X135177765Y-189070728D01*
X135177765Y-189070728D02*
X135225384Y-188975490D01*
X135225384Y-188975490D02*
X135273003Y-188927871D01*
X135273003Y-188927871D02*
X135368241Y-188880252D01*
X135368241Y-188880252D02*
X135511098Y-188880252D01*
X135511098Y-188880252D02*
X135606336Y-188927871D01*
X135606336Y-188927871D02*
X135653955Y-188975490D01*
X135653955Y-188975490D02*
X135701574Y-189070728D01*
X135701574Y-189070728D02*
X135701574Y-189356442D01*
X135701574Y-189356442D02*
X135653955Y-189451680D01*
X135653955Y-189451680D02*
X135606336Y-189499300D01*
X135606336Y-189499300D02*
X135511098Y-189546919D01*
X135511098Y-189546919D02*
X135368241Y-189546919D01*
X136273003Y-189546919D02*
X136177765Y-189499300D01*
X136177765Y-189499300D02*
X136130146Y-189451680D01*
X136130146Y-189451680D02*
X136082527Y-189356442D01*
X136082527Y-189356442D02*
X136082527Y-189070728D01*
X136082527Y-189070728D02*
X136130146Y-188975490D01*
X136130146Y-188975490D02*
X136177765Y-188927871D01*
X136177765Y-188927871D02*
X136273003Y-188880252D01*
X136273003Y-188880252D02*
X136415860Y-188880252D01*
X136415860Y-188880252D02*
X136511098Y-188927871D01*
X136511098Y-188927871D02*
X136558717Y-188975490D01*
X136558717Y-188975490D02*
X136606336Y-189070728D01*
X136606336Y-189070728D02*
X136606336Y-189356442D01*
X136606336Y-189356442D02*
X136558717Y-189451680D01*
X136558717Y-189451680D02*
X136511098Y-189499300D01*
X136511098Y-189499300D02*
X136415860Y-189546919D01*
X136415860Y-189546919D02*
X136273003Y-189546919D01*
X136892051Y-188880252D02*
X137273003Y-188880252D01*
X137034908Y-188546919D02*
X137034908Y-189404061D01*
X137034908Y-189404061D02*
X137082527Y-189499300D01*
X137082527Y-189499300D02*
X137177765Y-189546919D01*
X137177765Y-189546919D02*
X137273003Y-189546919D01*
X138495765Y-194579300D02*
X138638622Y-194626919D01*
X138638622Y-194626919D02*
X138876717Y-194626919D01*
X138876717Y-194626919D02*
X138971955Y-194579300D01*
X138971955Y-194579300D02*
X139019574Y-194531680D01*
X139019574Y-194531680D02*
X139067193Y-194436442D01*
X139067193Y-194436442D02*
X139067193Y-194341204D01*
X139067193Y-194341204D02*
X139019574Y-194245966D01*
X139019574Y-194245966D02*
X138971955Y-194198347D01*
X138971955Y-194198347D02*
X138876717Y-194150728D01*
X138876717Y-194150728D02*
X138686241Y-194103109D01*
X138686241Y-194103109D02*
X138591003Y-194055490D01*
X138591003Y-194055490D02*
X138543384Y-194007871D01*
X138543384Y-194007871D02*
X138495765Y-193912633D01*
X138495765Y-193912633D02*
X138495765Y-193817395D01*
X138495765Y-193817395D02*
X138543384Y-193722157D01*
X138543384Y-193722157D02*
X138591003Y-193674538D01*
X138591003Y-193674538D02*
X138686241Y-193626919D01*
X138686241Y-193626919D02*
X138924336Y-193626919D01*
X138924336Y-193626919D02*
X139067193Y-193674538D01*
X140067193Y-194531680D02*
X140019574Y-194579300D01*
X140019574Y-194579300D02*
X139876717Y-194626919D01*
X139876717Y-194626919D02*
X139781479Y-194626919D01*
X139781479Y-194626919D02*
X139638622Y-194579300D01*
X139638622Y-194579300D02*
X139543384Y-194484061D01*
X139543384Y-194484061D02*
X139495765Y-194388823D01*
X139495765Y-194388823D02*
X139448146Y-194198347D01*
X139448146Y-194198347D02*
X139448146Y-194055490D01*
X139448146Y-194055490D02*
X139495765Y-193865014D01*
X139495765Y-193865014D02*
X139543384Y-193769776D01*
X139543384Y-193769776D02*
X139638622Y-193674538D01*
X139638622Y-193674538D02*
X139781479Y-193626919D01*
X139781479Y-193626919D02*
X139876717Y-193626919D01*
X139876717Y-193626919D02*
X140019574Y-193674538D01*
X140019574Y-193674538D02*
X140067193Y-193722157D01*
X140971955Y-194626919D02*
X140495765Y-194626919D01*
X140495765Y-194626919D02*
X140495765Y-193626919D01*
X266067264Y-194579300D02*
X266210121Y-194626919D01*
X266210121Y-194626919D02*
X266448216Y-194626919D01*
X266448216Y-194626919D02*
X266543454Y-194579300D01*
X266543454Y-194579300D02*
X266591073Y-194531680D01*
X266591073Y-194531680D02*
X266638692Y-194436442D01*
X266638692Y-194436442D02*
X266638692Y-194341204D01*
X266638692Y-194341204D02*
X266591073Y-194245966D01*
X266591073Y-194245966D02*
X266543454Y-194198347D01*
X266543454Y-194198347D02*
X266448216Y-194150728D01*
X266448216Y-194150728D02*
X266257740Y-194103109D01*
X266257740Y-194103109D02*
X266162502Y-194055490D01*
X266162502Y-194055490D02*
X266114883Y-194007871D01*
X266114883Y-194007871D02*
X266067264Y-193912633D01*
X266067264Y-193912633D02*
X266067264Y-193817395D01*
X266067264Y-193817395D02*
X266114883Y-193722157D01*
X266114883Y-193722157D02*
X266162502Y-193674538D01*
X266162502Y-193674538D02*
X266257740Y-193626919D01*
X266257740Y-193626919D02*
X266495835Y-193626919D01*
X266495835Y-193626919D02*
X266638692Y-193674538D01*
X267067264Y-194626919D02*
X267067264Y-193626919D01*
X267067264Y-193626919D02*
X267305359Y-193626919D01*
X267305359Y-193626919D02*
X267448216Y-193674538D01*
X267448216Y-193674538D02*
X267543454Y-193769776D01*
X267543454Y-193769776D02*
X267591073Y-193865014D01*
X267591073Y-193865014D02*
X267638692Y-194055490D01*
X267638692Y-194055490D02*
X267638692Y-194198347D01*
X267638692Y-194198347D02*
X267591073Y-194388823D01*
X267591073Y-194388823D02*
X267543454Y-194484061D01*
X267543454Y-194484061D02*
X267448216Y-194579300D01*
X267448216Y-194579300D02*
X267305359Y-194626919D01*
X267305359Y-194626919D02*
X267067264Y-194626919D01*
X268019645Y-194341204D02*
X268495835Y-194341204D01*
X267924407Y-194626919D02*
X268257740Y-193626919D01*
X268257740Y-193626919D02*
X268591073Y-194626919D01*
X270512216Y-189023109D02*
X270655073Y-189070728D01*
X270655073Y-189070728D02*
X270702692Y-189118347D01*
X270702692Y-189118347D02*
X270750311Y-189213585D01*
X270750311Y-189213585D02*
X270750311Y-189356442D01*
X270750311Y-189356442D02*
X270702692Y-189451680D01*
X270702692Y-189451680D02*
X270655073Y-189499300D01*
X270655073Y-189499300D02*
X270559835Y-189546919D01*
X270559835Y-189546919D02*
X270178883Y-189546919D01*
X270178883Y-189546919D02*
X270178883Y-188546919D01*
X270178883Y-188546919D02*
X270512216Y-188546919D01*
X270512216Y-188546919D02*
X270607454Y-188594538D01*
X270607454Y-188594538D02*
X270655073Y-188642157D01*
X270655073Y-188642157D02*
X270702692Y-188737395D01*
X270702692Y-188737395D02*
X270702692Y-188832633D01*
X270702692Y-188832633D02*
X270655073Y-188927871D01*
X270655073Y-188927871D02*
X270607454Y-188975490D01*
X270607454Y-188975490D02*
X270512216Y-189023109D01*
X270512216Y-189023109D02*
X270178883Y-189023109D01*
X271321740Y-189546919D02*
X271226502Y-189499300D01*
X271226502Y-189499300D02*
X271178883Y-189451680D01*
X271178883Y-189451680D02*
X271131264Y-189356442D01*
X271131264Y-189356442D02*
X271131264Y-189070728D01*
X271131264Y-189070728D02*
X271178883Y-188975490D01*
X271178883Y-188975490D02*
X271226502Y-188927871D01*
X271226502Y-188927871D02*
X271321740Y-188880252D01*
X271321740Y-188880252D02*
X271464597Y-188880252D01*
X271464597Y-188880252D02*
X271559835Y-188927871D01*
X271559835Y-188927871D02*
X271607454Y-188975490D01*
X271607454Y-188975490D02*
X271655073Y-189070728D01*
X271655073Y-189070728D02*
X271655073Y-189356442D01*
X271655073Y-189356442D02*
X271607454Y-189451680D01*
X271607454Y-189451680D02*
X271559835Y-189499300D01*
X271559835Y-189499300D02*
X271464597Y-189546919D01*
X271464597Y-189546919D02*
X271321740Y-189546919D01*
X272226502Y-189546919D02*
X272131264Y-189499300D01*
X272131264Y-189499300D02*
X272083645Y-189451680D01*
X272083645Y-189451680D02*
X272036026Y-189356442D01*
X272036026Y-189356442D02*
X272036026Y-189070728D01*
X272036026Y-189070728D02*
X272083645Y-188975490D01*
X272083645Y-188975490D02*
X272131264Y-188927871D01*
X272131264Y-188927871D02*
X272226502Y-188880252D01*
X272226502Y-188880252D02*
X272369359Y-188880252D01*
X272369359Y-188880252D02*
X272464597Y-188927871D01*
X272464597Y-188927871D02*
X272512216Y-188975490D01*
X272512216Y-188975490D02*
X272559835Y-189070728D01*
X272559835Y-189070728D02*
X272559835Y-189356442D01*
X272559835Y-189356442D02*
X272512216Y-189451680D01*
X272512216Y-189451680D02*
X272464597Y-189499300D01*
X272464597Y-189499300D02*
X272369359Y-189546919D01*
X272369359Y-189546919D02*
X272226502Y-189546919D01*
X272845550Y-188880252D02*
X273226502Y-188880252D01*
X272988407Y-188546919D02*
X272988407Y-189404061D01*
X272988407Y-189404061D02*
X273036026Y-189499300D01*
X273036026Y-189499300D02*
X273131264Y-189546919D01*
X273131264Y-189546919D02*
X273226502Y-189546919D01*
X277354311Y-189546919D02*
X277020978Y-189070728D01*
X276782883Y-189546919D02*
X276782883Y-188546919D01*
X276782883Y-188546919D02*
X277163835Y-188546919D01*
X277163835Y-188546919D02*
X277259073Y-188594538D01*
X277259073Y-188594538D02*
X277306692Y-188642157D01*
X277306692Y-188642157D02*
X277354311Y-188737395D01*
X277354311Y-188737395D02*
X277354311Y-188880252D01*
X277354311Y-188880252D02*
X277306692Y-188975490D01*
X277306692Y-188975490D02*
X277259073Y-189023109D01*
X277259073Y-189023109D02*
X277163835Y-189070728D01*
X277163835Y-189070728D02*
X276782883Y-189070728D01*
X278163835Y-189499300D02*
X278068597Y-189546919D01*
X278068597Y-189546919D02*
X277878121Y-189546919D01*
X277878121Y-189546919D02*
X277782883Y-189499300D01*
X277782883Y-189499300D02*
X277735264Y-189404061D01*
X277735264Y-189404061D02*
X277735264Y-189023109D01*
X277735264Y-189023109D02*
X277782883Y-188927871D01*
X277782883Y-188927871D02*
X277878121Y-188880252D01*
X277878121Y-188880252D02*
X278068597Y-188880252D01*
X278068597Y-188880252D02*
X278163835Y-188927871D01*
X278163835Y-188927871D02*
X278211454Y-189023109D01*
X278211454Y-189023109D02*
X278211454Y-189118347D01*
X278211454Y-189118347D02*
X277735264Y-189213585D01*
X278592407Y-189499300D02*
X278687645Y-189546919D01*
X278687645Y-189546919D02*
X278878121Y-189546919D01*
X278878121Y-189546919D02*
X278973359Y-189499300D01*
X278973359Y-189499300D02*
X279020978Y-189404061D01*
X279020978Y-189404061D02*
X279020978Y-189356442D01*
X279020978Y-189356442D02*
X278973359Y-189261204D01*
X278973359Y-189261204D02*
X278878121Y-189213585D01*
X278878121Y-189213585D02*
X278735264Y-189213585D01*
X278735264Y-189213585D02*
X278640026Y-189165966D01*
X278640026Y-189165966D02*
X278592407Y-189070728D01*
X278592407Y-189070728D02*
X278592407Y-189023109D01*
X278592407Y-189023109D02*
X278640026Y-188927871D01*
X278640026Y-188927871D02*
X278735264Y-188880252D01*
X278735264Y-188880252D02*
X278878121Y-188880252D01*
X278878121Y-188880252D02*
X278973359Y-188927871D01*
X279830502Y-189499300D02*
X279735264Y-189546919D01*
X279735264Y-189546919D02*
X279544788Y-189546919D01*
X279544788Y-189546919D02*
X279449550Y-189499300D01*
X279449550Y-189499300D02*
X279401931Y-189404061D01*
X279401931Y-189404061D02*
X279401931Y-189023109D01*
X279401931Y-189023109D02*
X279449550Y-188927871D01*
X279449550Y-188927871D02*
X279544788Y-188880252D01*
X279544788Y-188880252D02*
X279735264Y-188880252D01*
X279735264Y-188880252D02*
X279830502Y-188927871D01*
X279830502Y-188927871D02*
X279878121Y-189023109D01*
X279878121Y-189023109D02*
X279878121Y-189118347D01*
X279878121Y-189118347D02*
X279401931Y-189213585D01*
X280163836Y-188880252D02*
X280544788Y-188880252D01*
X280306693Y-188546919D02*
X280306693Y-189404061D01*
X280306693Y-189404061D02*
X280354312Y-189499300D01*
X280354312Y-189499300D02*
X280449550Y-189546919D01*
X280449550Y-189546919D02*
X280544788Y-189546919D01*
X274349782Y-194579300D02*
X274492639Y-194626919D01*
X274492639Y-194626919D02*
X274730734Y-194626919D01*
X274730734Y-194626919D02*
X274825972Y-194579300D01*
X274825972Y-194579300D02*
X274873591Y-194531680D01*
X274873591Y-194531680D02*
X274921210Y-194436442D01*
X274921210Y-194436442D02*
X274921210Y-194341204D01*
X274921210Y-194341204D02*
X274873591Y-194245966D01*
X274873591Y-194245966D02*
X274825972Y-194198347D01*
X274825972Y-194198347D02*
X274730734Y-194150728D01*
X274730734Y-194150728D02*
X274540258Y-194103109D01*
X274540258Y-194103109D02*
X274445020Y-194055490D01*
X274445020Y-194055490D02*
X274397401Y-194007871D01*
X274397401Y-194007871D02*
X274349782Y-193912633D01*
X274349782Y-193912633D02*
X274349782Y-193817395D01*
X274349782Y-193817395D02*
X274397401Y-193722157D01*
X274397401Y-193722157D02*
X274445020Y-193674538D01*
X274445020Y-193674538D02*
X274540258Y-193626919D01*
X274540258Y-193626919D02*
X274778353Y-193626919D01*
X274778353Y-193626919D02*
X274921210Y-193674538D01*
X275921210Y-194531680D02*
X275873591Y-194579300D01*
X275873591Y-194579300D02*
X275730734Y-194626919D01*
X275730734Y-194626919D02*
X275635496Y-194626919D01*
X275635496Y-194626919D02*
X275492639Y-194579300D01*
X275492639Y-194579300D02*
X275397401Y-194484061D01*
X275397401Y-194484061D02*
X275349782Y-194388823D01*
X275349782Y-194388823D02*
X275302163Y-194198347D01*
X275302163Y-194198347D02*
X275302163Y-194055490D01*
X275302163Y-194055490D02*
X275349782Y-193865014D01*
X275349782Y-193865014D02*
X275397401Y-193769776D01*
X275397401Y-193769776D02*
X275492639Y-193674538D01*
X275492639Y-193674538D02*
X275635496Y-193626919D01*
X275635496Y-193626919D02*
X275730734Y-193626919D01*
X275730734Y-193626919D02*
X275873591Y-193674538D01*
X275873591Y-193674538D02*
X275921210Y-193722157D01*
X276825972Y-194626919D02*
X276349782Y-194626919D01*
X276349782Y-194626919D02*
X276349782Y-193626919D01*
G36*
X273165443Y-154769868D02*
G01*
X273194653Y-154598324D01*
X273297945Y-154371141D01*
X273451681Y-154192060D01*
X273613019Y-154140332D01*
X273748904Y-154175363D01*
X273873285Y-154289311D01*
X273990984Y-154518297D01*
X274230332Y-154880453D01*
X275228685Y-156029550D01*
X276285739Y-157114311D01*
X276523172Y-157274578D01*
X276634451Y-157159592D01*
X277222928Y-156267076D01*
X278188298Y-154672170D01*
X278419540Y-154356140D01*
X278600307Y-154208988D01*
X278747614Y-154168420D01*
X278866803Y-154202038D01*
X279006511Y-154322293D01*
X279110480Y-154478088D01*
X279139624Y-154601951D01*
X279080802Y-154777376D01*
X278803790Y-155175921D01*
X278514318Y-155588415D01*
X278383692Y-155875066D01*
X278252013Y-156181072D01*
X277768200Y-156994920D01*
X277280632Y-157797713D01*
X277208884Y-157960290D01*
X277344732Y-158131882D01*
X278411780Y-159149142D01*
X279465143Y-160172611D01*
X279670852Y-160450346D01*
X279712984Y-160687872D01*
X279675549Y-160881278D01*
X279577390Y-160985742D01*
X279405238Y-161023706D01*
X279205242Y-160987693D01*
X278989356Y-160870177D01*
X278747614Y-160645740D01*
X278309156Y-160211617D01*
X277564868Y-159547868D01*
X276825848Y-158945849D01*
X276663001Y-158855440D01*
X276471595Y-159024793D01*
X275641455Y-160212209D01*
X275180387Y-160892728D01*
X274886134Y-161261842D01*
X274603149Y-161507664D01*
X274410471Y-161569588D01*
X274313966Y-161548029D01*
X274193706Y-161471891D01*
X274100870Y-161367563D01*
X274074637Y-161275276D01*
X274210995Y-160901910D01*
X274970398Y-159652893D01*
X275977289Y-158127596D01*
X275361797Y-157469972D01*
X274585716Y-156687174D01*
X273909681Y-155984371D01*
X273507994Y-155505039D01*
X273235536Y-155059159D01*
X273165443Y-154769868D01*
G37*
G36*
X252673113Y-130015549D02*
G01*
X251202215Y-128472481D01*
X250625902Y-127745548D01*
X250409572Y-127315814D01*
X250378571Y-127052494D01*
X250462048Y-126884825D01*
X250626986Y-126785168D01*
X250833149Y-126780554D01*
X251687677Y-127448247D01*
X258245465Y-133110005D01*
X265686925Y-139646055D01*
X265832127Y-139842942D01*
X265857256Y-139995136D01*
X265798122Y-140148476D01*
X265627342Y-140358466D01*
X265338491Y-140559236D01*
X265190362Y-140550319D01*
X264863766Y-140410925D01*
X264166251Y-139950449D01*
X262927303Y-138934291D01*
X261131379Y-137390949D01*
X258452712Y-135068488D01*
X254855035Y-132018720D01*
X253816089Y-131111685D01*
X252673113Y-130015549D01*
G37*
G36*
X248838139Y-179897683D02*
G01*
X250278770Y-178283948D01*
X253091234Y-175395891D01*
X255446780Y-173097683D01*
X256549020Y-172116856D01*
X257197946Y-171672752D01*
X257652335Y-171497349D01*
X257975785Y-171495763D01*
X258353198Y-171617415D01*
X258570972Y-171764536D01*
X258678125Y-171961478D01*
X258668770Y-172256672D01*
X258485086Y-172715857D01*
X258017235Y-173421864D01*
X256754189Y-174915889D01*
X253826313Y-178059661D01*
X248849149Y-183202624D01*
X248174948Y-182380760D01*
X247842656Y-181814714D01*
X247811619Y-181424186D01*
X248034946Y-180970522D01*
X248838139Y-179897683D01*
G37*
G36*
X276709612Y-150641540D02*
G01*
X277301196Y-150932249D01*
X277923284Y-151360957D01*
X278582606Y-151951082D01*
X279535770Y-153054176D01*
X280356866Y-154333259D01*
X281045607Y-155809113D01*
X281436864Y-157001316D01*
X281631345Y-158038507D01*
X281659096Y-158946082D01*
X281541056Y-159747452D01*
X281197349Y-160769126D01*
X280702653Y-161661922D01*
X280053412Y-162443605D01*
X279237629Y-163120812D01*
X278394278Y-163566986D01*
X277508328Y-163806797D01*
X276558711Y-163846408D01*
X275273199Y-163677108D01*
X274483003Y-163432562D01*
X273780852Y-163005320D01*
X272838628Y-162174184D01*
X272204686Y-161427145D01*
X271720085Y-160607354D01*
X271377104Y-159703850D01*
X271176116Y-158701486D01*
X271125603Y-157581722D01*
X271203370Y-156522172D01*
X272587989Y-156522172D01*
X272602579Y-157661336D01*
X272702886Y-158574063D01*
X272871011Y-159297338D01*
X273144905Y-159981997D01*
X273528498Y-160613067D01*
X274029003Y-161197533D01*
X274682547Y-161749474D01*
X275355697Y-162130805D01*
X276057843Y-162359457D01*
X276802226Y-162442310D01*
X277547850Y-162376670D01*
X278250895Y-162163528D01*
X278925171Y-161796689D01*
X279580630Y-161258412D01*
X279973870Y-160749503D01*
X280238904Y-160130208D01*
X280371199Y-159372714D01*
X280349334Y-158440413D01*
X280136958Y-157290281D01*
X279706097Y-155977965D01*
X279094941Y-154733465D01*
X278294760Y-153546620D01*
X277290551Y-152410263D01*
X276965841Y-152128925D01*
X276729042Y-151997713D01*
X276476168Y-151940154D01*
X276137093Y-151939424D01*
X275492075Y-152064418D01*
X274955561Y-152303131D01*
X274506966Y-152653779D01*
X274113197Y-153165419D01*
X273363870Y-154121994D01*
X272975785Y-154711708D01*
X272769330Y-155175067D01*
X272656903Y-155688279D01*
X272587989Y-156522172D01*
X271203370Y-156522172D01*
X271235595Y-156083113D01*
X271420150Y-154987055D01*
X271654730Y-154209426D01*
X272011883Y-153485235D01*
X272554706Y-152703130D01*
X273319182Y-151851992D01*
X274135302Y-151147007D01*
X274859787Y-150720921D01*
X275514222Y-150515231D01*
X276122645Y-150492777D01*
X276709612Y-150641540D01*
G37*
G36*
X291531006Y-137204815D02*
G01*
X292971637Y-135591081D01*
X295784101Y-132703024D01*
X298139647Y-130404816D01*
X299241887Y-129423989D01*
X299890813Y-128979885D01*
X300345202Y-128804481D01*
X300668652Y-128802895D01*
X301046065Y-128924548D01*
X301263840Y-129071669D01*
X301370992Y-129268611D01*
X301361637Y-129563804D01*
X301177954Y-130022990D01*
X300710102Y-130728997D01*
X299447056Y-132223021D01*
X296519180Y-135366794D01*
X291542016Y-140509756D01*
X290867816Y-139687893D01*
X290535523Y-139121847D01*
X290504486Y-138731319D01*
X290727813Y-138277655D01*
X291531006Y-137204815D01*
G37*
G36*
X288311295Y-165653731D02*
G01*
X286840397Y-164110662D01*
X286264084Y-163383729D01*
X286047754Y-162953995D01*
X286016752Y-162690675D01*
X286100230Y-162523007D01*
X286265168Y-162423350D01*
X286471331Y-162418736D01*
X287325859Y-163086429D01*
X293883647Y-168748186D01*
X301325107Y-175284236D01*
X301470308Y-175481123D01*
X301495438Y-175633318D01*
X301436304Y-175786658D01*
X301265524Y-175996648D01*
X300976673Y-176197418D01*
X300828543Y-176188500D01*
X300501948Y-176049107D01*
X299804433Y-175588630D01*
X298565485Y-174572473D01*
X296769561Y-173029131D01*
X294090894Y-170706670D01*
X290493217Y-167656902D01*
X289454271Y-166749867D01*
X288311295Y-165653731D01*
G37*
G36*
X109020978Y-172270211D02*
G01*
X108881694Y-173169553D01*
X108485170Y-173845577D01*
X107542698Y-174544722D01*
X106817297Y-174648525D01*
X106016794Y-174357746D01*
X105303024Y-173357925D01*
X104679562Y-171186383D01*
X104209123Y-167010458D01*
X103860737Y-158559028D01*
X103505748Y-148753440D01*
X103150375Y-145767032D01*
X102915518Y-145339384D01*
X101898868Y-145687309D01*
X97469513Y-147858138D01*
X92613619Y-150266474D01*
X88058531Y-152333888D01*
X82769146Y-154574816D01*
X83148333Y-167235755D01*
X83271981Y-173601334D01*
X83100255Y-178067935D01*
X82718915Y-180292306D01*
X82278955Y-181203955D01*
X81823927Y-181435423D01*
X80818257Y-180943885D01*
X80171010Y-180045125D01*
X79494502Y-177935817D01*
X78864619Y-173811994D01*
X78296313Y-166158794D01*
X77479762Y-148908382D01*
X77086738Y-136778404D01*
X76976927Y-128620961D01*
X77150609Y-123110774D01*
X77479762Y-121205137D01*
X78424982Y-119425218D01*
X79006670Y-118840797D01*
X79433400Y-118689436D01*
X79818616Y-119221768D01*
X80478590Y-122611825D01*
X81447487Y-133273787D01*
X82418382Y-143935662D01*
X83078998Y-147325784D01*
X83464323Y-147858138D01*
X84406795Y-147473456D01*
X88531140Y-145760703D01*
X96873255Y-142680190D01*
X100746579Y-141064523D01*
X101909848Y-140301875D01*
X102300157Y-139632751D01*
X102772647Y-137843253D01*
X103294705Y-134076735D01*
X103860668Y-129462256D01*
X104300375Y-127329527D01*
X104745721Y-126303699D01*
X105263586Y-125780204D01*
X105874825Y-125613721D01*
X106553474Y-125932322D01*
X107189713Y-127143162D01*
X107732292Y-130022304D01*
X108063079Y-135649206D01*
X108268100Y-148767943D01*
X108518143Y-162024223D01*
X108768187Y-168774485D01*
X108957780Y-171082580D01*
X109020978Y-172270211D01*
G37*
G36*
X133398857Y-139150881D02*
G01*
X136192974Y-139502173D01*
X137646851Y-139850026D01*
X138881811Y-140446569D01*
X140449537Y-141596362D01*
X142307933Y-143482391D01*
X143941905Y-145895036D01*
X145107049Y-148461624D01*
X145422932Y-150260877D01*
X145240499Y-151658830D01*
X144721508Y-152765415D01*
X143848482Y-153652800D01*
X141877021Y-154664522D01*
X137743021Y-155921205D01*
X131887606Y-157115317D01*
X126158583Y-157740814D01*
X120303166Y-158088860D01*
X120303166Y-160876282D01*
X120553461Y-163318309D01*
X121316857Y-165725529D01*
X122648373Y-168149379D01*
X124647330Y-170627677D01*
X126968967Y-172638261D01*
X129213018Y-173753075D01*
X131447967Y-174111191D01*
X133215144Y-173921518D01*
X135122351Y-173324253D01*
X137207213Y-172257998D01*
X140087508Y-170264688D01*
X142400427Y-168166931D01*
X146491800Y-164072810D01*
X148346623Y-162538350D01*
X149137866Y-162219617D01*
X149362417Y-162338904D01*
X149453855Y-162778323D01*
X149137132Y-164168069D01*
X147783234Y-166838860D01*
X146017168Y-169446346D01*
X144227669Y-171451997D01*
X140704594Y-174485396D01*
X137362984Y-176500867D01*
X134150570Y-177647533D01*
X131005582Y-178019077D01*
X128522833Y-177703051D01*
X126001962Y-176727643D01*
X123629243Y-175184665D01*
X121374781Y-173057894D01*
X120085822Y-171366866D01*
X118928804Y-169267772D01*
X117912639Y-166695368D01*
X117191503Y-163999907D01*
X116745130Y-161051111D01*
X116590980Y-157814087D01*
X116761198Y-154934347D01*
X117022796Y-153668065D01*
X120932397Y-153668065D01*
X121066611Y-154126430D01*
X121501824Y-154437000D01*
X122443649Y-154571763D01*
X126279143Y-154337393D01*
X131574839Y-153519733D01*
X138685493Y-151927834D01*
X140606977Y-151124961D01*
X141544871Y-150158618D01*
X141834394Y-149009132D01*
X141371290Y-147926128D01*
X139001482Y-145253899D01*
X137134308Y-143529905D01*
X136072400Y-142783993D01*
X135009789Y-142405513D01*
X133525252Y-142261924D01*
X130581678Y-142456791D01*
X128832126Y-142924433D01*
X127358742Y-143858051D01*
X125716198Y-145598892D01*
X122574873Y-149918375D01*
X121243969Y-152375342D01*
X120932397Y-153668065D01*
X117022796Y-153668065D01*
X117220211Y-152712465D01*
X118282323Y-150007898D01*
X120026347Y-147021374D01*
X122603018Y-143693797D01*
X124852385Y-141424233D01*
X126863270Y-139977645D01*
X128685765Y-139187890D01*
X130376352Y-138940221D01*
X133398857Y-139150881D01*
G37*
G36*
X184036810Y-149198421D02*
G01*
X183911116Y-150314464D01*
X183564200Y-151158469D01*
X183030832Y-151750242D01*
X182462360Y-151927834D01*
X181803478Y-151731947D01*
X181303721Y-151121403D01*
X180951107Y-149897566D01*
X180463180Y-148271773D01*
X178873822Y-145843135D01*
X177549415Y-144444844D01*
X176866674Y-144070161D01*
X175189113Y-143535040D01*
X173188545Y-143181664D01*
X170311889Y-143043501D01*
X168035770Y-143318653D01*
X166563982Y-144023525D01*
X165278477Y-145318577D01*
X163384856Y-148007737D01*
X161253254Y-151787810D01*
X159864367Y-155145102D01*
X159095364Y-158149397D01*
X158853846Y-160870176D01*
X159008351Y-163681598D01*
X159419879Y-165800828D01*
X160039191Y-167602976D01*
X160521720Y-168456969D01*
X162315989Y-170517768D01*
X164077307Y-172249415D01*
X165115928Y-173002939D01*
X166202615Y-173377164D01*
X167855416Y-173525008D01*
X169835473Y-173264024D01*
X171966931Y-172436369D01*
X174306788Y-170935806D01*
X176907402Y-168610299D01*
X179816294Y-165269600D01*
X182273109Y-162546938D01*
X183801959Y-161362923D01*
X184729239Y-161071676D01*
X185314862Y-161363966D01*
X185545315Y-162402800D01*
X185354142Y-163222485D01*
X184525619Y-164850914D01*
X182555783Y-167788354D01*
X179580072Y-171526294D01*
X177425767Y-173595228D01*
X173970502Y-175983622D01*
X171053569Y-177245949D01*
X168547845Y-177628288D01*
X166693724Y-177437840D01*
X164631643Y-176830748D01*
X162315989Y-175735406D01*
X160163540Y-174277719D01*
X158518294Y-172576543D01*
X157309621Y-170618518D01*
X156488418Y-168393313D01*
X155847196Y-165333385D01*
X155454902Y-161221275D01*
X155265308Y-157435511D01*
X155431230Y-155651664D01*
X155970771Y-153592899D01*
X156966154Y-151195106D01*
X158273178Y-148776335D01*
X159968226Y-146349672D01*
X162096170Y-143904457D01*
X164458967Y-141687440D01*
X166369584Y-140332008D01*
X167918614Y-139627154D01*
X169852439Y-139262483D01*
X172009987Y-139135615D01*
X174350662Y-139353418D01*
X176508434Y-139992795D01*
X178520522Y-141052611D01*
X180415300Y-142558068D01*
X182579264Y-145033194D01*
X183697707Y-147209915D01*
X184036810Y-149198421D01*
G37*
G36*
X284966589Y-136764765D02*
G01*
X287407321Y-137468100D01*
X289231920Y-138525801D01*
X290570212Y-139906944D01*
X291499782Y-141641078D01*
X292138036Y-143720662D01*
X292548257Y-146197412D01*
X292695046Y-149142386D01*
X292376996Y-153989033D01*
X291405459Y-158939201D01*
X289735739Y-164041200D01*
X288036676Y-167773450D01*
X286249020Y-170676530D01*
X284382631Y-172881116D01*
X282432267Y-174491741D01*
X279535857Y-176089721D01*
X276592544Y-177028054D01*
X273557092Y-177340223D01*
X270389983Y-177013597D01*
X267654489Y-176077440D01*
X265266388Y-174554478D01*
X263167918Y-172409571D01*
X260800075Y-168980545D01*
X259642577Y-166541636D01*
X259059408Y-163879631D01*
X258852154Y-160203534D01*
X263420709Y-160203534D01*
X263636242Y-163044891D01*
X264255285Y-165530326D01*
X265259718Y-167724236D01*
X266663033Y-169674051D01*
X268383986Y-171276789D01*
X270327511Y-172431503D01*
X272536048Y-173156136D01*
X275068345Y-173432338D01*
X276982094Y-173159704D01*
X278858038Y-172324701D01*
X280745565Y-170851095D01*
X282676893Y-168602104D01*
X284666173Y-165390642D01*
X286536022Y-161281933D01*
X287879548Y-156908111D01*
X288699785Y-152224646D01*
X288980112Y-147179285D01*
X288888107Y-145750815D01*
X288664123Y-144883402D01*
X288249798Y-144151707D01*
X287532057Y-143350778D01*
X285898618Y-142125069D01*
X284254112Y-141423147D01*
X282558662Y-141192282D01*
X280637998Y-141470108D01*
X277019235Y-141958594D01*
X274945010Y-142433840D01*
X273524120Y-143039368D01*
X272196939Y-143984026D01*
X270281796Y-145787100D01*
X267896213Y-148506524D01*
X266172811Y-150894270D01*
X264995159Y-152995317D01*
X264123795Y-155254651D01*
X263598818Y-157646233D01*
X263420709Y-160203534D01*
X258852154Y-160203534D01*
X258823753Y-159699784D01*
X259063670Y-156444778D01*
X259774715Y-153370298D01*
X260963761Y-150432304D01*
X262663738Y-147595975D01*
X264931961Y-144837606D01*
X268344321Y-141564605D01*
X271060911Y-139416173D01*
X273208130Y-138136193D01*
X275502006Y-137271076D01*
X278312603Y-136707085D01*
X281739838Y-136502819D01*
X284966589Y-136764765D01*
G37*
G36*
X322337579Y-142303587D02*
G01*
X323345709Y-142488224D01*
X324225271Y-143039368D01*
X324885555Y-143783404D01*
X325044095Y-144260583D01*
X324881450Y-144712641D01*
X324222726Y-145316592D01*
X322650821Y-146150412D01*
X320891998Y-147183589D01*
X318998444Y-148832566D01*
X316938642Y-151240104D01*
X314687893Y-154579843D01*
X312246847Y-159172941D01*
X310634764Y-163454339D01*
X309744723Y-167485024D01*
X308722172Y-173938787D01*
X308107075Y-176754040D01*
X307565264Y-178127247D01*
X307026080Y-178771324D01*
X306472174Y-178958332D01*
X305746773Y-178851476D01*
X305210965Y-178503430D01*
X304801553Y-177908088D01*
X304548762Y-177068503D01*
X304361916Y-175984675D01*
X304205295Y-174619968D01*
X304078900Y-173011019D01*
X302896313Y-156308221D01*
X302567647Y-145170387D01*
X302654212Y-141872408D01*
X302820438Y-140694637D01*
X303406212Y-139308442D01*
X303986198Y-138649907D01*
X304581735Y-138456762D01*
X305103085Y-138632299D01*
X305444980Y-139183394D01*
X305590152Y-140343538D01*
X305769427Y-143964224D01*
X306472174Y-150488775D01*
X307451214Y-156704628D01*
X307793833Y-157483280D01*
X308387122Y-156941902D01*
X310123910Y-153636455D01*
X311751456Y-150741342D01*
X313706657Y-148100185D01*
X316009552Y-145695509D01*
X318593650Y-143649024D01*
X320658742Y-142608161D01*
X322337579Y-142303587D01*
G37*
G36*
X243866585Y-164220887D02*
G01*
X243964720Y-166979374D01*
X244306222Y-170797125D01*
X244647106Y-174623786D01*
X244745859Y-177440531D01*
X244682661Y-179189920D01*
X244397746Y-180224084D01*
X243962756Y-180972893D01*
X243393193Y-181487071D01*
X242858167Y-181638455D01*
X242213573Y-181446426D01*
X241789300Y-180869090D01*
X241555905Y-179331192D01*
X240877053Y-171145171D01*
X240218958Y-162866572D01*
X240088454Y-161912792D01*
X239898860Y-161842572D01*
X236972525Y-162434861D01*
X234643297Y-162898524D01*
X232974575Y-163030203D01*
X230960839Y-162784514D01*
X230079425Y-162241084D01*
X229825674Y-161491473D01*
X230212560Y-160744587D01*
X232006961Y-159654557D01*
X236749959Y-158065967D01*
X239898860Y-157226382D01*
X239522421Y-145405028D01*
X239054959Y-135149578D01*
X238327157Y-125920555D01*
X237445135Y-115674568D01*
X237636780Y-114384288D01*
X238112674Y-113730322D01*
X238893190Y-113506912D01*
X239530179Y-113704585D01*
X240141551Y-114368605D01*
X240750657Y-115744788D01*
X241272674Y-118160123D01*
X241473310Y-121551661D01*
X241662904Y-126830360D01*
X242322360Y-135223155D01*
X243234607Y-146943758D01*
X243707217Y-154322945D01*
X243953110Y-155470543D01*
X244179827Y-155687652D01*
X249026826Y-154918287D01*
X253813375Y-154148922D01*
X254881476Y-154361494D01*
X255440609Y-154904001D01*
X255637869Y-155825039D01*
X255450377Y-156476724D01*
X254786486Y-157144678D01*
X253340765Y-157855307D01*
X248147552Y-159357401D01*
X245533424Y-160069502D01*
X244559014Y-160514501D01*
X244100707Y-161435648D01*
X243866585Y-164220887D01*
G37*
D11*
X122994871Y-180891319D02*
X122423443Y-180891319D01*
X122709157Y-180891319D02*
X122709157Y-179891319D01*
X122709157Y-179891319D02*
X122613919Y-180034176D01*
X122613919Y-180034176D02*
X122518681Y-180129414D01*
X122518681Y-180129414D02*
X122423443Y-180177033D01*
X123613919Y-179891319D02*
X123709157Y-179891319D01*
X123709157Y-179891319D02*
X123804395Y-179938938D01*
X123804395Y-179938938D02*
X123852014Y-179986557D01*
X123852014Y-179986557D02*
X123899633Y-180081795D01*
X123899633Y-180081795D02*
X123947252Y-180272271D01*
X123947252Y-180272271D02*
X123947252Y-180510366D01*
X123947252Y-180510366D02*
X123899633Y-180700842D01*
X123899633Y-180700842D02*
X123852014Y-180796080D01*
X123852014Y-180796080D02*
X123804395Y-180843700D01*
X123804395Y-180843700D02*
X123709157Y-180891319D01*
X123709157Y-180891319D02*
X123613919Y-180891319D01*
X123613919Y-180891319D02*
X123518681Y-180843700D01*
X123518681Y-180843700D02*
X123471062Y-180796080D01*
X123471062Y-180796080D02*
X123423443Y-180700842D01*
X123423443Y-180700842D02*
X123375824Y-180510366D01*
X123375824Y-180510366D02*
X123375824Y-180272271D01*
X123375824Y-180272271D02*
X123423443Y-180081795D01*
X123423443Y-180081795D02*
X123471062Y-179986557D01*
X123471062Y-179986557D02*
X123518681Y-179938938D01*
X123518681Y-179938938D02*
X123613919Y-179891319D01*
X124804395Y-180224652D02*
X124804395Y-180891319D01*
X124375824Y-180224652D02*
X124375824Y-180748461D01*
X124375824Y-180748461D02*
X124423443Y-180843700D01*
X124423443Y-180843700D02*
X124518681Y-180891319D01*
X124518681Y-180891319D02*
X124661538Y-180891319D01*
X124661538Y-180891319D02*
X124756776Y-180843700D01*
X124756776Y-180843700D02*
X124804395Y-180796080D01*
X125613919Y-180367509D02*
X125280586Y-180367509D01*
X125280586Y-180891319D02*
X125280586Y-179891319D01*
X125280586Y-179891319D02*
X125756776Y-179891319D01*
X140539861Y-165059519D02*
X139968433Y-165059519D01*
X140254147Y-165059519D02*
X140254147Y-164059519D01*
X140254147Y-164059519D02*
X140158909Y-164202376D01*
X140158909Y-164202376D02*
X140063671Y-164297614D01*
X140063671Y-164297614D02*
X139968433Y-164345233D01*
X141397004Y-164392852D02*
X141397004Y-165059519D01*
X140968433Y-164392852D02*
X140968433Y-164916661D01*
X140968433Y-164916661D02*
X141016052Y-165011900D01*
X141016052Y-165011900D02*
X141111290Y-165059519D01*
X141111290Y-165059519D02*
X141254147Y-165059519D01*
X141254147Y-165059519D02*
X141349385Y-165011900D01*
X141349385Y-165011900D02*
X141397004Y-164964280D01*
X142206528Y-164535709D02*
X141873195Y-164535709D01*
X141873195Y-165059519D02*
X141873195Y-164059519D01*
X141873195Y-164059519D02*
X142349385Y-164059519D01*
X89672319Y-123340738D02*
X89672319Y-123912166D01*
X89672319Y-123626452D02*
X88672319Y-123626452D01*
X88672319Y-123626452D02*
X88815176Y-123721690D01*
X88815176Y-123721690D02*
X88910414Y-123816928D01*
X88910414Y-123816928D02*
X88958033Y-123912166D01*
X89005652Y-122483595D02*
X89672319Y-122483595D01*
X89005652Y-122912166D02*
X89529461Y-122912166D01*
X89529461Y-122912166D02*
X89624700Y-122864547D01*
X89624700Y-122864547D02*
X89672319Y-122769309D01*
X89672319Y-122769309D02*
X89672319Y-122626452D01*
X89672319Y-122626452D02*
X89624700Y-122531214D01*
X89624700Y-122531214D02*
X89577080Y-122483595D01*
X89148509Y-121674071D02*
X89148509Y-122007404D01*
X89672319Y-122007404D02*
X88672319Y-122007404D01*
X88672319Y-122007404D02*
X88672319Y-121531214D01*
X314002009Y-113418834D02*
X314002009Y-113752167D01*
X314525819Y-113752167D02*
X313525819Y-113752167D01*
X313525819Y-113752167D02*
X313525819Y-113275977D01*
X314002009Y-112561691D02*
X314049628Y-112418834D01*
X314049628Y-112418834D02*
X314097247Y-112371215D01*
X314097247Y-112371215D02*
X314192485Y-112323596D01*
X314192485Y-112323596D02*
X314335342Y-112323596D01*
X314335342Y-112323596D02*
X314430580Y-112371215D01*
X314430580Y-112371215D02*
X314478200Y-112418834D01*
X314478200Y-112418834D02*
X314525819Y-112514072D01*
X314525819Y-112514072D02*
X314525819Y-112895024D01*
X314525819Y-112895024D02*
X313525819Y-112895024D01*
X313525819Y-112895024D02*
X313525819Y-112561691D01*
X313525819Y-112561691D02*
X313573438Y-112466453D01*
X313573438Y-112466453D02*
X313621057Y-112418834D01*
X313621057Y-112418834D02*
X313716295Y-112371215D01*
X313716295Y-112371215D02*
X313811533Y-112371215D01*
X313811533Y-112371215D02*
X313906771Y-112418834D01*
X313906771Y-112418834D02*
X313954390Y-112466453D01*
X313954390Y-112466453D02*
X314002009Y-112561691D01*
X314002009Y-112561691D02*
X314002009Y-112895024D01*
X313859152Y-111466453D02*
X314525819Y-111466453D01*
X313478200Y-111704548D02*
X314192485Y-111942643D01*
X314192485Y-111942643D02*
X314192485Y-111323596D01*
X123708319Y-166742928D02*
X123708319Y-167314356D01*
X123708319Y-167028642D02*
X122708319Y-167028642D01*
X122708319Y-167028642D02*
X122851176Y-167123880D01*
X122851176Y-167123880D02*
X122946414Y-167219118D01*
X122946414Y-167219118D02*
X122994033Y-167314356D01*
X122708319Y-166123880D02*
X122708319Y-166028642D01*
X122708319Y-166028642D02*
X122755938Y-165933404D01*
X122755938Y-165933404D02*
X122803557Y-165885785D01*
X122803557Y-165885785D02*
X122898795Y-165838166D01*
X122898795Y-165838166D02*
X123089271Y-165790547D01*
X123089271Y-165790547D02*
X123327366Y-165790547D01*
X123327366Y-165790547D02*
X123517842Y-165838166D01*
X123517842Y-165838166D02*
X123613080Y-165885785D01*
X123613080Y-165885785D02*
X123660700Y-165933404D01*
X123660700Y-165933404D02*
X123708319Y-166028642D01*
X123708319Y-166028642D02*
X123708319Y-166123880D01*
X123708319Y-166123880D02*
X123660700Y-166219118D01*
X123660700Y-166219118D02*
X123613080Y-166266737D01*
X123613080Y-166266737D02*
X123517842Y-166314356D01*
X123517842Y-166314356D02*
X123327366Y-166361975D01*
X123327366Y-166361975D02*
X123089271Y-166361975D01*
X123089271Y-166361975D02*
X122898795Y-166314356D01*
X122898795Y-166314356D02*
X122803557Y-166266737D01*
X122803557Y-166266737D02*
X122755938Y-166219118D01*
X122755938Y-166219118D02*
X122708319Y-166123880D01*
X123041652Y-164933404D02*
X123708319Y-164933404D01*
X123041652Y-165361975D02*
X123565461Y-165361975D01*
X123565461Y-165361975D02*
X123660700Y-165314356D01*
X123660700Y-165314356D02*
X123708319Y-165219118D01*
X123708319Y-165219118D02*
X123708319Y-165076261D01*
X123708319Y-165076261D02*
X123660700Y-164981023D01*
X123660700Y-164981023D02*
X123613080Y-164933404D01*
X123184509Y-164123880D02*
X123184509Y-164457213D01*
X123708319Y-164457213D02*
X122708319Y-164457213D01*
X122708319Y-164457213D02*
X122708319Y-163981023D01*
X95861261Y-114818319D02*
X95289833Y-114818319D01*
X95575547Y-114818319D02*
X95575547Y-113818319D01*
X95575547Y-113818319D02*
X95480309Y-113961176D01*
X95480309Y-113961176D02*
X95385071Y-114056414D01*
X95385071Y-114056414D02*
X95289833Y-114104033D01*
X96718404Y-114151652D02*
X96718404Y-114818319D01*
X96289833Y-114151652D02*
X96289833Y-114675461D01*
X96289833Y-114675461D02*
X96337452Y-114770700D01*
X96337452Y-114770700D02*
X96432690Y-114818319D01*
X96432690Y-114818319D02*
X96575547Y-114818319D01*
X96575547Y-114818319D02*
X96670785Y-114770700D01*
X96670785Y-114770700D02*
X96718404Y-114723080D01*
X97527928Y-114294509D02*
X97194595Y-114294509D01*
X97194595Y-114818319D02*
X97194595Y-113818319D01*
X97194595Y-113818319D02*
X97670785Y-113818319D01*
X303442761Y-122057320D02*
X302871333Y-122057320D01*
X303157047Y-122057320D02*
X303157047Y-121057320D01*
X303157047Y-121057320D02*
X303061809Y-121200177D01*
X303061809Y-121200177D02*
X302966571Y-121295415D01*
X302966571Y-121295415D02*
X302871333Y-121343034D01*
X304299904Y-121390653D02*
X304299904Y-122057320D01*
X303871333Y-121390653D02*
X303871333Y-121914462D01*
X303871333Y-121914462D02*
X303918952Y-122009701D01*
X303918952Y-122009701D02*
X304014190Y-122057320D01*
X304014190Y-122057320D02*
X304157047Y-122057320D01*
X304157047Y-122057320D02*
X304252285Y-122009701D01*
X304252285Y-122009701D02*
X304299904Y-121962081D01*
X305109428Y-121533510D02*
X304776095Y-121533510D01*
X304776095Y-122057320D02*
X304776095Y-121057320D01*
X304776095Y-121057320D02*
X305252285Y-121057320D01*
X140436215Y-166100984D02*
X140102882Y-166100984D01*
X140102882Y-166624794D02*
X140102882Y-165624794D01*
X140102882Y-165624794D02*
X140579072Y-165624794D01*
X141293358Y-166100984D02*
X141436215Y-166148603D01*
X141436215Y-166148603D02*
X141483834Y-166196222D01*
X141483834Y-166196222D02*
X141531453Y-166291460D01*
X141531453Y-166291460D02*
X141531453Y-166434317D01*
X141531453Y-166434317D02*
X141483834Y-166529555D01*
X141483834Y-166529555D02*
X141436215Y-166577175D01*
X141436215Y-166577175D02*
X141340977Y-166624794D01*
X141340977Y-166624794D02*
X140960025Y-166624794D01*
X140960025Y-166624794D02*
X140960025Y-165624794D01*
X140960025Y-165624794D02*
X141293358Y-165624794D01*
X141293358Y-165624794D02*
X141388596Y-165672413D01*
X141388596Y-165672413D02*
X141436215Y-165720032D01*
X141436215Y-165720032D02*
X141483834Y-165815270D01*
X141483834Y-165815270D02*
X141483834Y-165910508D01*
X141483834Y-165910508D02*
X141436215Y-166005746D01*
X141436215Y-166005746D02*
X141388596Y-166053365D01*
X141388596Y-166053365D02*
X141293358Y-166100984D01*
X141293358Y-166100984D02*
X140960025Y-166100984D01*
X142483834Y-166624794D02*
X141912406Y-166624794D01*
X142198120Y-166624794D02*
X142198120Y-165624794D01*
X142198120Y-165624794D02*
X142102882Y-165767651D01*
X142102882Y-165767651D02*
X142007644Y-165862889D01*
X142007644Y-165862889D02*
X141912406Y-165910508D01*
X281217761Y-165110320D02*
X280646333Y-165110320D01*
X280932047Y-165110320D02*
X280932047Y-164110320D01*
X280932047Y-164110320D02*
X280836809Y-164253177D01*
X280836809Y-164253177D02*
X280741571Y-164348415D01*
X280741571Y-164348415D02*
X280646333Y-164396034D01*
X282074904Y-164443653D02*
X282074904Y-165110320D01*
X281646333Y-164443653D02*
X281646333Y-164967462D01*
X281646333Y-164967462D02*
X281693952Y-165062701D01*
X281693952Y-165062701D02*
X281789190Y-165110320D01*
X281789190Y-165110320D02*
X281932047Y-165110320D01*
X281932047Y-165110320D02*
X282027285Y-165062701D01*
X282027285Y-165062701D02*
X282074904Y-165015081D01*
X282884428Y-164586510D02*
X282551095Y-164586510D01*
X282551095Y-165110320D02*
X282551095Y-164110320D01*
X282551095Y-164110320D02*
X283027285Y-164110320D01*
X100881319Y-119657738D02*
X100881319Y-120229166D01*
X100881319Y-119943452D02*
X99881319Y-119943452D01*
X99881319Y-119943452D02*
X100024176Y-120038690D01*
X100024176Y-120038690D02*
X100119414Y-120133928D01*
X100119414Y-120133928D02*
X100167033Y-120229166D01*
X100214652Y-118800595D02*
X100881319Y-118800595D01*
X100214652Y-119229166D02*
X100738461Y-119229166D01*
X100738461Y-119229166D02*
X100833700Y-119181547D01*
X100833700Y-119181547D02*
X100881319Y-119086309D01*
X100881319Y-119086309D02*
X100881319Y-118943452D01*
X100881319Y-118943452D02*
X100833700Y-118848214D01*
X100833700Y-118848214D02*
X100786080Y-118800595D01*
X100357509Y-117991071D02*
X100357509Y-118324404D01*
X100881319Y-118324404D02*
X99881319Y-118324404D01*
X99881319Y-118324404D02*
X99881319Y-117848214D01*
X132014833Y-182128319D02*
X131681500Y-181652128D01*
X131443405Y-182128319D02*
X131443405Y-181128319D01*
X131443405Y-181128319D02*
X131824357Y-181128319D01*
X131824357Y-181128319D02*
X131919595Y-181175938D01*
X131919595Y-181175938D02*
X131967214Y-181223557D01*
X131967214Y-181223557D02*
X132014833Y-181318795D01*
X132014833Y-181318795D02*
X132014833Y-181461652D01*
X132014833Y-181461652D02*
X131967214Y-181556890D01*
X131967214Y-181556890D02*
X131919595Y-181604509D01*
X131919595Y-181604509D02*
X131824357Y-181652128D01*
X131824357Y-181652128D02*
X131443405Y-181652128D01*
X132871976Y-181128319D02*
X132681500Y-181128319D01*
X132681500Y-181128319D02*
X132586262Y-181175938D01*
X132586262Y-181175938D02*
X132538643Y-181223557D01*
X132538643Y-181223557D02*
X132443405Y-181366414D01*
X132443405Y-181366414D02*
X132395786Y-181556890D01*
X132395786Y-181556890D02*
X132395786Y-181937842D01*
X132395786Y-181937842D02*
X132443405Y-182033080D01*
X132443405Y-182033080D02*
X132491024Y-182080700D01*
X132491024Y-182080700D02*
X132586262Y-182128319D01*
X132586262Y-182128319D02*
X132776738Y-182128319D01*
X132776738Y-182128319D02*
X132871976Y-182080700D01*
X132871976Y-182080700D02*
X132919595Y-182033080D01*
X132919595Y-182033080D02*
X132967214Y-181937842D01*
X132967214Y-181937842D02*
X132967214Y-181699747D01*
X132967214Y-181699747D02*
X132919595Y-181604509D01*
X132919595Y-181604509D02*
X132871976Y-181556890D01*
X132871976Y-181556890D02*
X132776738Y-181509271D01*
X132776738Y-181509271D02*
X132586262Y-181509271D01*
X132586262Y-181509271D02*
X132491024Y-181556890D01*
X132491024Y-181556890D02*
X132443405Y-181604509D01*
X132443405Y-181604509D02*
X132395786Y-181699747D01*
X315526009Y-113426834D02*
X315526009Y-113760167D01*
X316049819Y-113760167D02*
X315049819Y-113760167D01*
X315049819Y-113760167D02*
X315049819Y-113283977D01*
X315145057Y-112950643D02*
X315097438Y-112903024D01*
X315097438Y-112903024D02*
X315049819Y-112807786D01*
X315049819Y-112807786D02*
X315049819Y-112569691D01*
X315049819Y-112569691D02*
X315097438Y-112474453D01*
X315097438Y-112474453D02*
X315145057Y-112426834D01*
X315145057Y-112426834D02*
X315240295Y-112379215D01*
X315240295Y-112379215D02*
X315335533Y-112379215D01*
X315335533Y-112379215D02*
X315478390Y-112426834D01*
X315478390Y-112426834D02*
X316049819Y-112998262D01*
X316049819Y-112998262D02*
X316049819Y-112379215D01*
X316049819Y-123213739D02*
X316049819Y-123785167D01*
X316049819Y-123499453D02*
X315049819Y-123499453D01*
X315049819Y-123499453D02*
X315192676Y-123594691D01*
X315192676Y-123594691D02*
X315287914Y-123689929D01*
X315287914Y-123689929D02*
X315335533Y-123785167D01*
X315383152Y-122356596D02*
X316049819Y-122356596D01*
X315383152Y-122785167D02*
X315906961Y-122785167D01*
X315906961Y-122785167D02*
X316002200Y-122737548D01*
X316002200Y-122737548D02*
X316049819Y-122642310D01*
X316049819Y-122642310D02*
X316049819Y-122499453D01*
X316049819Y-122499453D02*
X316002200Y-122404215D01*
X316002200Y-122404215D02*
X315954580Y-122356596D01*
X315526009Y-121547072D02*
X315526009Y-121880405D01*
X316049819Y-121880405D02*
X315049819Y-121880405D01*
X315049819Y-121880405D02*
X315049819Y-121404215D01*
X276552819Y-161789929D02*
X276552819Y-162361357D01*
X276552819Y-162075643D02*
X275552819Y-162075643D01*
X275552819Y-162075643D02*
X275695676Y-162170881D01*
X275695676Y-162170881D02*
X275790914Y-162266119D01*
X275790914Y-162266119D02*
X275838533Y-162361357D01*
X275552819Y-161170881D02*
X275552819Y-161075643D01*
X275552819Y-161075643D02*
X275600438Y-160980405D01*
X275600438Y-160980405D02*
X275648057Y-160932786D01*
X275648057Y-160932786D02*
X275743295Y-160885167D01*
X275743295Y-160885167D02*
X275933771Y-160837548D01*
X275933771Y-160837548D02*
X276171866Y-160837548D01*
X276171866Y-160837548D02*
X276362342Y-160885167D01*
X276362342Y-160885167D02*
X276457580Y-160932786D01*
X276457580Y-160932786D02*
X276505200Y-160980405D01*
X276505200Y-160980405D02*
X276552819Y-161075643D01*
X276552819Y-161075643D02*
X276552819Y-161170881D01*
X276552819Y-161170881D02*
X276505200Y-161266119D01*
X276505200Y-161266119D02*
X276457580Y-161313738D01*
X276457580Y-161313738D02*
X276362342Y-161361357D01*
X276362342Y-161361357D02*
X276171866Y-161408976D01*
X276171866Y-161408976D02*
X275933771Y-161408976D01*
X275933771Y-161408976D02*
X275743295Y-161361357D01*
X275743295Y-161361357D02*
X275648057Y-161313738D01*
X275648057Y-161313738D02*
X275600438Y-161266119D01*
X275600438Y-161266119D02*
X275552819Y-161170881D01*
X275886152Y-159980405D02*
X276552819Y-159980405D01*
X275886152Y-160408976D02*
X276409961Y-160408976D01*
X276409961Y-160408976D02*
X276505200Y-160361357D01*
X276505200Y-160361357D02*
X276552819Y-160266119D01*
X276552819Y-160266119D02*
X276552819Y-160123262D01*
X276552819Y-160123262D02*
X276505200Y-160028024D01*
X276505200Y-160028024D02*
X276457580Y-159980405D01*
X276029009Y-159170881D02*
X276029009Y-159504214D01*
X276552819Y-159504214D02*
X275552819Y-159504214D01*
X275552819Y-159504214D02*
X275552819Y-159028024D01*
X84240708Y-111991320D02*
X83907375Y-111515129D01*
X83669280Y-111991320D02*
X83669280Y-110991320D01*
X83669280Y-110991320D02*
X84050232Y-110991320D01*
X84050232Y-110991320D02*
X84145470Y-111038939D01*
X84145470Y-111038939D02*
X84193089Y-111086558D01*
X84193089Y-111086558D02*
X84240708Y-111181796D01*
X84240708Y-111181796D02*
X84240708Y-111324653D01*
X84240708Y-111324653D02*
X84193089Y-111419891D01*
X84193089Y-111419891D02*
X84145470Y-111467510D01*
X84145470Y-111467510D02*
X84050232Y-111515129D01*
X84050232Y-111515129D02*
X83669280Y-111515129D01*
X85193089Y-111991320D02*
X84621661Y-111991320D01*
X84907375Y-111991320D02*
X84907375Y-110991320D01*
X84907375Y-110991320D02*
X84812137Y-111134177D01*
X84812137Y-111134177D02*
X84716899Y-111229415D01*
X84716899Y-111229415D02*
X84621661Y-111277034D01*
X290434733Y-183568520D02*
X290101400Y-183092329D01*
X289863305Y-183568520D02*
X289863305Y-182568520D01*
X289863305Y-182568520D02*
X290244257Y-182568520D01*
X290244257Y-182568520D02*
X290339495Y-182616139D01*
X290339495Y-182616139D02*
X290387114Y-182663758D01*
X290387114Y-182663758D02*
X290434733Y-182758996D01*
X290434733Y-182758996D02*
X290434733Y-182901853D01*
X290434733Y-182901853D02*
X290387114Y-182997091D01*
X290387114Y-182997091D02*
X290339495Y-183044710D01*
X290339495Y-183044710D02*
X290244257Y-183092329D01*
X290244257Y-183092329D02*
X289863305Y-183092329D01*
X290910924Y-183568520D02*
X291101400Y-183568520D01*
X291101400Y-183568520D02*
X291196638Y-183520901D01*
X291196638Y-183520901D02*
X291244257Y-183473281D01*
X291244257Y-183473281D02*
X291339495Y-183330424D01*
X291339495Y-183330424D02*
X291387114Y-183139948D01*
X291387114Y-183139948D02*
X291387114Y-182758996D01*
X291387114Y-182758996D02*
X291339495Y-182663758D01*
X291339495Y-182663758D02*
X291291876Y-182616139D01*
X291291876Y-182616139D02*
X291196638Y-182568520D01*
X291196638Y-182568520D02*
X291006162Y-182568520D01*
X291006162Y-182568520D02*
X290910924Y-182616139D01*
X290910924Y-182616139D02*
X290863305Y-182663758D01*
X290863305Y-182663758D02*
X290815686Y-182758996D01*
X290815686Y-182758996D02*
X290815686Y-182997091D01*
X290815686Y-182997091D02*
X290863305Y-183092329D01*
X290863305Y-183092329D02*
X290910924Y-183139948D01*
X290910924Y-183139948D02*
X291006162Y-183187567D01*
X291006162Y-183187567D02*
X291196638Y-183187567D01*
X291196638Y-183187567D02*
X291291876Y-183139948D01*
X291291876Y-183139948D02*
X291339495Y-183092329D01*
X291339495Y-183092329D02*
X291387114Y-182997091D01*
X140472319Y-181205166D02*
X139996128Y-181538499D01*
X140472319Y-181776594D02*
X139472319Y-181776594D01*
X139472319Y-181776594D02*
X139472319Y-181395642D01*
X139472319Y-181395642D02*
X139519938Y-181300404D01*
X139519938Y-181300404D02*
X139567557Y-181252785D01*
X139567557Y-181252785D02*
X139662795Y-181205166D01*
X139662795Y-181205166D02*
X139805652Y-181205166D01*
X139805652Y-181205166D02*
X139900890Y-181252785D01*
X139900890Y-181252785D02*
X139948509Y-181300404D01*
X139948509Y-181300404D02*
X139996128Y-181395642D01*
X139996128Y-181395642D02*
X139996128Y-181776594D01*
X139472319Y-180300404D02*
X139472319Y-180776594D01*
X139472319Y-180776594D02*
X139948509Y-180824213D01*
X139948509Y-180824213D02*
X139900890Y-180776594D01*
X139900890Y-180776594D02*
X139853271Y-180681356D01*
X139853271Y-180681356D02*
X139853271Y-180443261D01*
X139853271Y-180443261D02*
X139900890Y-180348023D01*
X139900890Y-180348023D02*
X139948509Y-180300404D01*
X139948509Y-180300404D02*
X140043747Y-180252785D01*
X140043747Y-180252785D02*
X140281842Y-180252785D01*
X140281842Y-180252785D02*
X140377080Y-180300404D01*
X140377080Y-180300404D02*
X140424700Y-180348023D01*
X140424700Y-180348023D02*
X140472319Y-180443261D01*
X140472319Y-180443261D02*
X140472319Y-180681356D01*
X140472319Y-180681356D02*
X140424700Y-180776594D01*
X140424700Y-180776594D02*
X140377080Y-180824213D01*
X281217761Y-168158320D02*
X280646333Y-168158320D01*
X280932047Y-168158320D02*
X280932047Y-167158320D01*
X280932047Y-167158320D02*
X280836809Y-167301177D01*
X280836809Y-167301177D02*
X280741571Y-167396415D01*
X280741571Y-167396415D02*
X280646333Y-167444034D01*
X282074904Y-167491653D02*
X282074904Y-168158320D01*
X281646333Y-167491653D02*
X281646333Y-168015462D01*
X281646333Y-168015462D02*
X281693952Y-168110701D01*
X281693952Y-168110701D02*
X281789190Y-168158320D01*
X281789190Y-168158320D02*
X281932047Y-168158320D01*
X281932047Y-168158320D02*
X282027285Y-168110701D01*
X282027285Y-168110701D02*
X282074904Y-168063081D01*
X282884428Y-167634510D02*
X282551095Y-167634510D01*
X282551095Y-168158320D02*
X282551095Y-167158320D01*
X282551095Y-167158320D02*
X283027285Y-167158320D01*
X88259509Y-113299833D02*
X88259509Y-113633166D01*
X88783319Y-113633166D02*
X87783319Y-113633166D01*
X87783319Y-113633166D02*
X87783319Y-113156976D01*
X88783319Y-112252214D02*
X88783319Y-112823642D01*
X88783319Y-112537928D02*
X87783319Y-112537928D01*
X87783319Y-112537928D02*
X87926176Y-112633166D01*
X87926176Y-112633166D02*
X88021414Y-112728404D01*
X88021414Y-112728404D02*
X88069033Y-112823642D01*
X279854819Y-183125929D02*
X279854819Y-183697357D01*
X279854819Y-183411643D02*
X278854819Y-183411643D01*
X278854819Y-183411643D02*
X278997676Y-183506881D01*
X278997676Y-183506881D02*
X279092914Y-183602119D01*
X279092914Y-183602119D02*
X279140533Y-183697357D01*
X278854819Y-182506881D02*
X278854819Y-182411643D01*
X278854819Y-182411643D02*
X278902438Y-182316405D01*
X278902438Y-182316405D02*
X278950057Y-182268786D01*
X278950057Y-182268786D02*
X279045295Y-182221167D01*
X279045295Y-182221167D02*
X279235771Y-182173548D01*
X279235771Y-182173548D02*
X279473866Y-182173548D01*
X279473866Y-182173548D02*
X279664342Y-182221167D01*
X279664342Y-182221167D02*
X279759580Y-182268786D01*
X279759580Y-182268786D02*
X279807200Y-182316405D01*
X279807200Y-182316405D02*
X279854819Y-182411643D01*
X279854819Y-182411643D02*
X279854819Y-182506881D01*
X279854819Y-182506881D02*
X279807200Y-182602119D01*
X279807200Y-182602119D02*
X279759580Y-182649738D01*
X279759580Y-182649738D02*
X279664342Y-182697357D01*
X279664342Y-182697357D02*
X279473866Y-182744976D01*
X279473866Y-182744976D02*
X279235771Y-182744976D01*
X279235771Y-182744976D02*
X279045295Y-182697357D01*
X279045295Y-182697357D02*
X278950057Y-182649738D01*
X278950057Y-182649738D02*
X278902438Y-182602119D01*
X278902438Y-182602119D02*
X278854819Y-182506881D01*
X279188152Y-181316405D02*
X279854819Y-181316405D01*
X279188152Y-181744976D02*
X279711961Y-181744976D01*
X279711961Y-181744976D02*
X279807200Y-181697357D01*
X279807200Y-181697357D02*
X279854819Y-181602119D01*
X279854819Y-181602119D02*
X279854819Y-181459262D01*
X279854819Y-181459262D02*
X279807200Y-181364024D01*
X279807200Y-181364024D02*
X279759580Y-181316405D01*
X279331009Y-180506881D02*
X279331009Y-180840214D01*
X279854819Y-180840214D02*
X278854819Y-180840214D01*
X278854819Y-180840214D02*
X278854819Y-180364024D01*
X137948319Y-175601118D02*
X137948319Y-175410642D01*
X137948319Y-175410642D02*
X137995938Y-175315404D01*
X137995938Y-175315404D02*
X138091176Y-175220166D01*
X138091176Y-175220166D02*
X138281652Y-175172547D01*
X138281652Y-175172547D02*
X138614985Y-175172547D01*
X138614985Y-175172547D02*
X138805461Y-175220166D01*
X138805461Y-175220166D02*
X138900700Y-175315404D01*
X138900700Y-175315404D02*
X138948319Y-175410642D01*
X138948319Y-175410642D02*
X138948319Y-175601118D01*
X138948319Y-175601118D02*
X138900700Y-175696356D01*
X138900700Y-175696356D02*
X138805461Y-175791594D01*
X138805461Y-175791594D02*
X138614985Y-175839213D01*
X138614985Y-175839213D02*
X138281652Y-175839213D01*
X138281652Y-175839213D02*
X138091176Y-175791594D01*
X138091176Y-175791594D02*
X137995938Y-175696356D01*
X137995938Y-175696356D02*
X137948319Y-175601118D01*
X138900700Y-174791594D02*
X138948319Y-174648737D01*
X138948319Y-174648737D02*
X138948319Y-174410642D01*
X138948319Y-174410642D02*
X138900700Y-174315404D01*
X138900700Y-174315404D02*
X138853080Y-174267785D01*
X138853080Y-174267785D02*
X138757842Y-174220166D01*
X138757842Y-174220166D02*
X138662604Y-174220166D01*
X138662604Y-174220166D02*
X138567366Y-174267785D01*
X138567366Y-174267785D02*
X138519747Y-174315404D01*
X138519747Y-174315404D02*
X138472128Y-174410642D01*
X138472128Y-174410642D02*
X138424509Y-174601118D01*
X138424509Y-174601118D02*
X138376890Y-174696356D01*
X138376890Y-174696356D02*
X138329271Y-174743975D01*
X138329271Y-174743975D02*
X138234033Y-174791594D01*
X138234033Y-174791594D02*
X138138795Y-174791594D01*
X138138795Y-174791594D02*
X138043557Y-174743975D01*
X138043557Y-174743975D02*
X137995938Y-174696356D01*
X137995938Y-174696356D02*
X137948319Y-174601118D01*
X137948319Y-174601118D02*
X137948319Y-174363023D01*
X137948319Y-174363023D02*
X137995938Y-174220166D01*
X138853080Y-173220166D02*
X138900700Y-173267785D01*
X138900700Y-173267785D02*
X138948319Y-173410642D01*
X138948319Y-173410642D02*
X138948319Y-173505880D01*
X138948319Y-173505880D02*
X138900700Y-173648737D01*
X138900700Y-173648737D02*
X138805461Y-173743975D01*
X138805461Y-173743975D02*
X138710223Y-173791594D01*
X138710223Y-173791594D02*
X138519747Y-173839213D01*
X138519747Y-173839213D02*
X138376890Y-173839213D01*
X138376890Y-173839213D02*
X138186414Y-173791594D01*
X138186414Y-173791594D02*
X138091176Y-173743975D01*
X138091176Y-173743975D02*
X137995938Y-173648737D01*
X137995938Y-173648737D02*
X137948319Y-173505880D01*
X137948319Y-173505880D02*
X137948319Y-173410642D01*
X137948319Y-173410642D02*
X137995938Y-173267785D01*
X137995938Y-173267785D02*
X138043557Y-173220166D01*
X138948319Y-172267785D02*
X138948319Y-172839213D01*
X138948319Y-172553499D02*
X137948319Y-172553499D01*
X137948319Y-172553499D02*
X138091176Y-172648737D01*
X138091176Y-172648737D02*
X138186414Y-172743975D01*
X138186414Y-172743975D02*
X138234033Y-172839213D01*
X311223819Y-116387489D02*
X311223819Y-116958917D01*
X311223819Y-116673203D02*
X310223819Y-116673203D01*
X310223819Y-116673203D02*
X310366676Y-116768441D01*
X310366676Y-116768441D02*
X310461914Y-116863679D01*
X310461914Y-116863679D02*
X310509533Y-116958917D01*
X310557152Y-115530346D02*
X311223819Y-115530346D01*
X310557152Y-115958917D02*
X311080961Y-115958917D01*
X311080961Y-115958917D02*
X311176200Y-115911298D01*
X311176200Y-115911298D02*
X311223819Y-115816060D01*
X311223819Y-115816060D02*
X311223819Y-115673203D01*
X311223819Y-115673203D02*
X311176200Y-115577965D01*
X311176200Y-115577965D02*
X311128580Y-115530346D01*
X310700009Y-114720822D02*
X310700009Y-115054155D01*
X311223819Y-115054155D02*
X310223819Y-115054155D01*
X310223819Y-115054155D02*
X310223819Y-114577965D01*
X303522142Y-123581320D02*
X303188809Y-123105129D01*
X302950714Y-123581320D02*
X302950714Y-122581320D01*
X302950714Y-122581320D02*
X303331666Y-122581320D01*
X303331666Y-122581320D02*
X303426904Y-122628939D01*
X303426904Y-122628939D02*
X303474523Y-122676558D01*
X303474523Y-122676558D02*
X303522142Y-122771796D01*
X303522142Y-122771796D02*
X303522142Y-122914653D01*
X303522142Y-122914653D02*
X303474523Y-123009891D01*
X303474523Y-123009891D02*
X303426904Y-123057510D01*
X303426904Y-123057510D02*
X303331666Y-123105129D01*
X303331666Y-123105129D02*
X302950714Y-123105129D01*
X304474523Y-123581320D02*
X303903095Y-123581320D01*
X304188809Y-123581320D02*
X304188809Y-122581320D01*
X304188809Y-122581320D02*
X304093571Y-122724177D01*
X304093571Y-122724177D02*
X303998333Y-122819415D01*
X303998333Y-122819415D02*
X303903095Y-122867034D01*
X305093571Y-122581320D02*
X305188809Y-122581320D01*
X305188809Y-122581320D02*
X305284047Y-122628939D01*
X305284047Y-122628939D02*
X305331666Y-122676558D01*
X305331666Y-122676558D02*
X305379285Y-122771796D01*
X305379285Y-122771796D02*
X305426904Y-122962272D01*
X305426904Y-122962272D02*
X305426904Y-123200367D01*
X305426904Y-123200367D02*
X305379285Y-123390843D01*
X305379285Y-123390843D02*
X305331666Y-123486081D01*
X305331666Y-123486081D02*
X305284047Y-123533701D01*
X305284047Y-123533701D02*
X305188809Y-123581320D01*
X305188809Y-123581320D02*
X305093571Y-123581320D01*
X305093571Y-123581320D02*
X304998333Y-123533701D01*
X304998333Y-123533701D02*
X304950714Y-123486081D01*
X304950714Y-123486081D02*
X304903095Y-123390843D01*
X304903095Y-123390843D02*
X304855476Y-123200367D01*
X304855476Y-123200367D02*
X304855476Y-122962272D01*
X304855476Y-122962272D02*
X304903095Y-122771796D01*
X304903095Y-122771796D02*
X304950714Y-122676558D01*
X304950714Y-122676558D02*
X304998333Y-122628939D01*
X304998333Y-122628939D02*
X305093571Y-122581320D01*
X280979668Y-166067336D02*
X280646335Y-166067336D01*
X280646335Y-166591146D02*
X280646335Y-165591146D01*
X280646335Y-165591146D02*
X281122525Y-165591146D01*
X281836811Y-166067336D02*
X281979668Y-166114955D01*
X281979668Y-166114955D02*
X282027287Y-166162574D01*
X282027287Y-166162574D02*
X282074906Y-166257812D01*
X282074906Y-166257812D02*
X282074906Y-166400669D01*
X282074906Y-166400669D02*
X282027287Y-166495907D01*
X282027287Y-166495907D02*
X281979668Y-166543527D01*
X281979668Y-166543527D02*
X281884430Y-166591146D01*
X281884430Y-166591146D02*
X281503478Y-166591146D01*
X281503478Y-166591146D02*
X281503478Y-165591146D01*
X281503478Y-165591146D02*
X281836811Y-165591146D01*
X281836811Y-165591146D02*
X281932049Y-165638765D01*
X281932049Y-165638765D02*
X281979668Y-165686384D01*
X281979668Y-165686384D02*
X282027287Y-165781622D01*
X282027287Y-165781622D02*
X282027287Y-165876860D01*
X282027287Y-165876860D02*
X281979668Y-165972098D01*
X281979668Y-165972098D02*
X281932049Y-166019717D01*
X281932049Y-166019717D02*
X281836811Y-166067336D01*
X281836811Y-166067336D02*
X281503478Y-166067336D01*
X282408240Y-165591146D02*
X283027287Y-165591146D01*
X283027287Y-165591146D02*
X282693954Y-165972098D01*
X282693954Y-165972098D02*
X282836811Y-165972098D01*
X282836811Y-165972098D02*
X282932049Y-166019717D01*
X282932049Y-166019717D02*
X282979668Y-166067336D01*
X282979668Y-166067336D02*
X283027287Y-166162574D01*
X283027287Y-166162574D02*
X283027287Y-166400669D01*
X283027287Y-166400669D02*
X282979668Y-166495907D01*
X282979668Y-166495907D02*
X282932049Y-166543527D01*
X282932049Y-166543527D02*
X282836811Y-166591146D01*
X282836811Y-166591146D02*
X282551097Y-166591146D01*
X282551097Y-166591146D02*
X282455859Y-166543527D01*
X282455859Y-166543527D02*
X282408240Y-166495907D01*
X93498319Y-119824404D02*
X94307842Y-119824404D01*
X94307842Y-119824404D02*
X94403080Y-119776785D01*
X94403080Y-119776785D02*
X94450700Y-119729166D01*
X94450700Y-119729166D02*
X94498319Y-119633928D01*
X94498319Y-119633928D02*
X94498319Y-119443452D01*
X94498319Y-119443452D02*
X94450700Y-119348214D01*
X94450700Y-119348214D02*
X94403080Y-119300595D01*
X94403080Y-119300595D02*
X94307842Y-119252976D01*
X94307842Y-119252976D02*
X93498319Y-119252976D01*
X93498319Y-118872023D02*
X93498319Y-118252976D01*
X93498319Y-118252976D02*
X93879271Y-118586309D01*
X93879271Y-118586309D02*
X93879271Y-118443452D01*
X93879271Y-118443452D02*
X93926890Y-118348214D01*
X93926890Y-118348214D02*
X93974509Y-118300595D01*
X93974509Y-118300595D02*
X94069747Y-118252976D01*
X94069747Y-118252976D02*
X94307842Y-118252976D01*
X94307842Y-118252976D02*
X94403080Y-118300595D01*
X94403080Y-118300595D02*
X94450700Y-118348214D01*
X94450700Y-118348214D02*
X94498319Y-118443452D01*
X94498319Y-118443452D02*
X94498319Y-118729166D01*
X94498319Y-118729166D02*
X94450700Y-118824404D01*
X94450700Y-118824404D02*
X94403080Y-118872023D01*
X121073069Y-175267916D02*
X120596878Y-175601249D01*
X121073069Y-175839344D02*
X120073069Y-175839344D01*
X120073069Y-175839344D02*
X120073069Y-175458392D01*
X120073069Y-175458392D02*
X120120688Y-175363154D01*
X120120688Y-175363154D02*
X120168307Y-175315535D01*
X120168307Y-175315535D02*
X120263545Y-175267916D01*
X120263545Y-175267916D02*
X120406402Y-175267916D01*
X120406402Y-175267916D02*
X120501640Y-175315535D01*
X120501640Y-175315535D02*
X120549259Y-175363154D01*
X120549259Y-175363154D02*
X120596878Y-175458392D01*
X120596878Y-175458392D02*
X120596878Y-175839344D01*
X120406402Y-174410773D02*
X121073069Y-174410773D01*
X120025450Y-174648868D02*
X120739735Y-174886963D01*
X120739735Y-174886963D02*
X120739735Y-174267916D01*
X116514583Y-183525319D02*
X116181250Y-183049128D01*
X115943155Y-183525319D02*
X115943155Y-182525319D01*
X115943155Y-182525319D02*
X116324107Y-182525319D01*
X116324107Y-182525319D02*
X116419345Y-182572938D01*
X116419345Y-182572938D02*
X116466964Y-182620557D01*
X116466964Y-182620557D02*
X116514583Y-182715795D01*
X116514583Y-182715795D02*
X116514583Y-182858652D01*
X116514583Y-182858652D02*
X116466964Y-182953890D01*
X116466964Y-182953890D02*
X116419345Y-183001509D01*
X116419345Y-183001509D02*
X116324107Y-183049128D01*
X116324107Y-183049128D02*
X115943155Y-183049128D01*
X116847917Y-182525319D02*
X117466964Y-182525319D01*
X117466964Y-182525319D02*
X117133631Y-182906271D01*
X117133631Y-182906271D02*
X117276488Y-182906271D01*
X117276488Y-182906271D02*
X117371726Y-182953890D01*
X117371726Y-182953890D02*
X117419345Y-183001509D01*
X117419345Y-183001509D02*
X117466964Y-183096747D01*
X117466964Y-183096747D02*
X117466964Y-183334842D01*
X117466964Y-183334842D02*
X117419345Y-183430080D01*
X117419345Y-183430080D02*
X117371726Y-183477700D01*
X117371726Y-183477700D02*
X117276488Y-183525319D01*
X117276488Y-183525319D02*
X116990774Y-183525319D01*
X116990774Y-183525319D02*
X116895536Y-183477700D01*
X116895536Y-183477700D02*
X116847917Y-183430080D01*
X312801095Y-120930320D02*
X312801095Y-121739843D01*
X312801095Y-121739843D02*
X312848714Y-121835081D01*
X312848714Y-121835081D02*
X312896333Y-121882701D01*
X312896333Y-121882701D02*
X312991571Y-121930320D01*
X312991571Y-121930320D02*
X313182047Y-121930320D01*
X313182047Y-121930320D02*
X313277285Y-121882701D01*
X313277285Y-121882701D02*
X313324904Y-121835081D01*
X313324904Y-121835081D02*
X313372523Y-121739843D01*
X313372523Y-121739843D02*
X313372523Y-120930320D01*
X314324904Y-120930320D02*
X313848714Y-120930320D01*
X313848714Y-120930320D02*
X313801095Y-121406510D01*
X313801095Y-121406510D02*
X313848714Y-121358891D01*
X313848714Y-121358891D02*
X313943952Y-121311272D01*
X313943952Y-121311272D02*
X314182047Y-121311272D01*
X314182047Y-121311272D02*
X314277285Y-121358891D01*
X314277285Y-121358891D02*
X314324904Y-121406510D01*
X314324904Y-121406510D02*
X314372523Y-121501748D01*
X314372523Y-121501748D02*
X314372523Y-121739843D01*
X314372523Y-121739843D02*
X314324904Y-121835081D01*
X314324904Y-121835081D02*
X314277285Y-121882701D01*
X314277285Y-121882701D02*
X314182047Y-121930320D01*
X314182047Y-121930320D02*
X313943952Y-121930320D01*
X313943952Y-121930320D02*
X313848714Y-121882701D01*
X313848714Y-121882701D02*
X313801095Y-121835081D01*
X320254333Y-112024320D02*
X319921000Y-111548129D01*
X319682905Y-112024320D02*
X319682905Y-111024320D01*
X319682905Y-111024320D02*
X320063857Y-111024320D01*
X320063857Y-111024320D02*
X320159095Y-111071939D01*
X320159095Y-111071939D02*
X320206714Y-111119558D01*
X320206714Y-111119558D02*
X320254333Y-111214796D01*
X320254333Y-111214796D02*
X320254333Y-111357653D01*
X320254333Y-111357653D02*
X320206714Y-111452891D01*
X320206714Y-111452891D02*
X320159095Y-111500510D01*
X320159095Y-111500510D02*
X320063857Y-111548129D01*
X320063857Y-111548129D02*
X319682905Y-111548129D01*
X320825762Y-111452891D02*
X320730524Y-111405272D01*
X320730524Y-111405272D02*
X320682905Y-111357653D01*
X320682905Y-111357653D02*
X320635286Y-111262415D01*
X320635286Y-111262415D02*
X320635286Y-111214796D01*
X320635286Y-111214796D02*
X320682905Y-111119558D01*
X320682905Y-111119558D02*
X320730524Y-111071939D01*
X320730524Y-111071939D02*
X320825762Y-111024320D01*
X320825762Y-111024320D02*
X321016238Y-111024320D01*
X321016238Y-111024320D02*
X321111476Y-111071939D01*
X321111476Y-111071939D02*
X321159095Y-111119558D01*
X321159095Y-111119558D02*
X321206714Y-111214796D01*
X321206714Y-111214796D02*
X321206714Y-111262415D01*
X321206714Y-111262415D02*
X321159095Y-111357653D01*
X321159095Y-111357653D02*
X321111476Y-111405272D01*
X321111476Y-111405272D02*
X321016238Y-111452891D01*
X321016238Y-111452891D02*
X320825762Y-111452891D01*
X320825762Y-111452891D02*
X320730524Y-111500510D01*
X320730524Y-111500510D02*
X320682905Y-111548129D01*
X320682905Y-111548129D02*
X320635286Y-111643367D01*
X320635286Y-111643367D02*
X320635286Y-111833843D01*
X320635286Y-111833843D02*
X320682905Y-111929081D01*
X320682905Y-111929081D02*
X320730524Y-111976701D01*
X320730524Y-111976701D02*
X320825762Y-112024320D01*
X320825762Y-112024320D02*
X321016238Y-112024320D01*
X321016238Y-112024320D02*
X321111476Y-111976701D01*
X321111476Y-111976701D02*
X321159095Y-111929081D01*
X321159095Y-111929081D02*
X321206714Y-111833843D01*
X321206714Y-111833843D02*
X321206714Y-111643367D01*
X321206714Y-111643367D02*
X321159095Y-111548129D01*
X321159095Y-111548129D02*
X321111476Y-111500510D01*
X321111476Y-111500510D02*
X321016238Y-111452891D01*
X84240708Y-127010319D02*
X83907375Y-126534128D01*
X83669280Y-127010319D02*
X83669280Y-126010319D01*
X83669280Y-126010319D02*
X84050232Y-126010319D01*
X84050232Y-126010319D02*
X84145470Y-126057938D01*
X84145470Y-126057938D02*
X84193089Y-126105557D01*
X84193089Y-126105557D02*
X84240708Y-126200795D01*
X84240708Y-126200795D02*
X84240708Y-126343652D01*
X84240708Y-126343652D02*
X84193089Y-126438890D01*
X84193089Y-126438890D02*
X84145470Y-126486509D01*
X84145470Y-126486509D02*
X84050232Y-126534128D01*
X84050232Y-126534128D02*
X83669280Y-126534128D01*
X84621661Y-126105557D02*
X84669280Y-126057938D01*
X84669280Y-126057938D02*
X84764518Y-126010319D01*
X84764518Y-126010319D02*
X85002613Y-126010319D01*
X85002613Y-126010319D02*
X85097851Y-126057938D01*
X85097851Y-126057938D02*
X85145470Y-126105557D01*
X85145470Y-126105557D02*
X85193089Y-126200795D01*
X85193089Y-126200795D02*
X85193089Y-126296033D01*
X85193089Y-126296033D02*
X85145470Y-126438890D01*
X85145470Y-126438890D02*
X84574042Y-127010319D01*
X84574042Y-127010319D02*
X85193089Y-127010319D01*
X306784470Y-116104320D02*
X306784470Y-116913843D01*
X306784470Y-116913843D02*
X306832089Y-117009081D01*
X306832089Y-117009081D02*
X306879708Y-117056701D01*
X306879708Y-117056701D02*
X306974946Y-117104320D01*
X306974946Y-117104320D02*
X307165422Y-117104320D01*
X307165422Y-117104320D02*
X307260660Y-117056701D01*
X307260660Y-117056701D02*
X307308279Y-117009081D01*
X307308279Y-117009081D02*
X307355898Y-116913843D01*
X307355898Y-116913843D02*
X307355898Y-116104320D01*
X308260660Y-116104320D02*
X308070184Y-116104320D01*
X308070184Y-116104320D02*
X307974946Y-116151939D01*
X307974946Y-116151939D02*
X307927327Y-116199558D01*
X307927327Y-116199558D02*
X307832089Y-116342415D01*
X307832089Y-116342415D02*
X307784470Y-116532891D01*
X307784470Y-116532891D02*
X307784470Y-116913843D01*
X307784470Y-116913843D02*
X307832089Y-117009081D01*
X307832089Y-117009081D02*
X307879708Y-117056701D01*
X307879708Y-117056701D02*
X307974946Y-117104320D01*
X307974946Y-117104320D02*
X308165422Y-117104320D01*
X308165422Y-117104320D02*
X308260660Y-117056701D01*
X308260660Y-117056701D02*
X308308279Y-117009081D01*
X308308279Y-117009081D02*
X308355898Y-116913843D01*
X308355898Y-116913843D02*
X308355898Y-116675748D01*
X308355898Y-116675748D02*
X308308279Y-116580510D01*
X308308279Y-116580510D02*
X308260660Y-116532891D01*
X308260660Y-116532891D02*
X308165422Y-116485272D01*
X308165422Y-116485272D02*
X307974946Y-116485272D01*
X307974946Y-116485272D02*
X307879708Y-116532891D01*
X307879708Y-116532891D02*
X307832089Y-116580510D01*
X307832089Y-116580510D02*
X307784470Y-116675748D01*
X119515030Y-183571694D02*
X119515030Y-182571694D01*
X119515030Y-182571694D02*
X119753125Y-182571694D01*
X119753125Y-182571694D02*
X119895982Y-182619313D01*
X119895982Y-182619313D02*
X119991220Y-182714551D01*
X119991220Y-182714551D02*
X120038839Y-182809789D01*
X120038839Y-182809789D02*
X120086458Y-183000265D01*
X120086458Y-183000265D02*
X120086458Y-183143122D01*
X120086458Y-183143122D02*
X120038839Y-183333598D01*
X120038839Y-183333598D02*
X119991220Y-183428836D01*
X119991220Y-183428836D02*
X119895982Y-183524075D01*
X119895982Y-183524075D02*
X119753125Y-183571694D01*
X119753125Y-183571694D02*
X119515030Y-183571694D01*
X121038839Y-183571694D02*
X120467411Y-183571694D01*
X120753125Y-183571694D02*
X120753125Y-182571694D01*
X120753125Y-182571694D02*
X120657887Y-182714551D01*
X120657887Y-182714551D02*
X120562649Y-182809789D01*
X120562649Y-182809789D02*
X120467411Y-182857408D01*
X320230654Y-183532944D02*
X320230654Y-182532944D01*
X320230654Y-183009134D02*
X320802082Y-183009134D01*
X320802082Y-183532944D02*
X320802082Y-182532944D01*
X321802082Y-183532944D02*
X321230654Y-183532944D01*
X321516368Y-183532944D02*
X321516368Y-182532944D01*
X321516368Y-182532944D02*
X321421130Y-182675801D01*
X321421130Y-182675801D02*
X321325892Y-182771039D01*
X321325892Y-182771039D02*
X321230654Y-182818658D01*
X322421130Y-182532944D02*
X322516368Y-182532944D01*
X322516368Y-182532944D02*
X322611606Y-182580563D01*
X322611606Y-182580563D02*
X322659225Y-182628182D01*
X322659225Y-182628182D02*
X322706844Y-182723420D01*
X322706844Y-182723420D02*
X322754463Y-182913896D01*
X322754463Y-182913896D02*
X322754463Y-183151991D01*
X322754463Y-183151991D02*
X322706844Y-183342467D01*
X322706844Y-183342467D02*
X322659225Y-183437705D01*
X322659225Y-183437705D02*
X322611606Y-183485325D01*
X322611606Y-183485325D02*
X322516368Y-183532944D01*
X322516368Y-183532944D02*
X322421130Y-183532944D01*
X322421130Y-183532944D02*
X322325892Y-183485325D01*
X322325892Y-183485325D02*
X322278273Y-183437705D01*
X322278273Y-183437705D02*
X322230654Y-183342467D01*
X322230654Y-183342467D02*
X322183035Y-183151991D01*
X322183035Y-183151991D02*
X322183035Y-182913896D01*
X322183035Y-182913896D02*
X322230654Y-182723420D01*
X322230654Y-182723420D02*
X322278273Y-182628182D01*
X322278273Y-182628182D02*
X322325892Y-182580563D01*
X322325892Y-182580563D02*
X322421130Y-182532944D01*
X272127742Y-182001320D02*
X271794409Y-181525129D01*
X271556314Y-182001320D02*
X271556314Y-181001320D01*
X271556314Y-181001320D02*
X271937266Y-181001320D01*
X271937266Y-181001320D02*
X272032504Y-181048939D01*
X272032504Y-181048939D02*
X272080123Y-181096558D01*
X272080123Y-181096558D02*
X272127742Y-181191796D01*
X272127742Y-181191796D02*
X272127742Y-181334653D01*
X272127742Y-181334653D02*
X272080123Y-181429891D01*
X272080123Y-181429891D02*
X272032504Y-181477510D01*
X272032504Y-181477510D02*
X271937266Y-181525129D01*
X271937266Y-181525129D02*
X271556314Y-181525129D01*
X273080123Y-182001320D02*
X272508695Y-182001320D01*
X272794409Y-182001320D02*
X272794409Y-181001320D01*
X272794409Y-181001320D02*
X272699171Y-181144177D01*
X272699171Y-181144177D02*
X272603933Y-181239415D01*
X272603933Y-181239415D02*
X272508695Y-181287034D01*
X273461076Y-181096558D02*
X273508695Y-181048939D01*
X273508695Y-181048939D02*
X273603933Y-181001320D01*
X273603933Y-181001320D02*
X273842028Y-181001320D01*
X273842028Y-181001320D02*
X273937266Y-181048939D01*
X273937266Y-181048939D02*
X273984885Y-181096558D01*
X273984885Y-181096558D02*
X274032504Y-181191796D01*
X274032504Y-181191796D02*
X274032504Y-181287034D01*
X274032504Y-181287034D02*
X273984885Y-181429891D01*
X273984885Y-181429891D02*
X273413457Y-182001320D01*
X273413457Y-182001320D02*
X274032504Y-182001320D01*
X320254333Y-127043320D02*
X319921000Y-126567129D01*
X319682905Y-127043320D02*
X319682905Y-126043320D01*
X319682905Y-126043320D02*
X320063857Y-126043320D01*
X320063857Y-126043320D02*
X320159095Y-126090939D01*
X320159095Y-126090939D02*
X320206714Y-126138558D01*
X320206714Y-126138558D02*
X320254333Y-126233796D01*
X320254333Y-126233796D02*
X320254333Y-126376653D01*
X320254333Y-126376653D02*
X320206714Y-126471891D01*
X320206714Y-126471891D02*
X320159095Y-126519510D01*
X320159095Y-126519510D02*
X320063857Y-126567129D01*
X320063857Y-126567129D02*
X319682905Y-126567129D01*
X320587667Y-126043320D02*
X321254333Y-126043320D01*
X321254333Y-126043320D02*
X320825762Y-127043320D01*
X282318619Y-182240158D02*
X281842428Y-182573491D01*
X282318619Y-182811586D02*
X281318619Y-182811586D01*
X281318619Y-182811586D02*
X281318619Y-182430634D01*
X281318619Y-182430634D02*
X281366238Y-182335396D01*
X281366238Y-182335396D02*
X281413857Y-182287777D01*
X281413857Y-182287777D02*
X281509095Y-182240158D01*
X281509095Y-182240158D02*
X281651952Y-182240158D01*
X281651952Y-182240158D02*
X281747190Y-182287777D01*
X281747190Y-182287777D02*
X281794809Y-182335396D01*
X281794809Y-182335396D02*
X281842428Y-182430634D01*
X281842428Y-182430634D02*
X281842428Y-182811586D01*
X282318619Y-181287777D02*
X282318619Y-181859205D01*
X282318619Y-181573491D02*
X281318619Y-181573491D01*
X281318619Y-181573491D02*
X281461476Y-181668729D01*
X281461476Y-181668729D02*
X281556714Y-181763967D01*
X281556714Y-181763967D02*
X281604333Y-181859205D01*
X282318619Y-180335396D02*
X282318619Y-180906824D01*
X282318619Y-180621110D02*
X281318619Y-180621110D01*
X281318619Y-180621110D02*
X281461476Y-180716348D01*
X281461476Y-180716348D02*
X281556714Y-180811586D01*
X281556714Y-180811586D02*
X281604333Y-180906824D01*
X89757345Y-120930319D02*
X89757345Y-121739842D01*
X89757345Y-121739842D02*
X89804964Y-121835080D01*
X89804964Y-121835080D02*
X89852583Y-121882700D01*
X89852583Y-121882700D02*
X89947821Y-121930319D01*
X89947821Y-121930319D02*
X90138297Y-121930319D01*
X90138297Y-121930319D02*
X90233535Y-121882700D01*
X90233535Y-121882700D02*
X90281154Y-121835080D01*
X90281154Y-121835080D02*
X90328773Y-121739842D01*
X90328773Y-121739842D02*
X90328773Y-120930319D01*
X90757345Y-121025557D02*
X90804964Y-120977938D01*
X90804964Y-120977938D02*
X90900202Y-120930319D01*
X90900202Y-120930319D02*
X91138297Y-120930319D01*
X91138297Y-120930319D02*
X91233535Y-120977938D01*
X91233535Y-120977938D02*
X91281154Y-121025557D01*
X91281154Y-121025557D02*
X91328773Y-121120795D01*
X91328773Y-121120795D02*
X91328773Y-121216033D01*
X91328773Y-121216033D02*
X91281154Y-121358890D01*
X91281154Y-121358890D02*
X90709726Y-121930319D01*
X90709726Y-121930319D02*
X91328773Y-121930319D01*
X279108819Y-175855119D02*
X279108819Y-175664643D01*
X279108819Y-175664643D02*
X279156438Y-175569405D01*
X279156438Y-175569405D02*
X279251676Y-175474167D01*
X279251676Y-175474167D02*
X279442152Y-175426548D01*
X279442152Y-175426548D02*
X279775485Y-175426548D01*
X279775485Y-175426548D02*
X279965961Y-175474167D01*
X279965961Y-175474167D02*
X280061200Y-175569405D01*
X280061200Y-175569405D02*
X280108819Y-175664643D01*
X280108819Y-175664643D02*
X280108819Y-175855119D01*
X280108819Y-175855119D02*
X280061200Y-175950357D01*
X280061200Y-175950357D02*
X279965961Y-176045595D01*
X279965961Y-176045595D02*
X279775485Y-176093214D01*
X279775485Y-176093214D02*
X279442152Y-176093214D01*
X279442152Y-176093214D02*
X279251676Y-176045595D01*
X279251676Y-176045595D02*
X279156438Y-175950357D01*
X279156438Y-175950357D02*
X279108819Y-175855119D01*
X280061200Y-175045595D02*
X280108819Y-174902738D01*
X280108819Y-174902738D02*
X280108819Y-174664643D01*
X280108819Y-174664643D02*
X280061200Y-174569405D01*
X280061200Y-174569405D02*
X280013580Y-174521786D01*
X280013580Y-174521786D02*
X279918342Y-174474167D01*
X279918342Y-174474167D02*
X279823104Y-174474167D01*
X279823104Y-174474167D02*
X279727866Y-174521786D01*
X279727866Y-174521786D02*
X279680247Y-174569405D01*
X279680247Y-174569405D02*
X279632628Y-174664643D01*
X279632628Y-174664643D02*
X279585009Y-174855119D01*
X279585009Y-174855119D02*
X279537390Y-174950357D01*
X279537390Y-174950357D02*
X279489771Y-174997976D01*
X279489771Y-174997976D02*
X279394533Y-175045595D01*
X279394533Y-175045595D02*
X279299295Y-175045595D01*
X279299295Y-175045595D02*
X279204057Y-174997976D01*
X279204057Y-174997976D02*
X279156438Y-174950357D01*
X279156438Y-174950357D02*
X279108819Y-174855119D01*
X279108819Y-174855119D02*
X279108819Y-174617024D01*
X279108819Y-174617024D02*
X279156438Y-174474167D01*
X280013580Y-173474167D02*
X280061200Y-173521786D01*
X280061200Y-173521786D02*
X280108819Y-173664643D01*
X280108819Y-173664643D02*
X280108819Y-173759881D01*
X280108819Y-173759881D02*
X280061200Y-173902738D01*
X280061200Y-173902738D02*
X279965961Y-173997976D01*
X279965961Y-173997976D02*
X279870723Y-174045595D01*
X279870723Y-174045595D02*
X279680247Y-174093214D01*
X279680247Y-174093214D02*
X279537390Y-174093214D01*
X279537390Y-174093214D02*
X279346914Y-174045595D01*
X279346914Y-174045595D02*
X279251676Y-173997976D01*
X279251676Y-173997976D02*
X279156438Y-173902738D01*
X279156438Y-173902738D02*
X279108819Y-173759881D01*
X279108819Y-173759881D02*
X279108819Y-173664643D01*
X279108819Y-173664643D02*
X279156438Y-173521786D01*
X279156438Y-173521786D02*
X279204057Y-173474167D01*
X279204057Y-173093214D02*
X279156438Y-173045595D01*
X279156438Y-173045595D02*
X279108819Y-172950357D01*
X279108819Y-172950357D02*
X279108819Y-172712262D01*
X279108819Y-172712262D02*
X279156438Y-172617024D01*
X279156438Y-172617024D02*
X279204057Y-172569405D01*
X279204057Y-172569405D02*
X279299295Y-172521786D01*
X279299295Y-172521786D02*
X279394533Y-172521786D01*
X279394533Y-172521786D02*
X279537390Y-172569405D01*
X279537390Y-172569405D02*
X280108819Y-173140833D01*
X280108819Y-173140833D02*
X280108819Y-172521786D01*
X89783509Y-113291833D02*
X89783509Y-113625166D01*
X90307319Y-113625166D02*
X89307319Y-113625166D01*
X89307319Y-113625166D02*
X89307319Y-113148976D01*
X89783509Y-112434690D02*
X89831128Y-112291833D01*
X89831128Y-112291833D02*
X89878747Y-112244214D01*
X89878747Y-112244214D02*
X89973985Y-112196595D01*
X89973985Y-112196595D02*
X90116842Y-112196595D01*
X90116842Y-112196595D02*
X90212080Y-112244214D01*
X90212080Y-112244214D02*
X90259700Y-112291833D01*
X90259700Y-112291833D02*
X90307319Y-112387071D01*
X90307319Y-112387071D02*
X90307319Y-112768023D01*
X90307319Y-112768023D02*
X89307319Y-112768023D01*
X89307319Y-112768023D02*
X89307319Y-112434690D01*
X89307319Y-112434690D02*
X89354938Y-112339452D01*
X89354938Y-112339452D02*
X89402557Y-112291833D01*
X89402557Y-112291833D02*
X89497795Y-112244214D01*
X89497795Y-112244214D02*
X89593033Y-112244214D01*
X89593033Y-112244214D02*
X89688271Y-112291833D01*
X89688271Y-112291833D02*
X89735890Y-112339452D01*
X89735890Y-112339452D02*
X89783509Y-112434690D01*
X89783509Y-112434690D02*
X89783509Y-112768023D01*
X89402557Y-111815642D02*
X89354938Y-111768023D01*
X89354938Y-111768023D02*
X89307319Y-111672785D01*
X89307319Y-111672785D02*
X89307319Y-111434690D01*
X89307319Y-111434690D02*
X89354938Y-111339452D01*
X89354938Y-111339452D02*
X89402557Y-111291833D01*
X89402557Y-111291833D02*
X89497795Y-111244214D01*
X89497795Y-111244214D02*
X89593033Y-111244214D01*
X89593033Y-111244214D02*
X89735890Y-111291833D01*
X89735890Y-111291833D02*
X90307319Y-111863261D01*
X90307319Y-111863261D02*
X90307319Y-111244214D01*
X140539861Y-168209119D02*
X139968433Y-168209119D01*
X140254147Y-168209119D02*
X140254147Y-167209119D01*
X140254147Y-167209119D02*
X140158909Y-167351976D01*
X140158909Y-167351976D02*
X140063671Y-167447214D01*
X140063671Y-167447214D02*
X139968433Y-167494833D01*
X141397004Y-167542452D02*
X141397004Y-168209119D01*
X140968433Y-167542452D02*
X140968433Y-168066261D01*
X140968433Y-168066261D02*
X141016052Y-168161500D01*
X141016052Y-168161500D02*
X141111290Y-168209119D01*
X141111290Y-168209119D02*
X141254147Y-168209119D01*
X141254147Y-168209119D02*
X141349385Y-168161500D01*
X141349385Y-168161500D02*
X141397004Y-168113880D01*
X142206528Y-167685309D02*
X141873195Y-167685309D01*
X141873195Y-168209119D02*
X141873195Y-167209119D01*
X141873195Y-167209119D02*
X142349385Y-167209119D01*
X286202530Y-183525319D02*
X286202530Y-182525319D01*
X286202530Y-182525319D02*
X286440625Y-182525319D01*
X286440625Y-182525319D02*
X286583482Y-182572938D01*
X286583482Y-182572938D02*
X286678720Y-182668176D01*
X286678720Y-182668176D02*
X286726339Y-182763414D01*
X286726339Y-182763414D02*
X286773958Y-182953890D01*
X286773958Y-182953890D02*
X286773958Y-183096747D01*
X286773958Y-183096747D02*
X286726339Y-183287223D01*
X286726339Y-183287223D02*
X286678720Y-183382461D01*
X286678720Y-183382461D02*
X286583482Y-183477700D01*
X286583482Y-183477700D02*
X286440625Y-183525319D01*
X286440625Y-183525319D02*
X286202530Y-183525319D01*
X287154911Y-182620557D02*
X287202530Y-182572938D01*
X287202530Y-182572938D02*
X287297768Y-182525319D01*
X287297768Y-182525319D02*
X287535863Y-182525319D01*
X287535863Y-182525319D02*
X287631101Y-182572938D01*
X287631101Y-182572938D02*
X287678720Y-182620557D01*
X287678720Y-182620557D02*
X287726339Y-182715795D01*
X287726339Y-182715795D02*
X287726339Y-182811033D01*
X287726339Y-182811033D02*
X287678720Y-182953890D01*
X287678720Y-182953890D02*
X287107292Y-183525319D01*
X287107292Y-183525319D02*
X287726339Y-183525319D01*
%TO.C,C38*%
D12*
X266063000Y-165893968D02*
X266063000Y-165601434D01*
X267083000Y-165893968D02*
X267083000Y-165601434D01*
%TO.C,C17*%
X152546267Y-120775000D02*
X152253733Y-120775000D01*
X152546267Y-121795000D02*
X152253733Y-121795000D01*
%TO.C,C53*%
X271608766Y-130300000D02*
X271316232Y-130300000D01*
X271608766Y-131320000D02*
X271316232Y-131320000D01*
%TO.C,C13*%
X123920033Y-178496500D02*
X124212567Y-178496500D01*
X123920033Y-179516500D02*
X124212567Y-179516500D01*
%TO.C,C24*%
X171596267Y-144587500D02*
X171303733Y-144587500D01*
X171596267Y-145607500D02*
X171303733Y-145607500D01*
%TO.C,C63*%
X235181923Y-185543378D02*
X234899357Y-185619092D01*
X235445919Y-186528622D02*
X235163353Y-186604336D01*
%TO.C,C59*%
X271608766Y-149350000D02*
X271316232Y-149350000D01*
X271608766Y-150370000D02*
X271316232Y-150370000D01*
%TO.C,C20*%
X92483168Y-158895938D02*
X92195079Y-158946736D01*
X92660289Y-159900442D02*
X92372200Y-159951240D01*
%TO.C,C9*%
X137839233Y-164145500D02*
X138131767Y-164145500D01*
X137839233Y-165165500D02*
X138131767Y-165165500D01*
%TO.C,HS29*%
X310605506Y-163323869D02*
X312722842Y-163697212D01*
X311706297Y-160248294D02*
X313281990Y-160526131D01*
X312880863Y-162801037D02*
X312722842Y-163697212D01*
X313281990Y-160526131D02*
X313123970Y-161422306D01*
X311205211Y-160210712D02*
X311026161Y-159844048D01*
X311498870Y-159927400D01*
X311205211Y-160210712D01*
G36*
X311498870Y-159927400D02*
G01*
X311205211Y-160210712D01*
X311026161Y-159844048D01*
X311498870Y-159927400D01*
G37*
%TO.C,C65*%
X87310500Y-122599233D02*
X87310500Y-122891767D01*
X88330500Y-122599233D02*
X88330500Y-122891767D01*
%TO.C,C47*%
X252558766Y-120775000D02*
X252266232Y-120775000D01*
X252558766Y-121795000D02*
X252266232Y-121795000D01*
%TO.C,FB4*%
X313548500Y-115378777D02*
X313548500Y-115888225D01*
X314593500Y-115378777D02*
X314593500Y-115888225D01*
%TO.C,C1*%
X124115100Y-165892868D02*
X124115100Y-165600334D01*
X125135100Y-165892868D02*
X125135100Y-165600334D01*
%TO.C,C58*%
X252558766Y-158875001D02*
X252266232Y-158875001D01*
X252558766Y-159895001D02*
X252266232Y-159895001D01*
%TO.C,C10*%
X96310233Y-115123500D02*
X96602767Y-115123500D01*
X96310233Y-116143500D02*
X96602767Y-116143500D01*
%TO.C,C61*%
X309132301Y-178711825D02*
X308844212Y-178661027D01*
X309309422Y-177707321D02*
X309021333Y-177656523D01*
%TO.C,C5*%
X135341900Y-179419033D02*
X135341900Y-179711567D01*
X136361900Y-179419033D02*
X136361900Y-179711567D01*
%TO.C,C30*%
X147783767Y-182687500D02*
X147491233Y-182687500D01*
X147783767Y-183707500D02*
X147491233Y-183707500D01*
%TO.C,C21*%
X111851904Y-139822228D02*
X111560082Y-139842634D01*
X111923056Y-140839744D02*
X111631234Y-140860150D01*
%TO.C,C43*%
X307447733Y-121092501D02*
X307740267Y-121092501D01*
X307447733Y-122112501D02*
X307740267Y-122112501D01*
%TO.C,C4*%
X137348500Y-178352233D02*
X137348500Y-178644767D01*
X138368500Y-178352233D02*
X138368500Y-178644767D01*
%TO.C,C64*%
X257321267Y-182687501D02*
X257028733Y-182687501D01*
X257321267Y-183707501D02*
X257028733Y-183707501D01*
%TO.C,HS8*%
X110958677Y-144556066D02*
X113103439Y-144406090D01*
X111282721Y-141305544D02*
X112878823Y-141193934D01*
X112878823Y-141193934D02*
X112942302Y-142101717D01*
X113039961Y-143498307D02*
X113103439Y-144406090D01*
X110787427Y-141390300D02*
X110524992Y-141077846D01*
X111003822Y-141044363D01*
X110787427Y-141390300D01*
G36*
X110787427Y-141390300D02*
G01*
X110524992Y-141077846D01*
X111003822Y-141044363D01*
X110787427Y-141390300D01*
G37*
%TO.C,C44*%
X282827000Y-178352234D02*
X282827000Y-178644768D01*
X283847000Y-178352234D02*
X283847000Y-178644768D01*
%TO.C,HS34*%
X290380199Y-163409685D02*
X292524962Y-163559661D01*
X291153476Y-160235895D02*
X292749579Y-160347505D01*
X292588441Y-162651878D02*
X292524962Y-163559661D01*
X292749579Y-160347505D02*
X292686100Y-161255287D01*
X290651206Y-160250895D02*
X290434810Y-159904957D01*
X290913641Y-159938440D01*
X290651206Y-160250895D01*
G36*
X290913641Y-159938440D02*
G01*
X290651206Y-160250895D01*
X290434810Y-159904957D01*
X290913641Y-159938440D01*
G37*
%TO.C,C27*%
X133496267Y-149350000D02*
X133203733Y-149350000D01*
X133496267Y-150370000D02*
X133203733Y-150370000D01*
%TO.C,C36*%
X275867400Y-179419034D02*
X275867400Y-179711568D01*
X276887400Y-179419034D02*
X276887400Y-179711568D01*
%TO.C,HS33*%
X270387499Y-154010000D02*
X272537499Y-154010000D01*
X270937499Y-150790000D02*
X272537499Y-150790000D01*
X272537499Y-150790000D02*
X272537499Y-151700000D01*
X272537499Y-153100000D02*
X272537499Y-154010000D01*
X270437499Y-150840000D02*
X270197499Y-150510000D01*
X270677499Y-150510000D01*
X270437499Y-150840000D01*
G36*
X270437499Y-150840000D02*
G01*
X270197499Y-150510000D01*
X270677499Y-150510000D01*
X270437499Y-150840000D01*
G37*
%TO.C,C46*%
X233508767Y-125537500D02*
X233216233Y-125537500D01*
X233508767Y-126557500D02*
X233216233Y-126557500D01*
%TO.C,FB1*%
X138240224Y-165657000D02*
X137730776Y-165657000D01*
X138240224Y-166702000D02*
X137730776Y-166702000D01*
%TO.C,U4*%
X266352499Y-167530625D02*
X266352499Y-168480625D01*
X266352499Y-177750625D02*
X266352499Y-176800625D01*
X267302499Y-167530625D02*
X266352499Y-167530625D01*
X267302499Y-177750625D02*
X266352499Y-177750625D01*
X275622499Y-167530625D02*
X276572499Y-167530625D01*
X275622499Y-177750625D02*
X276572499Y-177750625D01*
X276572499Y-167530625D02*
X276572499Y-168480625D01*
X276572499Y-177750625D02*
X276572499Y-176800625D01*
X277187499Y-176800625D02*
X277527499Y-177270625D01*
X276847499Y-177270624D01*
X277187499Y-176800625D01*
G36*
X277527499Y-177270625D02*
G01*
X276847499Y-177270624D01*
X277187499Y-176800625D01*
X277527499Y-177270625D01*
G37*
%TO.C,C31*%
X169621880Y-186604336D02*
X169339314Y-186528622D01*
X169885876Y-185619092D02*
X169603310Y-185543378D01*
%TO.C,HS20*%
X232287500Y-130197500D02*
X234437500Y-130197500D01*
X232837500Y-126977500D02*
X234437500Y-126977500D01*
X234437500Y-126977500D02*
X234437500Y-127887500D01*
X234437500Y-129287500D02*
X234437500Y-130197500D01*
X232337500Y-127027500D02*
X232097500Y-126697500D01*
X232577500Y-126697500D01*
X232337500Y-127027500D01*
G36*
X232337500Y-127027500D02*
G01*
X232097500Y-126697500D01*
X232577500Y-126697500D01*
X232337500Y-127027500D01*
G37*
%TO.C,C41*%
X278364733Y-164145501D02*
X278657267Y-164145501D01*
X278364733Y-165165501D02*
X278657267Y-165165501D01*
%TO.C,HS2*%
X109768052Y-125506066D02*
X111912814Y-125356090D01*
X110092096Y-122255544D02*
X111688198Y-122143934D01*
X111688198Y-122143934D02*
X111751677Y-123051717D01*
X111849336Y-124448307D02*
X111912814Y-125356090D01*
X109596802Y-122340300D02*
X109334367Y-122027846D01*
X109813197Y-121994363D01*
X109596802Y-122340300D01*
G36*
X109596802Y-122340300D02*
G01*
X109334367Y-122027846D01*
X109813197Y-121994363D01*
X109596802Y-122340300D01*
G37*
%TO.C,C11*%
X98486500Y-119208767D02*
X98486500Y-118916233D01*
X99506500Y-119208767D02*
X99506500Y-118916233D01*
%TO.C,C35*%
X277366000Y-178352234D02*
X277366000Y-178644768D01*
X278386000Y-178352234D02*
X278386000Y-178644768D01*
%TO.C,C60*%
X291852405Y-159863743D02*
X291560583Y-159843337D01*
X291923557Y-158846227D02*
X291631735Y-158825821D01*
%TO.C,R6*%
X131926776Y-179627000D02*
X132436224Y-179627000D01*
X131926776Y-180672000D02*
X132436224Y-180672000D01*
%TO.C,F2*%
X315085000Y-115804768D02*
X315085000Y-115462234D01*
X316105000Y-115804768D02*
X316105000Y-115462234D01*
%TO.C,C12*%
X141031500Y-178352233D02*
X141031500Y-178644767D01*
X142051500Y-178352233D02*
X142051500Y-178644767D01*
%TO.C,C66*%
X316482000Y-122599234D02*
X316482000Y-122891768D01*
X317502000Y-122599234D02*
X317502000Y-122891768D01*
%TO.C,HS28*%
X291709059Y-144406089D02*
X293853822Y-144556065D01*
X292482336Y-141232299D02*
X294078439Y-141343909D01*
X293917301Y-143648282D02*
X293853822Y-144556065D01*
X294078439Y-141343909D02*
X294014960Y-142251691D01*
X291980066Y-141247299D02*
X291763670Y-140901361D01*
X292242501Y-140934844D01*
X291980066Y-141247299D01*
G36*
X292242501Y-140934844D02*
G01*
X291980066Y-141247299D01*
X291763670Y-140901361D01*
X292242501Y-140934844D01*
G37*
%TO.C,C33*%
X275588000Y-164420768D02*
X275588000Y-164128234D01*
X276608000Y-164420768D02*
X276608000Y-164128234D01*
%TO.C,HS38*%
X256100000Y-187347501D02*
X258250000Y-187347501D01*
X256650000Y-184127501D02*
X258250000Y-184127501D01*
X258250000Y-184127501D02*
X258250000Y-185037501D01*
X258250000Y-186437501D02*
X258250000Y-187347501D01*
X256150000Y-184177501D02*
X255910000Y-183847501D01*
X256390000Y-183847501D01*
X256150000Y-184177501D01*
G36*
X256150000Y-184177501D02*
G01*
X255910000Y-183847501D01*
X256390000Y-183847501D01*
X256150000Y-184177501D01*
G37*
%TO.C,R1*%
X84152651Y-112444001D02*
X84662099Y-112444001D01*
X84152651Y-113489001D02*
X84662099Y-113489001D01*
%TO.C,R9*%
X290346676Y-184021201D02*
X290856124Y-184021201D01*
X290346676Y-185066201D02*
X290856124Y-185066201D01*
%TO.C,C32*%
X189984562Y-195044210D02*
X189731220Y-194897943D01*
X190494562Y-194160865D02*
X190241220Y-194014598D01*
%TO.C,R5*%
X139495000Y-178753224D02*
X139495000Y-178243776D01*
X140540000Y-178753224D02*
X140540000Y-178243776D01*
%TO.C,C40*%
X278657267Y-167193501D02*
X278364733Y-167193501D01*
X278657267Y-168213501D02*
X278364733Y-168213501D01*
%TO.C,HS22*%
X270387498Y-115910000D02*
X272537498Y-115910000D01*
X270937498Y-112690000D02*
X272537498Y-112690000D01*
X272537498Y-112690000D02*
X272537498Y-113600000D01*
X272537498Y-115000000D02*
X272537498Y-115910000D01*
X270437498Y-112740000D02*
X270197498Y-112410000D01*
X270677498Y-112410000D01*
X270437498Y-112740000D01*
G36*
X270437498Y-112740000D02*
G01*
X270197498Y-112410000D01*
X270677498Y-112410000D01*
X270437498Y-112740000D01*
G37*
%TO.C,HS19*%
X187106916Y-197585909D02*
X188968868Y-198660908D01*
X189193230Y-195072308D02*
X190578868Y-195872307D01*
X189423868Y-197872825D02*
X188968868Y-198660908D01*
X190578868Y-195872307D02*
X190123868Y-196660389D01*
X188735216Y-194865608D02*
X188692371Y-194459820D01*
X189108062Y-194699821D01*
X188735216Y-194865608D01*
G36*
X189108062Y-194699821D02*
G01*
X188735216Y-194865608D01*
X188692371Y-194459820D01*
X189108062Y-194699821D01*
G37*
%TO.C,C2*%
X125588300Y-165893967D02*
X125588300Y-165601433D01*
X126608300Y-165893967D02*
X126608300Y-165601433D01*
%TO.C,C37*%
X264687267Y-177023301D02*
X264394733Y-177023301D01*
X264687267Y-178043301D02*
X264394733Y-178043301D01*
%TO.C,HS25*%
X232287498Y-149247500D02*
X234437498Y-149247500D01*
X232837498Y-146027500D02*
X234437498Y-146027500D01*
X234437498Y-146027500D02*
X234437498Y-146937500D01*
X234437498Y-148337500D02*
X234437498Y-149247500D01*
X232337498Y-146077500D02*
X232097498Y-145747500D01*
X232577498Y-145747500D01*
X232337498Y-146077500D01*
G36*
X232337498Y-146077500D02*
G01*
X232097498Y-145747500D01*
X232577498Y-145747500D01*
X232337498Y-146077500D01*
G37*
%TO.C,F1*%
X87834375Y-115677767D02*
X87834375Y-115335233D01*
X88854375Y-115677767D02*
X88854375Y-115335233D01*
%TO.C,C45*%
X278890000Y-178644768D02*
X278890000Y-178352234D01*
X279910000Y-178644768D02*
X279910000Y-178352234D01*
%TO.C,C62*%
X214571279Y-194014597D02*
X214317937Y-194160864D01*
X215081279Y-194897942D02*
X214827937Y-195044209D01*
D10*
%TO.C,OSC1*%
X143192500Y-175602901D02*
X143446500Y-175221900D01*
X143446500Y-175983900D01*
X143192500Y-175602901D01*
G36*
X143446500Y-175983900D02*
G01*
X143192500Y-175602901D01*
X143446500Y-175221900D01*
X143446500Y-175983900D01*
G37*
%TO.C,C18*%
D12*
X171596267Y-125537500D02*
X171303733Y-125537500D01*
X171596267Y-126557500D02*
X171303733Y-126557500D01*
%TO.C,C14*%
X89175170Y-140135350D02*
X88887081Y-140186148D01*
X89352291Y-141139854D02*
X89064202Y-141190652D01*
%TO.C,C16*%
X133496267Y-111250000D02*
X133203733Y-111250000D01*
X133496267Y-112270000D02*
X133203733Y-112270000D01*
%TO.C,J2*%
X78368125Y-114482500D02*
X80073125Y-114482500D01*
X78368125Y-123642500D02*
X78368125Y-114482500D01*
X80073125Y-123642500D02*
X78368125Y-123642500D01*
X82083125Y-123642501D02*
X84003125Y-123642501D01*
X84003125Y-114482499D02*
X82083125Y-114482499D01*
%TO.C,C50*%
X315748295Y-141190652D02*
X315460206Y-141139854D01*
X315925416Y-140186148D02*
X315637327Y-140135350D01*
%TO.C,C42*%
X310259000Y-118916234D02*
X310259000Y-119208768D01*
X311279000Y-118916234D02*
X311279000Y-119208768D01*
%TO.C,HS23*%
X293037919Y-125402495D02*
X295182682Y-125552471D01*
X293811196Y-122228705D02*
X295407299Y-122340315D01*
X295246161Y-124644688D02*
X295182682Y-125552471D01*
X295407299Y-122340315D02*
X295343820Y-123248097D01*
X293308926Y-122243705D02*
X293092530Y-121897767D01*
X293571361Y-121931250D01*
X293308926Y-122243705D01*
G36*
X293571361Y-121931250D02*
G01*
X293308926Y-122243705D01*
X293092530Y-121897767D01*
X293571361Y-121931250D01*
G37*
%TO.C,HS21*%
X251337499Y-125435000D02*
X253487499Y-125435000D01*
X251887499Y-122215000D02*
X253487499Y-122215000D01*
X253487499Y-122215000D02*
X253487499Y-123125000D01*
X253487499Y-124525000D02*
X253487499Y-125435000D01*
X251387499Y-122265000D02*
X251147499Y-121935000D01*
X251627499Y-121935000D01*
X251387499Y-122265000D01*
G36*
X251387499Y-122265000D02*
G01*
X251147499Y-121935000D01*
X251627499Y-121935000D01*
X251387499Y-122265000D01*
G37*
%TO.C,C7*%
X139998233Y-170368500D02*
X140290767Y-170368500D01*
X139998233Y-171388500D02*
X140290767Y-171388500D01*
%TO.C,HS10*%
X151325000Y-144485000D02*
X153475000Y-144485000D01*
X151875000Y-141265000D02*
X153475000Y-141265000D01*
X153475000Y-141265000D02*
X153475000Y-142175000D01*
X153475000Y-143575000D02*
X153475000Y-144485000D01*
X151375000Y-141315000D02*
X151135000Y-140985000D01*
X151615000Y-140985000D01*
X151375000Y-141315000D01*
G36*
X151375000Y-141315000D02*
G01*
X151135000Y-140985000D01*
X151615000Y-140985000D01*
X151375000Y-141315000D01*
G37*
%TO.C,C26*%
X113042528Y-158872227D02*
X112750706Y-158892633D01*
X113113680Y-159889743D02*
X112821858Y-159910149D01*
%TO.C,HS17*%
X146562500Y-187347500D02*
X148712500Y-187347500D01*
X147112500Y-184127500D02*
X148712500Y-184127500D01*
X148712500Y-184127500D02*
X148712500Y-185037500D01*
X148712500Y-186437500D02*
X148712500Y-187347500D01*
X146612500Y-184177500D02*
X146372500Y-183847500D01*
X146852500Y-183847500D01*
X146612500Y-184177500D01*
G36*
X146612500Y-184177500D02*
G01*
X146372500Y-183847500D01*
X146852500Y-183847500D01*
X146612500Y-184177500D01*
G37*
%TO.C,HS31*%
X232287500Y-168297501D02*
X234437500Y-168297501D01*
X232837500Y-165077501D02*
X234437500Y-165077501D01*
X234437500Y-165077501D02*
X234437500Y-165987501D01*
X234437500Y-167387501D02*
X234437500Y-168297501D01*
X232337500Y-165127501D02*
X232097500Y-164797501D01*
X232577500Y-164797501D01*
X232337500Y-165127501D01*
G36*
X232337500Y-165127501D02*
G01*
X232097500Y-164797501D01*
X232577500Y-164797501D01*
X232337500Y-165127501D01*
G37*
%TO.C,R10*%
X307848724Y-122604001D02*
X307339276Y-122604001D01*
X307848724Y-123649001D02*
X307339276Y-123649001D01*
%TO.C,J9*%
X320809375Y-123642502D02*
X322729375Y-123642502D01*
X322729375Y-114482500D02*
X320809375Y-114482500D01*
X324739375Y-114482501D02*
X326444375Y-114482501D01*
X326444375Y-114482501D02*
X326444375Y-123642501D01*
X326444375Y-123642501D02*
X324739375Y-123642501D01*
%TO.C,C6*%
X124212567Y-177023300D02*
X123920033Y-177023300D01*
X124212567Y-178043300D02*
X123920033Y-178043300D01*
%TO.C,FB3*%
X278765724Y-165657001D02*
X278256276Y-165657001D01*
X278765724Y-166702001D02*
X278256276Y-166702001D01*
%TO.C,U3*%
X94830625Y-118162500D02*
X94830625Y-119962500D01*
X98050625Y-119162500D02*
X98050625Y-118362500D01*
X98050625Y-119162500D02*
X98050625Y-119962500D01*
X98000625Y-117862500D02*
X98330625Y-117622500D01*
X98330625Y-118102500D01*
X98000625Y-117862500D01*
G36*
X98330625Y-118102500D02*
G01*
X98000625Y-117862500D01*
X98330625Y-117622500D01*
X98330625Y-118102500D01*
G37*
%TO.C,C49*%
X294510126Y-121856553D02*
X294218304Y-121836147D01*
X294581278Y-120839037D02*
X294289456Y-120818631D01*
%TO.C,C51*%
X233508765Y-144587500D02*
X233216231Y-144587500D01*
X233508765Y-145607500D02*
X233216231Y-145607500D01*
%TO.C,C48*%
X271608765Y-111250000D02*
X271316231Y-111250000D01*
X271608765Y-112270000D02*
X271316231Y-112270000D01*
%TO.C,HS1*%
X88764155Y-141670037D02*
X90339848Y-141392200D01*
X88781658Y-144936624D02*
X90898995Y-144563281D01*
X90339848Y-141392200D02*
X90497868Y-142288375D01*
X90740975Y-143667106D02*
X90898995Y-144563281D01*
X88280434Y-141806101D02*
X87986776Y-141522790D01*
X88459484Y-141439439D01*
X88280434Y-141806101D01*
G36*
X88280434Y-141806101D02*
G01*
X87986776Y-141522790D01*
X88459484Y-141439439D01*
X88280434Y-141806101D01*
G37*
%TO.C,R4*%
X121619750Y-174846526D02*
X121619750Y-175355974D01*
X122664750Y-174846526D02*
X122664750Y-175355974D01*
%TO.C,C39*%
X280269733Y-170241501D02*
X280562267Y-170241501D01*
X280269733Y-171261501D02*
X280562267Y-171261501D01*
%TO.C,R3*%
X116935974Y-184024375D02*
X116426526Y-184024375D01*
X116935974Y-185069375D02*
X116426526Y-185069375D01*
%TO.C,HS26*%
X251337499Y-144485000D02*
X253487499Y-144485000D01*
X251887499Y-141265000D02*
X253487499Y-141265000D01*
X253487499Y-141265000D02*
X253487499Y-142175000D01*
X253487499Y-143575000D02*
X253487499Y-144485000D01*
X251387499Y-141315000D02*
X251147499Y-140985000D01*
X251627499Y-140985000D01*
X251387499Y-141315000D01*
G36*
X251387499Y-141315000D02*
G01*
X251147499Y-140985000D01*
X251627499Y-140985000D01*
X251387499Y-141315000D01*
G37*
%TO.C,J8*%
X215290000Y-162107501D02*
X216995000Y-162107501D01*
X215290000Y-171267501D02*
X215290000Y-162107501D01*
X216995000Y-171267501D02*
X215290000Y-171267501D01*
X219005000Y-171267502D02*
X220925000Y-171267502D01*
X220925000Y-162107500D02*
X219005000Y-162107500D01*
%TO.C,HS12*%
X95380150Y-179191211D02*
X96955843Y-178913374D01*
X95397653Y-182457798D02*
X97514990Y-182084455D01*
X96955843Y-178913374D02*
X97113863Y-179809549D01*
X97356970Y-181188280D02*
X97514990Y-182084455D01*
X94896429Y-179327275D02*
X94602771Y-179043964D01*
X95075479Y-178960613D01*
X94896429Y-179327275D01*
G36*
X94896429Y-179327275D02*
G01*
X94602771Y-179043964D01*
X95075479Y-178960613D01*
X94896429Y-179327275D01*
G37*
%TO.C,U5*%
X314324999Y-117502501D02*
X313524999Y-117502502D01*
X314324999Y-117502501D02*
X315124999Y-117502502D01*
X314324999Y-120622503D02*
X313524999Y-120622502D01*
X314324999Y-120622503D02*
X315124999Y-120622502D01*
X313024999Y-117552502D02*
X312784999Y-117222502D01*
X313264999Y-117222502D01*
X313024999Y-117552502D01*
G36*
X313024999Y-117552502D02*
G01*
X312784999Y-117222502D01*
X313264999Y-117222502D01*
X313024999Y-117552502D01*
G37*
%TO.C,HS37*%
X234906228Y-187108047D02*
X236451710Y-186693937D01*
X235208366Y-190360679D02*
X237285107Y-189804217D01*
X236451710Y-186693937D02*
X236687235Y-187572929D01*
X237049582Y-188925226D02*
X237285107Y-189804217D01*
X234436206Y-187285753D02*
X234118975Y-187029114D01*
X234582618Y-186904881D01*
X234436206Y-187285753D01*
G36*
X234436206Y-187285753D02*
G01*
X234118975Y-187029114D01*
X234582618Y-186904881D01*
X234436206Y-187285753D01*
G37*
%TO.C,R8*%
X320675724Y-112444001D02*
X320166276Y-112444001D01*
X320675724Y-113489001D02*
X320166276Y-113489001D01*
%TO.C,HS32*%
X251337499Y-163535001D02*
X253487499Y-163535001D01*
X251887499Y-160315001D02*
X253487499Y-160315001D01*
X253487499Y-160315001D02*
X253487499Y-161225001D01*
X253487499Y-162625001D02*
X253487499Y-163535001D01*
X251387499Y-160365001D02*
X251147499Y-160035001D01*
X251627499Y-160035001D01*
X251387499Y-160365001D01*
G36*
X251387499Y-160365001D02*
G01*
X251147499Y-160035001D01*
X251627499Y-160035001D01*
X251387499Y-160365001D01*
G37*
%TO.C,HS35*%
X307297509Y-182084455D02*
X309414845Y-182457798D01*
X308398300Y-179008880D02*
X309973993Y-179286717D01*
X309572866Y-181561623D02*
X309414845Y-182457798D01*
X309973993Y-179286717D02*
X309815973Y-180182892D01*
X307897214Y-178971298D02*
X307718164Y-178604634D01*
X308190873Y-178687986D01*
X307897214Y-178971298D01*
G36*
X308190873Y-178687986D02*
G01*
X307897214Y-178971298D01*
X307718164Y-178604634D01*
X308190873Y-178687986D01*
G37*
%TO.C,HS18*%
X167500463Y-189804262D02*
X169577203Y-190360723D01*
X168865120Y-186836330D02*
X170410600Y-187250442D01*
X169812728Y-189481731D02*
X169577203Y-190360723D01*
X170410600Y-187250442D02*
X170175075Y-188129435D01*
X168369216Y-186755219D02*
X168222804Y-186374347D01*
X168686447Y-186498580D01*
X168369216Y-186755219D01*
G36*
X168686447Y-186498580D02*
G01*
X168369216Y-186755219D01*
X168222804Y-186374347D01*
X168686447Y-186498580D01*
G37*
%TO.C,R2*%
X84152651Y-124635999D02*
X84662099Y-124635999D01*
X84152651Y-125680999D02*
X84662099Y-125680999D01*
%TO.C,HS4*%
X151325000Y-125435000D02*
X153475000Y-125435000D01*
X151875000Y-122215000D02*
X153475000Y-122215000D01*
X153475000Y-122215000D02*
X153475000Y-123125000D01*
X153475000Y-124525000D02*
X153475000Y-125435000D01*
X151375000Y-122265000D02*
X151135000Y-121935000D01*
X151615000Y-121935000D01*
X151375000Y-122265000D01*
G36*
X151375000Y-122265000D02*
G01*
X151135000Y-121935000D01*
X151615000Y-121935000D01*
X151375000Y-122265000D01*
G37*
%TO.C,U6*%
X307446375Y-120672501D02*
X306646375Y-120672501D01*
X307446375Y-120672501D02*
X308246375Y-120672501D01*
X308446375Y-117452501D02*
X306646375Y-117452501D01*
X308746376Y-120622501D02*
X308986375Y-120952501D01*
X308506375Y-120952501D01*
X308746376Y-120622501D01*
G36*
X308986375Y-120952501D02*
G01*
X308506375Y-120952501D01*
X308746376Y-120622501D01*
X308986375Y-120952501D01*
G37*
%TO.C,C25*%
X95791166Y-177656524D02*
X95503077Y-177707322D01*
X95968287Y-178661028D02*
X95680198Y-178711826D01*
%TO.C,HS6*%
X74965565Y-173118915D02*
X76541258Y-172841078D01*
X74983068Y-176385502D02*
X77100405Y-176012159D01*
X76541258Y-172841078D02*
X76699278Y-173737253D01*
X76942385Y-175115984D02*
X77100405Y-176012159D01*
X74481844Y-173254979D02*
X74188186Y-172971668D01*
X74660894Y-172888317D01*
X74481844Y-173254979D01*
G36*
X74481844Y-173254979D02*
G01*
X74188186Y-172971668D01*
X74660894Y-172888317D01*
X74481844Y-173254979D01*
G37*
%TO.C,D1*%
X118593125Y-183811875D02*
X118593125Y-185281875D01*
X118593125Y-185281875D02*
X121053125Y-185281875D01*
X121053125Y-183811875D02*
X118593125Y-183811875D01*
%TO.C,HS27*%
X270387499Y-134960000D02*
X272537499Y-134960000D01*
X270937499Y-131740000D02*
X272537499Y-131740000D01*
X272537499Y-131740000D02*
X272537499Y-132650000D01*
X272537499Y-134050000D02*
X272537499Y-134960000D01*
X270437499Y-131790000D02*
X270197499Y-131460000D01*
X270677499Y-131460000D01*
X270437499Y-131790000D01*
G36*
X270437499Y-131790000D02*
G01*
X270197499Y-131460000D01*
X270677499Y-131460000D01*
X270437499Y-131790000D01*
G37*
%TO.C,R12*%
X272515876Y-179601601D02*
X273025324Y-179601601D01*
X272515876Y-180646601D02*
X273025324Y-180646601D01*
%TO.C,HS30*%
X327712094Y-176012159D02*
X329829430Y-176385502D01*
X328812885Y-172936584D02*
X330388578Y-173214421D01*
X329987451Y-175489327D02*
X329829430Y-176385502D01*
X330388578Y-173214421D02*
X330230558Y-174110596D01*
X328311799Y-172899002D02*
X328132749Y-172532338D01*
X328605458Y-172615690D01*
X328311799Y-172899002D01*
G36*
X328605458Y-172615690D02*
G01*
X328311799Y-172899002D01*
X328132749Y-172532338D01*
X328605458Y-172615690D01*
G37*
%TO.C,C22*%
X133496267Y-130295000D02*
X133203733Y-130295000D01*
X133496267Y-131315000D02*
X133203733Y-131315000D01*
%TO.C,R7*%
X320675724Y-124636001D02*
X320166276Y-124636001D01*
X320675724Y-125681001D02*
X320166276Y-125681001D01*
%TO.C,HS16*%
X170375000Y-168297500D02*
X172525000Y-168297500D01*
X170925000Y-165077500D02*
X172525000Y-165077500D01*
X172525000Y-165077500D02*
X172525000Y-165987500D01*
X172525000Y-167387500D02*
X172525000Y-168297500D01*
X170425000Y-165127500D02*
X170185000Y-164797500D01*
X170665000Y-164797500D01*
X170425000Y-165127500D01*
G36*
X170425000Y-165127500D02*
G01*
X170185000Y-164797500D01*
X170665000Y-164797500D01*
X170425000Y-165127500D01*
G37*
%TO.C,C55*%
X312440298Y-159951240D02*
X312152209Y-159900442D01*
X312617419Y-158946736D02*
X312329330Y-158895938D01*
%TO.C,HS9*%
X132275000Y-134960000D02*
X134425000Y-134960000D01*
X132825000Y-131740000D02*
X134425000Y-131740000D01*
X134425000Y-131740000D02*
X134425000Y-132650000D01*
X134425000Y-134050000D02*
X134425000Y-134960000D01*
X132325000Y-131790000D02*
X132085000Y-131460000D01*
X132565000Y-131460000D01*
X132325000Y-131790000D01*
G36*
X132325000Y-131790000D02*
G01*
X132085000Y-131460000D01*
X132565000Y-131460000D01*
X132325000Y-131790000D01*
G37*
%TO.C,HS36*%
X214709945Y-195597306D02*
X216095583Y-194797307D01*
X215843631Y-198660907D02*
X217705583Y-197585908D01*
X216095583Y-194797307D02*
X216550583Y-195585390D01*
X217250584Y-196797824D02*
X217705583Y-197585908D01*
X214301932Y-195890607D02*
X213929086Y-195724819D01*
X214344777Y-195484819D01*
X214301932Y-195890607D01*
G36*
X214301932Y-195890607D02*
G01*
X213929086Y-195724819D01*
X214344777Y-195484819D01*
X214301932Y-195890607D01*
G37*
%TO.C,HS7*%
X92072152Y-160430625D02*
X93647845Y-160152788D01*
X92089655Y-163697212D02*
X94206992Y-163323869D01*
X93647845Y-160152788D02*
X93805865Y-161048963D01*
X94048972Y-162427694D02*
X94206992Y-163323869D01*
X91588431Y-160566689D02*
X91294773Y-160283378D01*
X91767481Y-160200027D01*
X91588431Y-160566689D01*
G36*
X91588431Y-160566689D02*
G01*
X91294773Y-160283378D01*
X91767481Y-160200027D01*
X91588431Y-160566689D01*
G37*
%TO.C,C57*%
X233508767Y-163637501D02*
X233216233Y-163637501D01*
X233508767Y-164657501D02*
X233216233Y-164657501D01*
%TO.C,C15*%
X110661279Y-120772226D02*
X110369457Y-120792632D01*
X110732431Y-121789742D02*
X110440609Y-121810148D01*
%TO.C,R11*%
X281290500Y-178753225D02*
X281290500Y-178243777D01*
X282335500Y-178753225D02*
X282335500Y-178243777D01*
%TO.C,U2*%
X90487500Y-117502499D02*
X89687500Y-117502500D01*
X90487500Y-117502499D02*
X91287500Y-117502500D01*
X90487500Y-120622501D02*
X89687500Y-120622500D01*
X90487500Y-120622501D02*
X91287500Y-120622500D01*
X91787500Y-120572500D02*
X92027500Y-120902500D01*
X91547500Y-120902500D01*
X91787500Y-120572500D01*
G36*
X92027500Y-120902500D02*
G01*
X91547500Y-120902500D01*
X91787500Y-120572500D01*
X92027500Y-120902500D01*
G37*
%TO.C,HS5*%
X170375000Y-130197500D02*
X172525000Y-130197500D01*
X170925000Y-126977500D02*
X172525000Y-126977500D01*
X172525000Y-126977500D02*
X172525000Y-127887500D01*
X172525000Y-129287500D02*
X172525000Y-130197500D01*
X170425000Y-127027500D02*
X170185000Y-126697500D01*
X170665000Y-126697500D01*
X170425000Y-127027500D01*
G36*
X170425000Y-127027500D02*
G01*
X170185000Y-126697500D01*
X170665000Y-126697500D01*
X170425000Y-127027500D01*
G37*
%TO.C,J1*%
X183887500Y-171267501D02*
X185807500Y-171267501D01*
X185807500Y-162107499D02*
X183887500Y-162107499D01*
X187817500Y-162107500D02*
X189522500Y-162107500D01*
X189522500Y-162107500D02*
X189522500Y-171267500D01*
X189522500Y-171267500D02*
X187817500Y-171267500D01*
D10*
%TO.C,OSC2*%
X284480000Y-175704502D02*
X284734000Y-175323501D01*
X284734000Y-176085501D01*
X284480000Y-175704502D01*
G36*
X284734000Y-176085501D02*
G01*
X284480000Y-175704502D01*
X284734000Y-175323501D01*
X284734000Y-176085501D01*
G37*
%TO.C,HS3*%
D12*
X132275000Y-115910000D02*
X134425000Y-115910000D01*
X132825000Y-112690000D02*
X134425000Y-112690000D01*
X134425000Y-112690000D02*
X134425000Y-113600000D01*
X134425000Y-115000000D02*
X134425000Y-115910000D01*
X132325000Y-112740000D02*
X132085000Y-112410000D01*
X132565000Y-112410000D01*
X132325000Y-112740000D01*
G36*
X132325000Y-112740000D02*
G01*
X132085000Y-112410000D01*
X132565000Y-112410000D01*
X132325000Y-112740000D01*
G37*
%TO.C,C56*%
X329546886Y-172639530D02*
X329258797Y-172588732D01*
X329724007Y-171635026D02*
X329435918Y-171584228D01*
%TO.C,HS14*%
X132275000Y-154010000D02*
X134425000Y-154010000D01*
X132825000Y-150790000D02*
X134425000Y-150790000D01*
X134425000Y-150790000D02*
X134425000Y-151700000D01*
X134425000Y-153100000D02*
X134425000Y-154010000D01*
X132325000Y-150840000D02*
X132085000Y-150510000D01*
X132565000Y-150510000D01*
X132325000Y-150840000D01*
G36*
X132325000Y-150840000D02*
G01*
X132085000Y-150510000D01*
X132565000Y-150510000D01*
X132325000Y-150840000D01*
G37*
%TO.C,C52*%
X252558766Y-139825000D02*
X252266232Y-139825000D01*
X252558766Y-140845000D02*
X252266232Y-140845000D01*
%TO.C,C34*%
X274064000Y-164293768D02*
X274064000Y-164001234D01*
X275084000Y-164293768D02*
X275084000Y-164001234D01*
%TO.C,FB2*%
X89345875Y-115251776D02*
X89345875Y-115761224D01*
X90390875Y-115251776D02*
X90390875Y-115761224D01*
%TO.C,HS15*%
X151325000Y-163535000D02*
X153475000Y-163535000D01*
X151875000Y-160315000D02*
X153475000Y-160315000D01*
X153475000Y-160315000D02*
X153475000Y-161225000D01*
X153475000Y-162625000D02*
X153475000Y-163535000D01*
X151375000Y-160365000D02*
X151135000Y-160035000D01*
X151615000Y-160035000D01*
X151375000Y-160365000D01*
G36*
X151375000Y-160365000D02*
G01*
X151135000Y-160035000D01*
X151615000Y-160035000D01*
X151375000Y-160365000D01*
G37*
%TO.C,C28*%
X152546267Y-158875000D02*
X152253733Y-158875000D01*
X152546267Y-159895000D02*
X152253733Y-159895000D01*
%TO.C,C8*%
X138131767Y-167193500D02*
X137839233Y-167193500D01*
X138131767Y-168213500D02*
X137839233Y-168213500D01*
%TO.C,D2*%
X286140625Y-185281875D02*
X288600625Y-185281875D01*
X288600625Y-183811875D02*
X286140625Y-183811875D01*
X288600625Y-185281875D02*
X288600625Y-183811875D01*
%TO.C,C19*%
X75376581Y-171584228D02*
X75088492Y-171635026D01*
X75553702Y-172588732D02*
X75265613Y-172639530D01*
%TO.C,C3*%
X133894100Y-164420767D02*
X133894100Y-164128233D01*
X134914100Y-164420767D02*
X134914100Y-164128233D01*
%TO.C,HS11*%
X170375000Y-149247500D02*
X172525000Y-149247500D01*
X170925000Y-146027500D02*
X172525000Y-146027500D01*
X172525000Y-146027500D02*
X172525000Y-146937500D01*
X172525000Y-148337500D02*
X172525000Y-149247500D01*
X170425000Y-146077500D02*
X170185000Y-145747500D01*
X170665000Y-145747500D01*
X170425000Y-146077500D01*
G36*
X170425000Y-146077500D02*
G01*
X170185000Y-145747500D01*
X170665000Y-145747500D01*
X170425000Y-146077500D01*
G37*
%TO.C,C29*%
X171596267Y-163637500D02*
X171303733Y-163637500D01*
X171596267Y-164657500D02*
X171303733Y-164657500D01*
%TO.C,HS13*%
X112149302Y-163606066D02*
X114294064Y-163456090D01*
X112473346Y-160355544D02*
X114069448Y-160243934D01*
X114069448Y-160243934D02*
X114132927Y-161151717D01*
X114230586Y-162548307D02*
X114294064Y-163456090D01*
X111978052Y-160440300D02*
X111715617Y-160127846D01*
X112194447Y-160094363D01*
X111978052Y-160440300D01*
G36*
X111978052Y-160440300D02*
G01*
X111715617Y-160127846D01*
X112194447Y-160094363D01*
X111978052Y-160440300D01*
G37*
%TO.C,U1*%
X125858750Y-167530625D02*
X125858750Y-168480625D01*
X125858750Y-177750625D02*
X125858750Y-176800625D01*
X126808750Y-167530625D02*
X125858750Y-167530625D01*
X126808750Y-177750625D02*
X125858750Y-177750625D01*
X135128750Y-167530625D02*
X136078750Y-167530625D01*
X135128750Y-177750625D02*
X136078750Y-177750625D01*
X136078750Y-167530625D02*
X136078750Y-168480625D01*
X136078750Y-177750625D02*
X136078750Y-176800625D01*
X136693750Y-176800625D02*
X137033750Y-177270625D01*
X136353750Y-177270624D01*
X136693750Y-176800625D01*
G36*
X137033750Y-177270625D02*
G01*
X136353750Y-177270624D01*
X136693750Y-176800625D01*
X137033750Y-177270625D01*
G37*
%TO.C,C54*%
X293181264Y-140860148D02*
X292889442Y-140839742D01*
X293252416Y-139842632D02*
X292960594Y-139822226D01*
%TO.C,HS24*%
X313913503Y-144563281D02*
X316030839Y-144936624D01*
X315014294Y-141487706D02*
X316589987Y-141765543D01*
X316188860Y-144040449D02*
X316030839Y-144936624D01*
X316589987Y-141765543D02*
X316431967Y-142661718D01*
X314513208Y-141450124D02*
X314334158Y-141083460D01*
X314806867Y-141166812D01*
X314513208Y-141450124D01*
G36*
X314806867Y-141166812D02*
G01*
X314513208Y-141450124D01*
X314334158Y-141083460D01*
X314806867Y-141166812D01*
G37*
%TO.C,C23*%
X152546267Y-139825000D02*
X152253733Y-139825000D01*
X152546267Y-140845000D02*
X152253733Y-140845000D01*
%TD*%
%LPC*%
D13*
%TO.C,C38*%
X266573000Y-166610202D03*
X266573000Y-164885200D03*
%TD*%
D14*
%TO.C,C17*%
X153262501Y-121285000D03*
X151537499Y-121285000D03*
%TD*%
%TO.C,C53*%
X272325000Y-130810000D03*
X270599998Y-130810000D03*
%TD*%
D15*
%TO.C,C13*%
X123203800Y-179006500D03*
X124928800Y-179006500D03*
%TD*%
D14*
%TO.C,C24*%
X172312501Y-145097500D03*
X170587499Y-145097500D03*
%TD*%
D16*
%TO.C,C63*%
X236005750Y-185850625D03*
X234339526Y-186297089D03*
%TD*%
D14*
%TO.C,C59*%
X272325000Y-149860000D03*
X270599998Y-149860000D03*
%TD*%
D17*
%TO.C,C20*%
X93277082Y-159273817D03*
X91578286Y-159573361D03*
%TD*%
D15*
%TO.C,C9*%
X137123000Y-164655500D03*
X138848000Y-164655500D03*
%TD*%
D18*
%TO.C,HS29*%
X310926944Y-160781055D03*
X310597014Y-162652190D03*
X313125516Y-162133378D03*
%TD*%
D19*
%TO.C,C65*%
X87820500Y-121882999D03*
X87820500Y-123608001D03*
%TD*%
D14*
%TO.C,C47*%
X253275000Y-121285000D03*
X251549998Y-121285000D03*
%TD*%
D20*
%TO.C,FB4*%
X314071000Y-114721001D03*
X314071000Y-116546001D03*
%TD*%
D21*
%TO.C,J6*%
X122872500Y-186928125D03*
D22*
X120332500Y-186928125D03*
X117792501Y-186928125D03*
X115252500Y-186928125D03*
%TD*%
D13*
%TO.C,C1*%
X124625100Y-166609102D03*
X124625100Y-164884100D03*
%TD*%
D23*
%TO.C,MX20*%
X228282500Y-166687501D03*
X238442500Y-166687501D03*
%TD*%
D24*
%TO.C,REF\u002A\u002A*%
X189928500Y-143319500D03*
%TD*%
D14*
%TO.C,C58*%
X253275000Y-159385001D03*
X251549998Y-159385001D03*
%TD*%
D24*
%TO.C,REF\u002A\u002A*%
X189928500Y-165036500D03*
%TD*%
%TO.C,REF\u002A\u002A*%
X214884000Y-168084501D03*
%TD*%
D23*
%TO.C,MX19*%
X184443483Y-194189108D03*
X193242301Y-199269108D03*
%TD*%
D15*
%TO.C,C10*%
X95594000Y-115633500D03*
X97319000Y-115633500D03*
%TD*%
D25*
%TO.C,C61*%
X309926215Y-178333946D03*
X308227419Y-178034402D03*
%TD*%
D19*
%TO.C,C5*%
X135851900Y-178702799D03*
X135851900Y-180427801D03*
%TD*%
D23*
%TO.C,MX9*%
X128270000Y-152400000D03*
X138430000Y-152400000D03*
%TD*%
D14*
%TO.C,C30*%
X148500001Y-183197500D03*
X146774999Y-183197500D03*
%TD*%
D26*
%TO.C,C21*%
X112601969Y-140281024D03*
X110881169Y-140401354D03*
%TD*%
D23*
%TO.C,MX21*%
X228282498Y-147637500D03*
X238442498Y-147637500D03*
%TD*%
%TO.C,MX38*%
X211570198Y-199269107D03*
X220369016Y-194189107D03*
%TD*%
%TO.C,MX28*%
X266382499Y-152400000D03*
X276542499Y-152400000D03*
%TD*%
D15*
%TO.C,C43*%
X306731500Y-121602501D03*
X308456500Y-121602501D03*
%TD*%
D23*
%TO.C,MX17*%
X142557500Y-185737500D03*
X152717500Y-185737500D03*
%TD*%
D19*
%TO.C,C4*%
X137858500Y-177635999D03*
X137858500Y-179361001D03*
%TD*%
D27*
%TO.C,H9*%
X315515625Y-128587501D03*
%TD*%
D14*
%TO.C,C64*%
X258037501Y-183197501D03*
X256312499Y-183197501D03*
%TD*%
D23*
%TO.C,MX23*%
X247332499Y-161925001D03*
X257492499Y-161925001D03*
%TD*%
D28*
%TO.C,HS8*%
X110655404Y-142011022D03*
X110787942Y-143906394D03*
X113115827Y-142791292D03*
%TD*%
D19*
%TO.C,C44*%
X283337000Y-177636000D03*
X283337000Y-179361002D03*
%TD*%
D29*
%TO.C,HS34*%
X290434081Y-160847201D03*
X290301543Y-162742573D03*
X292761966Y-161962303D03*
%TD*%
D24*
%TO.C,REF\u002A\u002A*%
X214884000Y-143319501D03*
%TD*%
D23*
%TO.C,MX35*%
X303632928Y-179803453D03*
X313638574Y-181567719D03*
%TD*%
D14*
%TO.C,C27*%
X134212501Y-149860000D03*
X132487499Y-149860000D03*
%TD*%
D24*
%TO.C,REF\u002A\u002A*%
X214884000Y-145605501D03*
%TD*%
D19*
%TO.C,C36*%
X276377400Y-178702800D03*
X276377400Y-180427802D03*
%TD*%
D24*
%TO.C,REF\u002A\u002A*%
X189928500Y-164274500D03*
%TD*%
%TO.C,REF\u002A\u002A*%
X189928500Y-167322500D03*
%TD*%
D30*
%TO.C,HS33*%
X270262498Y-151450000D03*
X270262498Y-153350000D03*
X272662499Y-152400000D03*
%TD*%
D14*
%TO.C,C46*%
X234225001Y-126047500D03*
X232499999Y-126047500D03*
%TD*%
D23*
%TO.C,MX29*%
X289154984Y-123517042D03*
X299290234Y-124225768D03*
%TD*%
D31*
%TO.C,FB1*%
X138898000Y-166179500D03*
X137073000Y-166179500D03*
%TD*%
D21*
%TO.C,J5*%
X137080625Y-186928125D03*
D22*
X134540625Y-186928125D03*
%TD*%
D32*
%TO.C,U4*%
X277137499Y-176390624D03*
X277137499Y-175890625D03*
X277137499Y-175390625D03*
X277137499Y-174890625D03*
X277137499Y-174390625D03*
X277137499Y-173890624D03*
X277137499Y-173390625D03*
X277137499Y-172890625D03*
X277137499Y-172390625D03*
X277137499Y-171890625D03*
X277137499Y-171390626D03*
X277137499Y-170890625D03*
X277137499Y-170390625D03*
X277137499Y-169890625D03*
X277137499Y-169390625D03*
X277137499Y-168890626D03*
D33*
X275212498Y-166965625D03*
X274712499Y-166965625D03*
X274212499Y-166965625D03*
X273712499Y-166965625D03*
X273212499Y-166965625D03*
X272712498Y-166965625D03*
X272212499Y-166965625D03*
X271712499Y-166965625D03*
X271212499Y-166965625D03*
X270712499Y-166965625D03*
X270212500Y-166965625D03*
X269712499Y-166965625D03*
X269212499Y-166965625D03*
X268712499Y-166965625D03*
X268212499Y-166965625D03*
X267712500Y-166965625D03*
D32*
X265787499Y-168890626D03*
X265787499Y-169390625D03*
X265787499Y-169890625D03*
X265787499Y-170390625D03*
X265787499Y-170890625D03*
X265787499Y-171390626D03*
X265787499Y-171890625D03*
X265787499Y-172390625D03*
X265787499Y-172890625D03*
X265787499Y-173390625D03*
X265787499Y-173890624D03*
X265787499Y-174390625D03*
X265787499Y-174890625D03*
X265787499Y-175390625D03*
X265787499Y-175890625D03*
X265787499Y-176390624D03*
D33*
X267712500Y-178315625D03*
X268212499Y-178315625D03*
X268712499Y-178315625D03*
X269212499Y-178315625D03*
X269712499Y-178315625D03*
X270212500Y-178315625D03*
X270712499Y-178315625D03*
X271212499Y-178315625D03*
X271712499Y-178315625D03*
X272212499Y-178315625D03*
X272712498Y-178315625D03*
X273212499Y-178315625D03*
X273712499Y-178315625D03*
X274212499Y-178315625D03*
X274712499Y-178315625D03*
X275212498Y-178315625D03*
%TD*%
D23*
%TO.C,MX3*%
X166370000Y-128587500D03*
X176530000Y-128587500D03*
%TD*%
D34*
%TO.C,C31*%
X170445707Y-186297089D03*
X168779483Y-185850625D03*
%TD*%
D30*
%TO.C,HS20*%
X232162499Y-127637500D03*
X232162499Y-129537500D03*
X234562500Y-128587500D03*
%TD*%
D15*
%TO.C,C41*%
X277648499Y-164655501D03*
X279373501Y-164655501D03*
%TD*%
D23*
%TO.C,MX13*%
X84557930Y-144046545D03*
X94563576Y-142282279D03*
%TD*%
D28*
%TO.C,HS2*%
X109464779Y-122961022D03*
X109597317Y-124856394D03*
X111925202Y-123741292D03*
%TD*%
D23*
%TO.C,MX4*%
X147320000Y-123825000D03*
X157480000Y-123825000D03*
%TD*%
D13*
%TO.C,C11*%
X98996500Y-119925001D03*
X98996500Y-118199999D03*
%TD*%
D19*
%TO.C,C35*%
X277876000Y-177636000D03*
X277876000Y-179361002D03*
%TD*%
D35*
%TO.C,C60*%
X292602470Y-159404947D03*
X290881670Y-159284617D03*
%TD*%
D36*
%TO.C,R6*%
X131269000Y-180149500D03*
X133094000Y-180149500D03*
%TD*%
D37*
%TO.C,F2*%
X315595000Y-116508501D03*
X315595000Y-114758501D03*
%TD*%
D23*
%TO.C,MX30*%
X287826124Y-142520636D03*
X297961374Y-143229362D03*
%TD*%
D19*
%TO.C,C12*%
X141541500Y-177635999D03*
X141541500Y-179361001D03*
%TD*%
%TO.C,C66*%
X316992000Y-121883000D03*
X316992000Y-123608002D03*
%TD*%
D29*
%TO.C,HS28*%
X291762941Y-141843605D03*
X291630403Y-143738977D03*
X294090826Y-142958707D03*
%TD*%
D23*
%TO.C,MX33*%
X310248922Y-142282279D03*
X320254568Y-144046545D03*
%TD*%
D24*
%TO.C,REF\u002A\u002A*%
X214884000Y-166560501D03*
%TD*%
D27*
%TO.C,H2*%
X185737500Y-176212500D03*
%TD*%
D13*
%TO.C,C33*%
X276098000Y-165137002D03*
X276098000Y-163412000D03*
%TD*%
D30*
%TO.C,HS38*%
X255974999Y-184787501D03*
X255974999Y-186687501D03*
X258375000Y-185737501D03*
%TD*%
D36*
%TO.C,R1*%
X83494875Y-112966501D03*
X85319875Y-112966501D03*
%TD*%
D27*
%TO.C,H5*%
X83343750Y-186928125D03*
%TD*%
D36*
%TO.C,R9*%
X289688900Y-184543701D03*
X291513900Y-184543701D03*
%TD*%
D24*
%TO.C,REF\u002A\u002A*%
X214884000Y-144081501D03*
%TD*%
D38*
%TO.C,C32*%
X190859839Y-194960654D03*
X189365943Y-194098154D03*
%TD*%
D39*
%TO.C,R5*%
X140017500Y-179411000D03*
X140017500Y-177586000D03*
%TD*%
D24*
%TO.C,REF\u002A\u002A*%
X214884000Y-141033501D03*
%TD*%
D14*
%TO.C,C40*%
X279373501Y-167703501D03*
X277648499Y-167703501D03*
%TD*%
D30*
%TO.C,HS22*%
X270262497Y-113350000D03*
X270262497Y-115250000D03*
X272662498Y-114300000D03*
%TD*%
D27*
%TO.C,H4*%
X89296875Y-128587500D03*
%TD*%
D23*
%TO.C,MX6*%
X147320000Y-161925000D03*
X157480000Y-161925000D03*
%TD*%
%TO.C,MX32*%
X324047513Y-173731157D03*
X334053159Y-175495423D03*
%TD*%
D40*
%TO.C,HS19*%
X188278662Y-195306384D03*
X187328663Y-196951832D03*
X189882122Y-197329108D03*
%TD*%
D13*
%TO.C,C2*%
X126098300Y-166610201D03*
X126098300Y-164885199D03*
%TD*%
D24*
%TO.C,REF\u002A\u002A*%
X189928500Y-141795500D03*
%TD*%
D14*
%TO.C,C37*%
X265403501Y-177533301D03*
X263678499Y-177533301D03*
%TD*%
D30*
%TO.C,HS25*%
X232162497Y-146687500D03*
X232162497Y-148587500D03*
X234562498Y-147637500D03*
%TD*%
D21*
%TO.C,J13*%
X284331249Y-186928125D03*
D22*
X286871249Y-186928125D03*
X289411248Y-186928125D03*
X291951249Y-186928125D03*
%TD*%
D37*
%TO.C,F1*%
X88344375Y-116381500D03*
X88344375Y-114631500D03*
%TD*%
D13*
%TO.C,C45*%
X279400000Y-179361002D03*
X279400000Y-177636000D03*
%TD*%
D41*
%TO.C,C62*%
X215446556Y-194098153D03*
X213952660Y-194960653D03*
%TD*%
D23*
%TO.C,MX16*%
X70759340Y-175495423D03*
X80764986Y-173731157D03*
%TD*%
D42*
%TO.C,OSC1*%
X142310500Y-175602900D03*
X142310500Y-173062900D03*
X140010500Y-173062900D03*
X140010500Y-175602900D03*
%TD*%
D14*
%TO.C,C18*%
X172312501Y-126047500D03*
X170587499Y-126047500D03*
%TD*%
D17*
%TO.C,C14*%
X89969084Y-140513229D03*
X88270288Y-140812773D03*
%TD*%
D21*
%TO.C,J4*%
X129857501Y-186928125D03*
D22*
X127317501Y-186928125D03*
%TD*%
D14*
%TO.C,C16*%
X134212501Y-111760000D03*
X132487499Y-111760000D03*
%TD*%
D43*
%TO.C,J2*%
X84758125Y-116172500D03*
X84758125Y-121952500D03*
D44*
X85878125Y-115862500D03*
X85878125Y-116662500D03*
D45*
X85878125Y-117812500D03*
X85878125Y-118812500D03*
X85878125Y-119312500D03*
X85878125Y-120312500D03*
D44*
X85878125Y-121462500D03*
X85878125Y-122262500D03*
X85878125Y-122262500D03*
X85878125Y-121462500D03*
D45*
X85878125Y-120812500D03*
X85878125Y-119812500D03*
X85878125Y-118312500D03*
X85878125Y-117312500D03*
D44*
X85878125Y-116662500D03*
X85878125Y-115862500D03*
D46*
X85278125Y-114742500D03*
D47*
X81078125Y-114742500D03*
D46*
X85278125Y-123382500D03*
D47*
X81078125Y-123382500D03*
%TD*%
D25*
%TO.C,C50*%
X316542209Y-140812773D03*
X314843413Y-140513229D03*
%TD*%
D19*
%TO.C,C42*%
X310769000Y-118200000D03*
X310769000Y-119925002D03*
%TD*%
D21*
%TO.C,J11*%
X275036248Y-186928125D03*
D22*
X277576248Y-186928125D03*
%TD*%
D29*
%TO.C,HS23*%
X293091801Y-122840011D03*
X292959263Y-124735383D03*
X295419686Y-123955113D03*
%TD*%
D30*
%TO.C,HS21*%
X251212498Y-122875000D03*
X251212498Y-124775000D03*
X253612499Y-123825000D03*
%TD*%
D15*
%TO.C,C7*%
X139281999Y-170878500D03*
X141007001Y-170878500D03*
%TD*%
D30*
%TO.C,HS10*%
X151200000Y-141925000D03*
X151200000Y-143825000D03*
X153600000Y-142875000D03*
%TD*%
D26*
%TO.C,C26*%
X113792593Y-159331023D03*
X112071793Y-159451353D03*
%TD*%
D23*
%TO.C,MX36*%
X252094999Y-185737500D03*
X262254999Y-185737500D03*
%TD*%
D30*
%TO.C,HS17*%
X146437500Y-184787500D03*
X146437500Y-186687500D03*
X148837500Y-185737500D03*
%TD*%
%TO.C,HS31*%
X232162499Y-165737501D03*
X232162499Y-167637501D03*
X234562500Y-166687501D03*
%TD*%
D31*
%TO.C,R10*%
X308506500Y-123126501D03*
X306681500Y-123126501D03*
%TD*%
D43*
%TO.C,J9*%
X320054375Y-121952501D03*
X320054375Y-116172501D03*
D44*
X318934375Y-122262501D03*
X318934375Y-121462501D03*
D45*
X318934375Y-120312501D03*
X318934375Y-119312501D03*
X318934375Y-118812501D03*
X318934375Y-117812501D03*
D44*
X318934375Y-116662501D03*
X318934375Y-115862501D03*
X318934375Y-115862501D03*
X318934375Y-116662501D03*
D45*
X318934375Y-117312501D03*
X318934375Y-118312501D03*
X318934375Y-119812501D03*
X318934375Y-120812501D03*
D44*
X318934375Y-121462501D03*
X318934375Y-122262501D03*
D46*
X319534375Y-123382501D03*
D47*
X323734375Y-123382501D03*
D46*
X319534375Y-114742501D03*
D47*
X323734375Y-114742501D03*
%TD*%
D23*
%TO.C,MX7*%
X128270000Y-114300000D03*
X138430000Y-114300000D03*
%TD*%
D21*
%TO.C,J10*%
X270192498Y-194071874D03*
D22*
X272732498Y-194071874D03*
%TD*%
D14*
%TO.C,C6*%
X124928801Y-177533300D03*
X123203799Y-177533300D03*
%TD*%
D31*
%TO.C,FB3*%
X279423500Y-166179501D03*
X277598500Y-166179501D03*
%TD*%
D48*
%TO.C,U3*%
X97390625Y-117712500D03*
X96440625Y-117712500D03*
X95490625Y-117712500D03*
X95490625Y-120412500D03*
X97390625Y-120412500D03*
%TD*%
D24*
%TO.C,REF\u002A\u002A*%
X189928500Y-168084500D03*
%TD*%
D35*
%TO.C,C49*%
X295260191Y-121397757D03*
X293539391Y-121277427D03*
%TD*%
D14*
%TO.C,C51*%
X234224999Y-145097500D03*
X232499997Y-145097500D03*
%TD*%
D23*
%TO.C,MX15*%
X91173925Y-181567719D03*
X101179571Y-179803453D03*
%TD*%
D14*
%TO.C,C48*%
X272324999Y-111760000D03*
X270599997Y-111760000D03*
%TD*%
D49*
%TO.C,HS1*%
X88214018Y-142437222D03*
X88543949Y-144308357D03*
X90742522Y-142956034D03*
%TD*%
D23*
%TO.C,MX24*%
X247332499Y-142875000D03*
X257492499Y-142875000D03*
%TD*%
D21*
%TO.C,J3*%
X134461250Y-194071875D03*
D22*
X137001250Y-194071875D03*
%TD*%
D24*
%TO.C,REF\u002A\u002A*%
X214884000Y-141795501D03*
%TD*%
D20*
%TO.C,R4*%
X122142250Y-174188750D03*
X122142250Y-176013750D03*
%TD*%
D15*
%TO.C,C39*%
X279553499Y-170751501D03*
X281278501Y-170751501D03*
%TD*%
D23*
%TO.C,MX26*%
X266382498Y-114300000D03*
X276542498Y-114300000D03*
%TD*%
D31*
%TO.C,R3*%
X117593750Y-184546875D03*
X115768750Y-184546875D03*
%TD*%
D30*
%TO.C,HS26*%
X251212498Y-141925000D03*
X251212498Y-143825000D03*
X253612499Y-142875000D03*
%TD*%
D43*
%TO.C,J8*%
X221680000Y-163797501D03*
X221680000Y-169577501D03*
D44*
X222800000Y-163487501D03*
X222800000Y-164287501D03*
D45*
X222800000Y-165437501D03*
X222800000Y-166437501D03*
X222800000Y-166937501D03*
X222800000Y-167937501D03*
D44*
X222800000Y-169087501D03*
X222800000Y-169887501D03*
X222800000Y-169887501D03*
X222800000Y-169087501D03*
D45*
X222800000Y-168437501D03*
X222800000Y-167437501D03*
X222800000Y-165937501D03*
X222800000Y-164937501D03*
D44*
X222800000Y-164287501D03*
X222800000Y-163487501D03*
D46*
X222200000Y-162367501D03*
D47*
X218000000Y-162367501D03*
D46*
X222200000Y-171007501D03*
D47*
X218000000Y-171007501D03*
%TD*%
D49*
%TO.C,HS12*%
X94830013Y-179958396D03*
X95159944Y-181829531D03*
X97358517Y-180477208D03*
%TD*%
D50*
%TO.C,U5*%
X313187499Y-118112503D03*
X313187499Y-119062502D03*
X313187499Y-120012501D03*
X315462499Y-120012501D03*
X315462499Y-119062502D03*
X315462499Y-118112503D03*
%TD*%
D24*
%TO.C,REF\u002A\u002A*%
X189928500Y-168846500D03*
%TD*%
D23*
%TO.C,MX11*%
X106851125Y-143229363D03*
X116986375Y-142520637D03*
%TD*%
D51*
%TO.C,HS37*%
X234425050Y-187920261D03*
X234916806Y-189755519D03*
X236989149Y-188216725D03*
%TD*%
D31*
%TO.C,R8*%
X321333500Y-112966501D03*
X319508500Y-112966501D03*
%TD*%
D30*
%TO.C,HS32*%
X251212498Y-160975001D03*
X251212498Y-162875001D03*
X253612499Y-161925001D03*
%TD*%
D18*
%TO.C,HS35*%
X307618947Y-179541641D03*
X307289017Y-181412776D03*
X309817519Y-180893964D03*
%TD*%
D24*
%TO.C,REF\u002A\u002A*%
X189928500Y-142557500D03*
%TD*%
D27*
%TO.C,H8*%
X280987499Y-142875000D03*
%TD*%
D24*
%TO.C,REF\u002A\u002A*%
X189928500Y-166560500D03*
%TD*%
D52*
%TO.C,HS18*%
X168041963Y-187299097D03*
X167550207Y-189134355D03*
X170114306Y-188837891D03*
%TD*%
D36*
%TO.C,R2*%
X83494875Y-125158499D03*
X85319875Y-125158499D03*
%TD*%
D24*
%TO.C,REF\u002A\u002A*%
X189928500Y-144843500D03*
%TD*%
D30*
%TO.C,HS4*%
X151200000Y-122875000D03*
X151200000Y-124775000D03*
X153600000Y-123825000D03*
%TD*%
D53*
%TO.C,U6*%
X308896375Y-120012501D03*
X308896375Y-119062501D03*
X308896375Y-118112501D03*
X306196375Y-118112501D03*
X306196375Y-120012501D03*
%TD*%
D17*
%TO.C,C25*%
X96585080Y-178034403D03*
X94886284Y-178333947D03*
%TD*%
D24*
%TO.C,REF\u002A\u002A*%
X214884000Y-168846501D03*
%TD*%
D49*
%TO.C,HS6*%
X74415428Y-173886100D03*
X74745359Y-175757235D03*
X76943932Y-174404912D03*
%TD*%
D24*
%TO.C,REF\u002A\u002A*%
X189928500Y-145605500D03*
%TD*%
%TO.C,REF\u002A\u002A*%
X214884000Y-142557501D03*
%TD*%
D54*
%TO.C,D1*%
X119378125Y-184546875D03*
X121128125Y-184546875D03*
%TD*%
D23*
%TO.C,MX22*%
X228282500Y-128587500D03*
X238442500Y-128587500D03*
%TD*%
D24*
%TO.C,REF\u002A\u002A*%
X214884000Y-165036501D03*
%TD*%
D30*
%TO.C,HS27*%
X270262498Y-132400000D03*
X270262498Y-134300000D03*
X272662499Y-133350000D03*
%TD*%
D27*
%TO.C,H10*%
X321468749Y-186928125D03*
%TD*%
D23*
%TO.C,MX37*%
X230923135Y-189842109D03*
X240736941Y-187212507D03*
%TD*%
D36*
%TO.C,R12*%
X271858100Y-180124101D03*
X273683100Y-180124101D03*
%TD*%
D18*
%TO.C,HS30*%
X328033532Y-173469345D03*
X327703602Y-175340480D03*
X330232104Y-174821668D03*
%TD*%
D27*
%TO.C,H1*%
X185737500Y-113426875D03*
%TD*%
D14*
%TO.C,C22*%
X134212501Y-130805000D03*
X132487499Y-130805000D03*
%TD*%
D24*
%TO.C,REF\u002A\u002A*%
X214884000Y-164274501D03*
%TD*%
D23*
%TO.C,MX1*%
X166370000Y-166687500D03*
X176530000Y-166687500D03*
%TD*%
%TO.C,MX2*%
X166370000Y-147637500D03*
X176530000Y-147637500D03*
%TD*%
%TO.C,MX27*%
X266382499Y-133350000D03*
X276542499Y-133350000D03*
%TD*%
D31*
%TO.C,R7*%
X321333500Y-125158501D03*
X319508500Y-125158501D03*
%TD*%
D30*
%TO.C,HS16*%
X170250000Y-165737500D03*
X170250000Y-167637500D03*
X172650000Y-166687500D03*
%TD*%
D25*
%TO.C,C55*%
X313234212Y-159573361D03*
X311535416Y-159273817D03*
%TD*%
D30*
%TO.C,HS9*%
X132150000Y-132400000D03*
X132150000Y-134300000D03*
X134550000Y-133350000D03*
%TD*%
D23*
%TO.C,MX34*%
X306940925Y-161042867D03*
X316946571Y-162807133D03*
%TD*%
D24*
%TO.C,REF\u002A\u002A*%
X189928500Y-165798500D03*
%TD*%
D55*
%TO.C,HS36*%
X214455378Y-196506383D03*
X215405377Y-198151831D03*
X217008837Y-196129108D03*
%TD*%
D23*
%TO.C,MX5*%
X147320000Y-142875000D03*
X157480000Y-142875000D03*
%TD*%
D27*
%TO.C,H7*%
X219075000Y-176212501D03*
%TD*%
D49*
%TO.C,HS7*%
X91522015Y-161197810D03*
X91851946Y-163068945D03*
X94050519Y-161716622D03*
%TD*%
D23*
%TO.C,MX14*%
X87865927Y-162807133D03*
X97871573Y-161042867D03*
%TD*%
D24*
%TO.C,REF\u002A\u002A*%
X189928500Y-144081500D03*
%TD*%
%TO.C,REF\u002A\u002A*%
X214884000Y-144843501D03*
%TD*%
D23*
%TO.C,MX10*%
X105522265Y-124225768D03*
X115657515Y-123517042D03*
%TD*%
D14*
%TO.C,C57*%
X234225001Y-164147501D03*
X232499999Y-164147501D03*
%TD*%
D24*
%TO.C,REF\u002A\u002A*%
X214884000Y-167322501D03*
%TD*%
D26*
%TO.C,C15*%
X111411344Y-121231022D03*
X109690544Y-121351352D03*
%TD*%
D39*
%TO.C,R11*%
X281813000Y-179411001D03*
X281813000Y-177586001D03*
%TD*%
D56*
%TO.C,U2*%
X91625000Y-120012499D03*
X91625000Y-119062500D03*
X91625000Y-118112501D03*
X89350000Y-118112501D03*
X89350000Y-119062500D03*
X89350000Y-120012499D03*
%TD*%
D30*
%TO.C,HS5*%
X170250000Y-127637500D03*
X170250000Y-129537500D03*
X172650000Y-128587500D03*
%TD*%
D43*
%TO.C,J1*%
X183132500Y-169577500D03*
X183132500Y-163797500D03*
D44*
X182012500Y-169887500D03*
X182012500Y-169087500D03*
D45*
X182012500Y-167937500D03*
X182012500Y-166937500D03*
X182012500Y-166437500D03*
X182012500Y-165437500D03*
D44*
X182012500Y-164287500D03*
X182012500Y-163487500D03*
X182012500Y-163487500D03*
X182012500Y-164287500D03*
D45*
X182012500Y-164937500D03*
X182012500Y-165937500D03*
X182012500Y-167437500D03*
X182012500Y-168437500D03*
D44*
X182012500Y-169087500D03*
X182012500Y-169887500D03*
D46*
X182612500Y-171007500D03*
D47*
X186812500Y-171007500D03*
D46*
X182612500Y-162367500D03*
D47*
X186812500Y-162367500D03*
%TD*%
D42*
%TO.C,OSC2*%
X283598000Y-175704501D03*
X283598000Y-173164501D03*
X281298000Y-173164501D03*
X281298000Y-175704501D03*
%TD*%
D30*
%TO.C,HS3*%
X132150000Y-113350000D03*
X132150000Y-115250000D03*
X134550000Y-114300000D03*
%TD*%
D25*
%TO.C,C56*%
X330340800Y-172261651D03*
X328642004Y-171962107D03*
%TD*%
D24*
%TO.C,REF\u002A\u002A*%
X214884000Y-165798501D03*
%TD*%
D27*
%TO.C,H6*%
X219075000Y-113347501D03*
%TD*%
D30*
%TO.C,HS14*%
X132150000Y-151450000D03*
X132150000Y-153350000D03*
X134550000Y-152400000D03*
%TD*%
D14*
%TO.C,C52*%
X253275000Y-140335000D03*
X251549998Y-140335000D03*
%TD*%
D13*
%TO.C,C34*%
X274574000Y-165010002D03*
X274574000Y-163285000D03*
%TD*%
D20*
%TO.C,FB2*%
X89868375Y-114594000D03*
X89868375Y-116419000D03*
%TD*%
D30*
%TO.C,HS15*%
X151200000Y-160975000D03*
X151200000Y-162875000D03*
X153600000Y-161925000D03*
%TD*%
D14*
%TO.C,C28*%
X153262501Y-159385000D03*
X151537499Y-159385000D03*
%TD*%
D22*
%TO.C,J12*%
X270432498Y-186928125D03*
D21*
X267892498Y-186928125D03*
%TD*%
D14*
%TO.C,C8*%
X138848001Y-167703500D03*
X137122999Y-167703500D03*
%TD*%
D57*
%TO.C,D2*%
X287815624Y-184546875D03*
X286065626Y-184546875D03*
%TD*%
D23*
%TO.C,MX25*%
X247332499Y-123825000D03*
X257492499Y-123825000D03*
%TD*%
D17*
%TO.C,C19*%
X76170495Y-171962107D03*
X74471699Y-172261651D03*
%TD*%
D13*
%TO.C,C3*%
X134404100Y-165137001D03*
X134404100Y-163411999D03*
%TD*%
D30*
%TO.C,HS11*%
X170250000Y-146687500D03*
X170250000Y-148587500D03*
X172650000Y-147637500D03*
%TD*%
D24*
%TO.C,REF\u002A\u002A*%
X189928500Y-141033500D03*
%TD*%
D14*
%TO.C,C29*%
X172312501Y-164147500D03*
X170587499Y-164147500D03*
%TD*%
D23*
%TO.C,MX31*%
X286497264Y-161524232D03*
X296632514Y-162232958D03*
%TD*%
%TO.C,MX12*%
X108179985Y-162232958D03*
X118315235Y-161524232D03*
%TD*%
D28*
%TO.C,HS13*%
X111846029Y-161061022D03*
X111978567Y-162956394D03*
X114306452Y-161841292D03*
%TD*%
D23*
%TO.C,MX8*%
X128270000Y-133350000D03*
X138430000Y-133350000D03*
%TD*%
D32*
%TO.C,U1*%
X136643750Y-176390624D03*
X136643750Y-175890625D03*
X136643750Y-175390625D03*
X136643750Y-174890625D03*
X136643750Y-174390625D03*
X136643750Y-173890624D03*
X136643750Y-173390625D03*
X136643750Y-172890625D03*
X136643750Y-172390625D03*
X136643750Y-171890625D03*
X136643750Y-171390626D03*
X136643750Y-170890625D03*
X136643750Y-170390625D03*
X136643750Y-169890625D03*
X136643750Y-169390625D03*
X136643750Y-168890626D03*
D33*
X134718749Y-166965625D03*
X134218750Y-166965625D03*
X133718750Y-166965625D03*
X133218750Y-166965625D03*
X132718750Y-166965625D03*
X132218749Y-166965625D03*
X131718750Y-166965625D03*
X131218750Y-166965625D03*
X130718750Y-166965625D03*
X130218750Y-166965625D03*
X129718751Y-166965625D03*
X129218750Y-166965625D03*
X128718750Y-166965625D03*
X128218750Y-166965625D03*
X127718750Y-166965625D03*
X127218751Y-166965625D03*
D32*
X125293750Y-168890626D03*
X125293750Y-169390625D03*
X125293750Y-169890625D03*
X125293750Y-170390625D03*
X125293750Y-170890625D03*
X125293750Y-171390626D03*
X125293750Y-171890625D03*
X125293750Y-172390625D03*
X125293750Y-172890625D03*
X125293750Y-173390625D03*
X125293750Y-173890624D03*
X125293750Y-174390625D03*
X125293750Y-174890625D03*
X125293750Y-175390625D03*
X125293750Y-175890625D03*
X125293750Y-176390624D03*
D33*
X127218751Y-178315625D03*
X127718750Y-178315625D03*
X128218750Y-178315625D03*
X128718750Y-178315625D03*
X129218750Y-178315625D03*
X129718751Y-178315625D03*
X130218750Y-178315625D03*
X130718750Y-178315625D03*
X131218750Y-178315625D03*
X131718750Y-178315625D03*
X132218749Y-178315625D03*
X132718750Y-178315625D03*
X133218750Y-178315625D03*
X133718750Y-178315625D03*
X134218750Y-178315625D03*
X134718749Y-178315625D03*
%TD*%
D35*
%TO.C,C54*%
X293931329Y-140401352D03*
X292210529Y-140281022D03*
%TD*%
D18*
%TO.C,HS24*%
X314234941Y-142020467D03*
X313905011Y-143891602D03*
X316433513Y-143372790D03*
%TD*%
D23*
%TO.C,MX18*%
X164048292Y-187212507D03*
X173862098Y-189842109D03*
%TD*%
D14*
%TO.C,C23*%
X153262501Y-140335000D03*
X151537499Y-140335000D03*
%TD*%
D27*
%TO.C,H3*%
X123825000Y-142875000D03*
%TD*%
%LPD*%
M02*
