M48
; DRILL file KiCad 10.0.3-10.0.3~ubuntu26.04.1 date 2026-07-14T13:52:06
; FORMAT={-:-/ absolute / metric / decimal}
; #@! TF.CreationDate,2026-07-14T13:52:06+03:00
; #@! TF.GenerationSoftware,Kicad,Pcbnew,10.0.3-10.0.3~ubuntu26.04.1
; #@! TF.FileFunction,NonPlated,1,2,NPTH
FMAT,2
METRIC
; #@! TA.AperFunction,NonPlated,NPTH,ComponentDrill
T1C0.500
; #@! TA.AperFunction,NonPlated,NPTH,ComponentDrill
T2C0.650
%
G90
G05
T1
X189.928Y-141.034
X189.928Y-141.796
X189.928Y-142.558
X189.928Y-143.32
X189.928Y-144.082
X189.928Y-144.844
X189.928Y-145.606
X189.928Y-164.274
X189.928Y-165.036
X189.928Y-165.798
X189.928Y-166.56
X189.928Y-167.322
X189.928Y-168.084
X189.928Y-168.846
X214.884Y-141.034
X214.884Y-141.796
X214.884Y-142.558
X214.884Y-143.32
X214.884Y-144.082
X214.884Y-144.844
X214.884Y-145.606
X214.884Y-164.275
X214.884Y-165.037
X214.884Y-165.799
X214.884Y-166.561
X214.884Y-167.323
X214.884Y-168.085
X214.884Y-168.847
T2
X84.758Y-116.172
X84.758Y-121.953
X183.132Y-163.797
X183.132Y-169.577
X221.68Y-163.798
X221.68Y-169.578
X320.054Y-116.173
X320.054Y-121.953
M30
