%TF.GenerationSoftware,KiCad,Pcbnew,10.0.3-10.0.3~ubuntu26.04.1*%
%TF.CreationDate,2026-07-14T13:52:03+03:00*%
%TF.ProjectId,hector,68656374-6f72-42e6-9b69-6361645f7063,01*%
%TF.SameCoordinates,Original*%
%TF.FileFunction,Paste,Top*%
%TF.FilePolarity,Positive*%
%FSLAX46Y46*%
G04 Gerber Fmt 4.6, Leading zero omitted, Abs format (unit mm)*
G04 Created by KiCad (PCBNEW 10.0.3-10.0.3~ubuntu26.04.1) date 2026-07-14 13:52:03*
%MOMM*%
%LPD*%
G01*
G04 APERTURE LIST*
G04 Aperture macros list*
%AMRoundRect*
0 Rectangle with rounded corners*
0 $1 Rounding radius*
0 $2 $3 $4 $5 $6 $7 $8 $9 X,Y pos of 4 corners*
0 Add a 4 corners polygon primitive as box body*
4,1,4,$2,$3,$4,$5,$6,$7,$8,$9,$2,$3,0*
0 Add four circle primitives for the rounded corners*
1,1,$1+$1,$2,$3*
1,1,$1+$1,$4,$5*
1,1,$1+$1,$6,$7*
1,1,$1+$1,$8,$9*
0 Add four rect primitives between the rounded corners*
20,1,$1+$1,$2,$3,$4,$5,0*
20,1,$1+$1,$4,$5,$6,$7,0*
20,1,$1+$1,$6,$7,$8,$9,0*
20,1,$1+$1,$8,$9,$2,$3,0*%
G04 Aperture macros list end*
%ADD10RoundRect,0.237500X0.237500X-0.300000X0.237500X0.300000X-0.237500X0.300000X-0.237500X-0.300000X0*%
%ADD11RoundRect,0.237500X0.300000X0.237500X-0.300000X0.237500X-0.300000X-0.237500X0.300000X-0.237500X0*%
%ADD12RoundRect,0.237500X-0.300000X-0.237500X0.300000X-0.237500X0.300000X0.237500X-0.300000X0.237500X0*%
%ADD13RoundRect,0.237500X0.228308X0.307053X-0.351247X0.151762X-0.228308X-0.307053X0.351247X-0.151762X0*%
%ADD14RoundRect,0.237500X0.254201X0.285986X-0.336684X0.181797X-0.254201X-0.285986X0.336684X-0.181797X0*%
%ADD15RoundRect,0.175000X-0.350451X-0.115906X0.289674X-0.228777X0.350451X0.115906X-0.289674X0.228777X0*%
%ADD16RoundRect,0.237500X-0.237500X0.300000X-0.237500X-0.300000X0.237500X-0.300000X0.237500X0.300000X0*%
%ADD17RoundRect,0.237500X-0.237500X0.250000X-0.237500X-0.250000X0.237500X-0.250000X0.237500X0.250000X0*%
%ADD18RoundRect,0.237500X0.336684X0.181797X-0.254201X0.285986X-0.336684X-0.181797X0.254201X-0.285986X0*%
%ADD19RoundRect,0.237500X0.282702X0.257848X-0.315836X0.215995X-0.282702X-0.257848X0.315836X-0.215995X0*%
%ADD20RoundRect,0.175000X-0.312001X-0.197245X0.336416X-0.151903X0.312001X0.197245X-0.336416X0.151903X0*%
%ADD21RoundRect,0.175000X-0.336416X-0.151903X0.312001X-0.197245X0.336416X0.151903X-0.312001X0.197245X0*%
%ADD22RoundRect,0.175000X-0.325000X-0.175000X0.325000X-0.175000X0.325000X0.175000X-0.325000X0.175000X0*%
%ADD23RoundRect,0.237500X0.250000X0.237500X-0.250000X0.237500X-0.250000X-0.237500X0.250000X-0.237500X0*%
%ADD24RoundRect,0.075000X0.700000X0.075000X-0.700000X0.075000X-0.700000X-0.075000X0.700000X-0.075000X0*%
%ADD25RoundRect,0.075000X0.075000X0.700000X-0.075000X0.700000X-0.075000X-0.700000X0.075000X-0.700000X0*%
%ADD26RoundRect,0.237500X0.351247X0.151762X-0.228308X0.307053X-0.351247X-0.151762X0.228308X-0.307053X0*%
%ADD27RoundRect,0.237500X0.315836X0.215995X-0.282702X0.257848X-0.315836X-0.215995X0.282702X-0.257848X0*%
%ADD28RoundRect,0.237500X-0.250000X-0.237500X0.250000X-0.237500X0.250000X0.237500X-0.250000X0.237500X0*%
%ADD29RoundRect,0.237500X0.237500X-0.287500X0.237500X0.287500X-0.237500X0.287500X-0.237500X-0.287500X0*%
%ADD30RoundRect,0.237500X0.378558X0.055681X-0.141058X0.355681X-0.378558X-0.055681X0.141058X-0.355681X0*%
%ADD31RoundRect,0.237500X0.237500X-0.250000X0.237500X0.250000X-0.237500X0.250000X-0.237500X-0.250000X0*%
%ADD32RoundRect,0.175000X-0.368958X0.010946X0.193958X-0.314054X0.368958X-0.010946X-0.193958X0.314054X0*%
%ADD33RoundRect,0.237500X0.141058X0.355681X-0.378558X0.055681X-0.141058X-0.355681X0.378558X-0.055681X0*%
%ADD34RoundRect,0.325000X0.325000X-0.575000X0.325000X0.575000X-0.325000X0.575000X-0.325000X-0.575000X0*%
%ADD35R,1.240000X0.600000*%
%ADD36R,1.240000X0.300000*%
%ADD37RoundRect,0.162500X-0.162500X0.617500X-0.162500X-0.617500X0.162500X-0.617500X0.162500X0.617500X0*%
%ADD38RoundRect,0.175000X-0.289674X-0.228777X0.350451X-0.115906X0.289674X0.228777X-0.350451X0.115906X0*%
%ADD39RoundRect,0.150000X-0.512500X-0.150000X0.512500X-0.150000X0.512500X0.150000X-0.512500X0.150000X0*%
%ADD40RoundRect,0.175000X-0.268633X-0.253153X0.359219X-0.084921X0.268633X0.253153X-0.359219X0.084921X0*%
%ADD41RoundRect,0.175000X-0.359219X-0.084921X0.268633X-0.253153X0.359219X0.084921X-0.268633X0.253153X0*%
%ADD42RoundRect,0.162500X0.617500X0.162500X-0.617500X0.162500X-0.617500X-0.162500X0.617500X-0.162500X0*%
%ADD43RoundRect,0.237500X-0.287500X-0.237500X0.287500X-0.237500X0.287500X0.237500X-0.287500X0.237500X0*%
%ADD44RoundRect,0.175000X-0.193958X-0.314054X0.368958X0.010946X0.193958X0.314054X-0.368958X-0.010946X0*%
%ADD45RoundRect,0.150000X0.512500X0.150000X-0.512500X0.150000X-0.512500X-0.150000X0.512500X-0.150000X0*%
%ADD46RoundRect,0.237500X0.287500X0.237500X-0.287500X0.237500X-0.287500X-0.237500X0.287500X-0.237500X0*%
G04 APERTURE END LIST*
D10*
%TO.C,C38*%
X266573000Y-166610202D03*
X266573000Y-164885200D03*
%TD*%
D11*
%TO.C,C17*%
X153262501Y-121285000D03*
X151537499Y-121285000D03*
%TD*%
%TO.C,C53*%
X272325000Y-130810000D03*
X270599998Y-130810000D03*
%TD*%
D12*
%TO.C,C13*%
X123203800Y-179006500D03*
X124928800Y-179006500D03*
%TD*%
D11*
%TO.C,C24*%
X172312501Y-145097500D03*
X170587499Y-145097500D03*
%TD*%
D13*
%TO.C,C63*%
X236005750Y-185850625D03*
X234339526Y-186297089D03*
%TD*%
D11*
%TO.C,C59*%
X272325000Y-149860000D03*
X270599998Y-149860000D03*
%TD*%
D14*
%TO.C,C20*%
X93277082Y-159273817D03*
X91578286Y-159573361D03*
%TD*%
D12*
%TO.C,C9*%
X137123000Y-164655500D03*
X138848000Y-164655500D03*
%TD*%
D15*
%TO.C,HS29*%
X310926944Y-160781055D03*
X310597014Y-162652190D03*
X313125516Y-162133378D03*
%TD*%
D16*
%TO.C,C65*%
X87820500Y-121882999D03*
X87820500Y-123608001D03*
%TD*%
D11*
%TO.C,C47*%
X253275000Y-121285000D03*
X251549998Y-121285000D03*
%TD*%
D17*
%TO.C,FB4*%
X314071000Y-114721001D03*
X314071000Y-116546001D03*
%TD*%
D10*
%TO.C,C1*%
X124625100Y-166609102D03*
X124625100Y-164884100D03*
%TD*%
D11*
%TO.C,C58*%
X253275000Y-159385001D03*
X251549998Y-159385001D03*
%TD*%
D12*
%TO.C,C10*%
X95594000Y-115633500D03*
X97319000Y-115633500D03*
%TD*%
D18*
%TO.C,C61*%
X309926215Y-178333946D03*
X308227419Y-178034402D03*
%TD*%
D16*
%TO.C,C5*%
X135851900Y-178702799D03*
X135851900Y-180427801D03*
%TD*%
D11*
%TO.C,C30*%
X148500001Y-183197500D03*
X146774999Y-183197500D03*
%TD*%
D19*
%TO.C,C21*%
X112601969Y-140281024D03*
X110881169Y-140401354D03*
%TD*%
D12*
%TO.C,C43*%
X306731500Y-121602501D03*
X308456500Y-121602501D03*
%TD*%
D16*
%TO.C,C4*%
X137858500Y-177635999D03*
X137858500Y-179361001D03*
%TD*%
D11*
%TO.C,C64*%
X258037501Y-183197501D03*
X256312499Y-183197501D03*
%TD*%
D20*
%TO.C,HS8*%
X110655404Y-142011022D03*
X110787942Y-143906394D03*
X113115827Y-142791292D03*
%TD*%
D16*
%TO.C,C44*%
X283337000Y-177636000D03*
X283337000Y-179361002D03*
%TD*%
D21*
%TO.C,HS34*%
X290434081Y-160847201D03*
X290301543Y-162742573D03*
X292761966Y-161962303D03*
%TD*%
D11*
%TO.C,C27*%
X134212501Y-149860000D03*
X132487499Y-149860000D03*
%TD*%
D16*
%TO.C,C36*%
X276377400Y-178702800D03*
X276377400Y-180427802D03*
%TD*%
D22*
%TO.C,HS33*%
X270262498Y-151450000D03*
X270262498Y-153350000D03*
X272662499Y-152400000D03*
%TD*%
D11*
%TO.C,C46*%
X234225001Y-126047500D03*
X232499999Y-126047500D03*
%TD*%
D23*
%TO.C,FB1*%
X138898000Y-166179500D03*
X137073000Y-166179500D03*
%TD*%
D24*
%TO.C,U4*%
X277137499Y-176390624D03*
X277137499Y-175890625D03*
X277137499Y-175390625D03*
X277137499Y-174890625D03*
X277137499Y-174390625D03*
X277137499Y-173890624D03*
X277137499Y-173390625D03*
X277137499Y-172890625D03*
X277137499Y-172390625D03*
X277137499Y-171890625D03*
X277137499Y-171390626D03*
X277137499Y-170890625D03*
X277137499Y-170390625D03*
X277137499Y-169890625D03*
X277137499Y-169390625D03*
X277137499Y-168890626D03*
D25*
X275212498Y-166965625D03*
X274712499Y-166965625D03*
X274212499Y-166965625D03*
X273712499Y-166965625D03*
X273212499Y-166965625D03*
X272712498Y-166965625D03*
X272212499Y-166965625D03*
X271712499Y-166965625D03*
X271212499Y-166965625D03*
X270712499Y-166965625D03*
X270212500Y-166965625D03*
X269712499Y-166965625D03*
X269212499Y-166965625D03*
X268712499Y-166965625D03*
X268212499Y-166965625D03*
X267712500Y-166965625D03*
D24*
X265787499Y-168890626D03*
X265787499Y-169390625D03*
X265787499Y-169890625D03*
X265787499Y-170390625D03*
X265787499Y-170890625D03*
X265787499Y-171390626D03*
X265787499Y-171890625D03*
X265787499Y-172390625D03*
X265787499Y-172890625D03*
X265787499Y-173390625D03*
X265787499Y-173890624D03*
X265787499Y-174390625D03*
X265787499Y-174890625D03*
X265787499Y-175390625D03*
X265787499Y-175890625D03*
X265787499Y-176390624D03*
D25*
X267712500Y-178315625D03*
X268212499Y-178315625D03*
X268712499Y-178315625D03*
X269212499Y-178315625D03*
X269712499Y-178315625D03*
X270212500Y-178315625D03*
X270712499Y-178315625D03*
X271212499Y-178315625D03*
X271712499Y-178315625D03*
X272212499Y-178315625D03*
X272712498Y-178315625D03*
X273212499Y-178315625D03*
X273712499Y-178315625D03*
X274212499Y-178315625D03*
X274712499Y-178315625D03*
X275212498Y-178315625D03*
%TD*%
D26*
%TO.C,C31*%
X170445707Y-186297089D03*
X168779483Y-185850625D03*
%TD*%
D22*
%TO.C,HS20*%
X232162499Y-127637500D03*
X232162499Y-129537500D03*
X234562500Y-128587500D03*
%TD*%
D12*
%TO.C,C41*%
X277648499Y-164655501D03*
X279373501Y-164655501D03*
%TD*%
D20*
%TO.C,HS2*%
X109464779Y-122961022D03*
X109597317Y-124856394D03*
X111925202Y-123741292D03*
%TD*%
D10*
%TO.C,C11*%
X98996500Y-119925001D03*
X98996500Y-118199999D03*
%TD*%
D16*
%TO.C,C35*%
X277876000Y-177636000D03*
X277876000Y-179361002D03*
%TD*%
D27*
%TO.C,C60*%
X292602470Y-159404947D03*
X290881670Y-159284617D03*
%TD*%
D28*
%TO.C,R6*%
X131269000Y-180149500D03*
X133094000Y-180149500D03*
%TD*%
D29*
%TO.C,F2*%
X315595000Y-116508501D03*
X315595000Y-114758501D03*
%TD*%
D16*
%TO.C,C12*%
X141541500Y-177635999D03*
X141541500Y-179361001D03*
%TD*%
%TO.C,C66*%
X316992000Y-121883000D03*
X316992000Y-123608002D03*
%TD*%
D21*
%TO.C,HS28*%
X291762941Y-141843605D03*
X291630403Y-143738977D03*
X294090826Y-142958707D03*
%TD*%
D10*
%TO.C,C33*%
X276098000Y-165137002D03*
X276098000Y-163412000D03*
%TD*%
D22*
%TO.C,HS38*%
X255974999Y-184787501D03*
X255974999Y-186687501D03*
X258375000Y-185737501D03*
%TD*%
D28*
%TO.C,R1*%
X83494875Y-112966501D03*
X85319875Y-112966501D03*
%TD*%
%TO.C,R9*%
X289688900Y-184543701D03*
X291513900Y-184543701D03*
%TD*%
D30*
%TO.C,C32*%
X190859839Y-194960654D03*
X189365943Y-194098154D03*
%TD*%
D31*
%TO.C,R5*%
X140017500Y-179411000D03*
X140017500Y-177586000D03*
%TD*%
D11*
%TO.C,C40*%
X279373501Y-167703501D03*
X277648499Y-167703501D03*
%TD*%
D22*
%TO.C,HS22*%
X270262497Y-113350000D03*
X270262497Y-115250000D03*
X272662498Y-114300000D03*
%TD*%
D32*
%TO.C,HS19*%
X188278662Y-195306384D03*
X187328663Y-196951832D03*
X189882122Y-197329108D03*
%TD*%
D10*
%TO.C,C2*%
X126098300Y-166610201D03*
X126098300Y-164885199D03*
%TD*%
D11*
%TO.C,C37*%
X265403501Y-177533301D03*
X263678499Y-177533301D03*
%TD*%
D22*
%TO.C,HS25*%
X232162497Y-146687500D03*
X232162497Y-148587500D03*
X234562498Y-147637500D03*
%TD*%
D29*
%TO.C,F1*%
X88344375Y-116381500D03*
X88344375Y-114631500D03*
%TD*%
D10*
%TO.C,C45*%
X279400000Y-179361002D03*
X279400000Y-177636000D03*
%TD*%
D33*
%TO.C,C62*%
X215446556Y-194098153D03*
X213952660Y-194960653D03*
%TD*%
D34*
%TO.C,OSC1*%
X142310500Y-175602900D03*
X142310500Y-173062900D03*
X140010500Y-173062900D03*
X140010500Y-175602900D03*
%TD*%
D11*
%TO.C,C18*%
X172312501Y-126047500D03*
X170587499Y-126047500D03*
%TD*%
D14*
%TO.C,C14*%
X89969084Y-140513229D03*
X88270288Y-140812773D03*
%TD*%
D11*
%TO.C,C16*%
X134212501Y-111760000D03*
X132487499Y-111760000D03*
%TD*%
D35*
%TO.C,J2*%
X85878125Y-115862500D03*
X85878125Y-116662500D03*
D36*
X85878125Y-117812500D03*
X85878125Y-118812500D03*
X85878125Y-119312500D03*
X85878125Y-120312500D03*
D35*
X85878125Y-121462500D03*
X85878125Y-122262500D03*
X85878125Y-122262500D03*
X85878125Y-121462500D03*
D36*
X85878125Y-120812500D03*
X85878125Y-119812500D03*
X85878125Y-118312500D03*
X85878125Y-117312500D03*
D35*
X85878125Y-116662500D03*
X85878125Y-115862500D03*
%TD*%
D18*
%TO.C,C50*%
X316542209Y-140812773D03*
X314843413Y-140513229D03*
%TD*%
D16*
%TO.C,C42*%
X310769000Y-118200000D03*
X310769000Y-119925002D03*
%TD*%
D21*
%TO.C,HS23*%
X293091801Y-122840011D03*
X292959263Y-124735383D03*
X295419686Y-123955113D03*
%TD*%
D22*
%TO.C,HS21*%
X251212498Y-122875000D03*
X251212498Y-124775000D03*
X253612499Y-123825000D03*
%TD*%
D12*
%TO.C,C7*%
X139281999Y-170878500D03*
X141007001Y-170878500D03*
%TD*%
D22*
%TO.C,HS10*%
X151200000Y-141925000D03*
X151200000Y-143825000D03*
X153600000Y-142875000D03*
%TD*%
D19*
%TO.C,C26*%
X113792593Y-159331023D03*
X112071793Y-159451353D03*
%TD*%
D22*
%TO.C,HS17*%
X146437500Y-184787500D03*
X146437500Y-186687500D03*
X148837500Y-185737500D03*
%TD*%
%TO.C,HS31*%
X232162499Y-165737501D03*
X232162499Y-167637501D03*
X234562500Y-166687501D03*
%TD*%
D23*
%TO.C,R10*%
X308506500Y-123126501D03*
X306681500Y-123126501D03*
%TD*%
D35*
%TO.C,J9*%
X318934375Y-122262501D03*
X318934375Y-121462501D03*
D36*
X318934375Y-120312501D03*
X318934375Y-119312501D03*
X318934375Y-118812501D03*
X318934375Y-117812501D03*
D35*
X318934375Y-116662501D03*
X318934375Y-115862501D03*
X318934375Y-115862501D03*
X318934375Y-116662501D03*
D36*
X318934375Y-117312501D03*
X318934375Y-118312501D03*
X318934375Y-119812501D03*
X318934375Y-120812501D03*
D35*
X318934375Y-121462501D03*
X318934375Y-122262501D03*
%TD*%
D11*
%TO.C,C6*%
X124928801Y-177533300D03*
X123203799Y-177533300D03*
%TD*%
D23*
%TO.C,FB3*%
X279423500Y-166179501D03*
X277598500Y-166179501D03*
%TD*%
D37*
%TO.C,U3*%
X97390625Y-117712500D03*
X96440625Y-117712500D03*
X95490625Y-117712500D03*
X95490625Y-120412500D03*
X97390625Y-120412500D03*
%TD*%
D27*
%TO.C,C49*%
X295260191Y-121397757D03*
X293539391Y-121277427D03*
%TD*%
D11*
%TO.C,C51*%
X234224999Y-145097500D03*
X232499997Y-145097500D03*
%TD*%
%TO.C,C48*%
X272324999Y-111760000D03*
X270599997Y-111760000D03*
%TD*%
D38*
%TO.C,HS1*%
X88214018Y-142437222D03*
X88543949Y-144308357D03*
X90742522Y-142956034D03*
%TD*%
D17*
%TO.C,R4*%
X122142250Y-174188750D03*
X122142250Y-176013750D03*
%TD*%
D12*
%TO.C,C39*%
X279553499Y-170751501D03*
X281278501Y-170751501D03*
%TD*%
D23*
%TO.C,R3*%
X117593750Y-184546875D03*
X115768750Y-184546875D03*
%TD*%
D22*
%TO.C,HS26*%
X251212498Y-141925000D03*
X251212498Y-143825000D03*
X253612499Y-142875000D03*
%TD*%
D35*
%TO.C,J8*%
X222800000Y-163487501D03*
X222800000Y-164287501D03*
D36*
X222800000Y-165437501D03*
X222800000Y-166437501D03*
X222800000Y-166937501D03*
X222800000Y-167937501D03*
D35*
X222800000Y-169087501D03*
X222800000Y-169887501D03*
X222800000Y-169887501D03*
X222800000Y-169087501D03*
D36*
X222800000Y-168437501D03*
X222800000Y-167437501D03*
X222800000Y-165937501D03*
X222800000Y-164937501D03*
D35*
X222800000Y-164287501D03*
X222800000Y-163487501D03*
%TD*%
D38*
%TO.C,HS12*%
X94830013Y-179958396D03*
X95159944Y-181829531D03*
X97358517Y-180477208D03*
%TD*%
D39*
%TO.C,U5*%
X313187499Y-118112503D03*
X313187499Y-119062502D03*
X313187499Y-120012501D03*
X315462499Y-120012501D03*
X315462499Y-119062502D03*
X315462499Y-118112503D03*
%TD*%
D40*
%TO.C,HS37*%
X234425050Y-187920261D03*
X234916806Y-189755519D03*
X236989149Y-188216725D03*
%TD*%
D23*
%TO.C,R8*%
X321333500Y-112966501D03*
X319508500Y-112966501D03*
%TD*%
D22*
%TO.C,HS32*%
X251212498Y-160975001D03*
X251212498Y-162875001D03*
X253612499Y-161925001D03*
%TD*%
D15*
%TO.C,HS35*%
X307618947Y-179541641D03*
X307289017Y-181412776D03*
X309817519Y-180893964D03*
%TD*%
D41*
%TO.C,HS18*%
X168041963Y-187299097D03*
X167550207Y-189134355D03*
X170114306Y-188837891D03*
%TD*%
D28*
%TO.C,R2*%
X83494875Y-125158499D03*
X85319875Y-125158499D03*
%TD*%
D22*
%TO.C,HS4*%
X151200000Y-122875000D03*
X151200000Y-124775000D03*
X153600000Y-123825000D03*
%TD*%
D42*
%TO.C,U6*%
X308896375Y-120012501D03*
X308896375Y-119062501D03*
X308896375Y-118112501D03*
X306196375Y-118112501D03*
X306196375Y-120012501D03*
%TD*%
D14*
%TO.C,C25*%
X96585080Y-178034403D03*
X94886284Y-178333947D03*
%TD*%
D38*
%TO.C,HS6*%
X74415428Y-173886100D03*
X74745359Y-175757235D03*
X76943932Y-174404912D03*
%TD*%
D43*
%TO.C,D1*%
X119378125Y-184546875D03*
X121128125Y-184546875D03*
%TD*%
D22*
%TO.C,HS27*%
X270262498Y-132400000D03*
X270262498Y-134300000D03*
X272662499Y-133350000D03*
%TD*%
D28*
%TO.C,R12*%
X271858100Y-180124101D03*
X273683100Y-180124101D03*
%TD*%
D15*
%TO.C,HS30*%
X328033532Y-173469345D03*
X327703602Y-175340480D03*
X330232104Y-174821668D03*
%TD*%
D11*
%TO.C,C22*%
X134212501Y-130805000D03*
X132487499Y-130805000D03*
%TD*%
D23*
%TO.C,R7*%
X321333500Y-125158501D03*
X319508500Y-125158501D03*
%TD*%
D22*
%TO.C,HS16*%
X170250000Y-165737500D03*
X170250000Y-167637500D03*
X172650000Y-166687500D03*
%TD*%
D18*
%TO.C,C55*%
X313234212Y-159573361D03*
X311535416Y-159273817D03*
%TD*%
D22*
%TO.C,HS9*%
X132150000Y-132400000D03*
X132150000Y-134300000D03*
X134550000Y-133350000D03*
%TD*%
D44*
%TO.C,HS36*%
X214455378Y-196506383D03*
X215405377Y-198151831D03*
X217008837Y-196129108D03*
%TD*%
D38*
%TO.C,HS7*%
X91522015Y-161197810D03*
X91851946Y-163068945D03*
X94050519Y-161716622D03*
%TD*%
D11*
%TO.C,C57*%
X234225001Y-164147501D03*
X232499999Y-164147501D03*
%TD*%
D19*
%TO.C,C15*%
X111411344Y-121231022D03*
X109690544Y-121351352D03*
%TD*%
D31*
%TO.C,R11*%
X281813000Y-179411001D03*
X281813000Y-177586001D03*
%TD*%
D45*
%TO.C,U2*%
X91625000Y-120012499D03*
X91625000Y-119062500D03*
X91625000Y-118112501D03*
X89350000Y-118112501D03*
X89350000Y-119062500D03*
X89350000Y-120012499D03*
%TD*%
D22*
%TO.C,HS5*%
X170250000Y-127637500D03*
X170250000Y-129537500D03*
X172650000Y-128587500D03*
%TD*%
D35*
%TO.C,J1*%
X182012500Y-169887500D03*
X182012500Y-169087500D03*
D36*
X182012500Y-167937500D03*
X182012500Y-166937500D03*
X182012500Y-166437500D03*
X182012500Y-165437500D03*
D35*
X182012500Y-164287500D03*
X182012500Y-163487500D03*
X182012500Y-163487500D03*
X182012500Y-164287500D03*
D36*
X182012500Y-164937500D03*
X182012500Y-165937500D03*
X182012500Y-167437500D03*
X182012500Y-168437500D03*
D35*
X182012500Y-169087500D03*
X182012500Y-169887500D03*
%TD*%
D34*
%TO.C,OSC2*%
X283598000Y-175704501D03*
X283598000Y-173164501D03*
X281298000Y-173164501D03*
X281298000Y-175704501D03*
%TD*%
D22*
%TO.C,HS3*%
X132150000Y-113350000D03*
X132150000Y-115250000D03*
X134550000Y-114300000D03*
%TD*%
D18*
%TO.C,C56*%
X330340800Y-172261651D03*
X328642004Y-171962107D03*
%TD*%
D22*
%TO.C,HS14*%
X132150000Y-151450000D03*
X132150000Y-153350000D03*
X134550000Y-152400000D03*
%TD*%
D11*
%TO.C,C52*%
X253275000Y-140335000D03*
X251549998Y-140335000D03*
%TD*%
D10*
%TO.C,C34*%
X274574000Y-165010002D03*
X274574000Y-163285000D03*
%TD*%
D17*
%TO.C,FB2*%
X89868375Y-114594000D03*
X89868375Y-116419000D03*
%TD*%
D22*
%TO.C,HS15*%
X151200000Y-160975000D03*
X151200000Y-162875000D03*
X153600000Y-161925000D03*
%TD*%
D11*
%TO.C,C28*%
X153262501Y-159385000D03*
X151537499Y-159385000D03*
%TD*%
%TO.C,C8*%
X138848001Y-167703500D03*
X137122999Y-167703500D03*
%TD*%
D46*
%TO.C,D2*%
X287815624Y-184546875D03*
X286065626Y-184546875D03*
%TD*%
D14*
%TO.C,C19*%
X76170495Y-171962107D03*
X74471699Y-172261651D03*
%TD*%
D10*
%TO.C,C3*%
X134404100Y-165137001D03*
X134404100Y-163411999D03*
%TD*%
D22*
%TO.C,HS11*%
X170250000Y-146687500D03*
X170250000Y-148587500D03*
X172650000Y-147637500D03*
%TD*%
D11*
%TO.C,C29*%
X172312501Y-164147500D03*
X170587499Y-164147500D03*
%TD*%
D20*
%TO.C,HS13*%
X111846029Y-161061022D03*
X111978567Y-162956394D03*
X114306452Y-161841292D03*
%TD*%
D24*
%TO.C,U1*%
X136643750Y-176390624D03*
X136643750Y-175890625D03*
X136643750Y-175390625D03*
X136643750Y-174890625D03*
X136643750Y-174390625D03*
X136643750Y-173890624D03*
X136643750Y-173390625D03*
X136643750Y-172890625D03*
X136643750Y-172390625D03*
X136643750Y-171890625D03*
X136643750Y-171390626D03*
X136643750Y-170890625D03*
X136643750Y-170390625D03*
X136643750Y-169890625D03*
X136643750Y-169390625D03*
X136643750Y-168890626D03*
D25*
X134718749Y-166965625D03*
X134218750Y-166965625D03*
X133718750Y-166965625D03*
X133218750Y-166965625D03*
X132718750Y-166965625D03*
X132218749Y-166965625D03*
X131718750Y-166965625D03*
X131218750Y-166965625D03*
X130718750Y-166965625D03*
X130218750Y-166965625D03*
X129718751Y-166965625D03*
X129218750Y-166965625D03*
X128718750Y-166965625D03*
X128218750Y-166965625D03*
X127718750Y-166965625D03*
X127218751Y-166965625D03*
D24*
X125293750Y-168890626D03*
X125293750Y-169390625D03*
X125293750Y-169890625D03*
X125293750Y-170390625D03*
X125293750Y-170890625D03*
X125293750Y-171390626D03*
X125293750Y-171890625D03*
X125293750Y-172390625D03*
X125293750Y-172890625D03*
X125293750Y-173390625D03*
X125293750Y-173890624D03*
X125293750Y-174390625D03*
X125293750Y-174890625D03*
X125293750Y-175390625D03*
X125293750Y-175890625D03*
X125293750Y-176390624D03*
D25*
X127218751Y-178315625D03*
X127718750Y-178315625D03*
X128218750Y-178315625D03*
X128718750Y-178315625D03*
X129218750Y-178315625D03*
X129718751Y-178315625D03*
X130218750Y-178315625D03*
X130718750Y-178315625D03*
X131218750Y-178315625D03*
X131718750Y-178315625D03*
X132218749Y-178315625D03*
X132718750Y-178315625D03*
X133218750Y-178315625D03*
X133718750Y-178315625D03*
X134218750Y-178315625D03*
X134718749Y-178315625D03*
%TD*%
D27*
%TO.C,C54*%
X293931329Y-140401352D03*
X292210529Y-140281022D03*
%TD*%
D15*
%TO.C,HS24*%
X314234941Y-142020467D03*
X313905011Y-143891602D03*
X316433513Y-143372790D03*
%TD*%
D11*
%TO.C,C23*%
X153262501Y-140335000D03*
X151537499Y-140335000D03*
%TD*%
M02*
