M48
; DRILL file KiCad 10.0.3-10.0.3~ubuntu26.04.1 date 2026-07-14T13:52:06
; FORMAT={-:-/ absolute / metric / decimal}
; #@! TF.CreationDate,2026-07-14T13:52:06+03:00
; #@! TF.GenerationSoftware,Kicad,Pcbnew,10.0.3-10.0.3~ubuntu26.04.1
; #@! TF.FileFunction,Plated,1,2,PTH
FMAT,2
METRIC
; #@! TA.AperFunction,Plated,PTH,ViaDrill
T1C0.300
; #@! TA.AperFunction,Plated,PTH,ViaDrill
T2C0.305
; #@! TA.AperFunction,Plated,PTH,ViaDrill
T3C0.400
; #@! TA.AperFunction,Plated,PTH,ViaDrill
T4C0.406
; #@! TA.AperFunction,Plated,PTH,ComponentDrill
T5C0.600
; #@! TA.AperFunction,Plated,PTH,ComponentDrill
T6C1.000
; #@! TA.AperFunction,Plated,PTH,ComponentDrill
T7C1.800
; #@! TA.AperFunction,Plated,PTH,ComponentDrill
T8C3.200
%
G90
G05
T1
X76.542Y-173.186
X90.341Y-141.737
X90.513Y-119.062
X93.649Y-160.498
X96.419Y-119.825
X96.456Y-116.395
X96.957Y-179.258
X111.515Y-122.534
X112.844Y-141.537
X114.173Y-160.541
X123.537Y-175.434
X126.454Y-178.295
X131.534Y-176.72
X132.448Y-176.72
X134.366Y-113.03
X134.366Y-132.08
X134.366Y-151.13
X134.683Y-174.501
X140.017Y-180.53
X148.653Y-184.468
X153.416Y-122.555
X153.416Y-141.605
X153.416Y-160.655
X170.265Y-187.564
X172.466Y-127.317
X172.466Y-146.368
X172.466Y-165.417
X190.358Y-196.137
X216.214Y-195.121
X234.378Y-165.417
X234.378Y-127.317
X234.379Y-146.368
X236.483Y-187.038
X253.428Y-122.555
X253.428Y-141.605
X253.428Y-160.655
X258.191Y-184.468
X267.062Y-175.741
X267.691Y-179.87
X272.052Y-177.104
X272.478Y-113.03
X272.478Y-132.08
X272.478Y-151.13
X272.852Y-177.116
X274.444Y-181.226
X275.463Y-181.226
X278.511Y-173.391
X279.019Y-180.48
X281.749Y-180.442
X292.667Y-160.683
X293.996Y-141.679
X295.325Y-122.675
X309.857Y-179.611
X310.045Y-119.071
X313.085Y-160.783
X314.3Y-119.063
X316.473Y-142.09
X330.271Y-173.539
T2
X75.914Y-175.482
X89.757Y-144.113
X92.881Y-123.539
X93.059Y-162.909
X93.745Y-123.539
X96.361Y-181.578
X110.839Y-124.809
X111.982Y-143.732
X113.252Y-162.909
X117.951Y-168.878
X118.443Y-169.522
X118.967Y-170.148
X119.475Y-170.783
X122.599Y-172.815
X123.463Y-172.815
X127.552Y-164.535
X128.21Y-164.058
X128.643Y-171.927
X128.868Y-164.535
X129.253Y-172.538
X129.526Y-164.058
X130.184Y-164.535
X130.842Y-164.058
X131.5Y-164.535
X132.158Y-164.058
X132.816Y-164.535
X133.318Y-115.157
X133.318Y-134.334
X133.318Y-153.384
X133.474Y-164.058
X135.68Y-166.16
X145.139Y-168.853
X145.637Y-172.991
X146.447Y-172.991
X147.256Y-172.991
X147.669Y-186.658
X152.368Y-143.859
X152.495Y-124.682
X152.495Y-162.909
X168.751Y-189.452
X171.418Y-129.508
X171.545Y-148.558
X171.545Y-167.608
X178.412Y-167.447
X179.927Y-166.795
X188.436Y-197.58
X216.408Y-197.612
X225.755Y-167.691
X226.365Y-167.081
X233.426Y-129.54
X233.426Y-148.59
X233.426Y-167.64
X236.093Y-189.484
X252.425Y-162.865
X252.476Y-124.841
X252.476Y-143.891
X257.175Y-186.69
X261.366Y-173.209
X261.366Y-174.072
X262.251Y-169.06
X262.884Y-169.564
X263.512Y-170.075
X264.16Y-170.561
X267.728Y-164.561
X268.3Y-173.304
X268.386Y-164.084
X268.91Y-173.914
X269.044Y-164.561
X269.702Y-164.084
X270.36Y-164.561
X271.018Y-164.084
X271.526Y-115.316
X271.526Y-134.239
X271.526Y-153.416
X271.676Y-164.561
X272.334Y-164.084
X272.992Y-164.561
X273.65Y-164.084
X276.225Y-166.497
X278.642Y-172.081
X280.67Y-168.656
X281.305Y-169.164
X281.94Y-169.672
X291.465Y-162.814
X292.862Y-143.764
X294.132Y-124.841
X308.483Y-181.61
X311.785Y-162.814
X312.068Y-121.441
X312.09Y-122.352
X315.087Y-144.145
X328.93Y-175.514
T3
X87.098Y-117.308
X87.098Y-120.84
X87.898Y-119.062
X91.088Y-116.37
X94.17Y-117.792
X96.43Y-125.561
X98.615Y-116.522
X121.975Y-178.239
X123.05Y-166.594
X125.362Y-163.868
X126.646Y-175.641
X128.079Y-168.593
X130.874Y-181.572
X134.093Y-177.009
X134.449Y-180.21
X135.642Y-167.957
X135.693Y-163.446
X137.192Y-180.616
X138.171Y-170.616
X138.493Y-174.815
X138.874Y-163.385
X140.144Y-167.703
X142.177Y-170.879
X179.641Y-168.974
X180.784Y-164.243
X180.784Y-169.069
X224.028Y-164.243
X224.028Y-169.069
X264.414Y-176.149
X265.354Y-165.672
X267.208Y-173.609
X268.078Y-176.93
X268.59Y-168.339
X270.434Y-180.124
X274.633Y-176.84
X275.014Y-179.888
X275.336Y-162.115
X275.717Y-171.895
X275.764Y-175.513
X275.962Y-167.703
X277.622Y-163.386
X277.86Y-180.416
X278.477Y-170.596
X279.4Y-163.386
X280.543Y-167.704
X282.621Y-170.752
X305.689Y-129.858
X310.007Y-121.349
X312.801Y-116.523
X313.933Y-121.718
X316.865Y-115.507
X316.914Y-119.069
X317.714Y-117.189
X317.714Y-120.745
T4
X126.714Y-172.688
X135.057Y-173.093
X135.223Y-171.164
X141.319Y-174.212
X282.448Y-174.371
T6
X115.252Y-186.928
X117.793Y-186.928
X120.332Y-186.928
X122.872Y-186.928
X127.318Y-186.928
X129.858Y-186.928
X134.461Y-194.072
X134.541Y-186.928
X137.001Y-194.072
X137.081Y-186.928
X267.892Y-186.928
X270.192Y-194.072
X270.432Y-186.928
X272.732Y-194.072
X275.036Y-186.928
X277.576Y-186.928
X284.331Y-186.928
X286.871Y-186.928
X289.411Y-186.928
X291.951Y-186.928
T7
X70.759Y-175.495
X80.765Y-173.731
X84.558Y-144.047
X87.866Y-162.807
X91.174Y-181.568
X94.564Y-142.282
X97.872Y-161.043
X101.18Y-179.803
X105.522Y-124.226
X106.851Y-143.229
X108.18Y-162.233
X115.658Y-123.517
X116.986Y-142.521
X118.315Y-161.524
X128.27Y-114.3
X128.27Y-133.35
X128.27Y-152.4
X138.43Y-114.3
X138.43Y-133.35
X138.43Y-152.4
X142.558Y-185.737
X147.32Y-123.825
X147.32Y-142.875
X147.32Y-161.925
X152.718Y-185.737
X157.48Y-123.825
X157.48Y-142.875
X157.48Y-161.925
X164.048Y-187.213
X166.37Y-128.588
X166.37Y-147.637
X166.37Y-166.688
X173.862Y-189.842
X176.53Y-128.588
X176.53Y-147.637
X176.53Y-166.688
X184.443Y-194.189
X193.242Y-199.269
X211.57Y-199.269
X220.369Y-194.189
X228.282Y-147.637
X228.282Y-128.588
X228.282Y-166.688
X230.923Y-189.842
X238.442Y-147.637
X238.442Y-128.588
X238.442Y-166.688
X240.737Y-187.213
X247.332Y-123.825
X247.332Y-142.875
X247.332Y-161.925
X252.095Y-185.737
X257.492Y-123.825
X257.492Y-142.875
X257.492Y-161.925
X262.255Y-185.737
X266.382Y-114.3
X266.382Y-133.35
X266.382Y-152.4
X276.542Y-114.3
X276.542Y-133.35
X276.542Y-152.4
X286.497Y-161.524
X287.826Y-142.521
X289.155Y-123.517
X296.633Y-162.233
X297.961Y-143.229
X299.29Y-124.226
X303.633Y-179.803
X306.941Y-161.043
X310.249Y-142.282
X313.639Y-181.568
X316.947Y-162.807
X320.255Y-144.047
X324.048Y-173.731
X334.053Y-175.495
T8
X83.344Y-186.928
X89.297Y-128.588
X123.825Y-142.875
X185.737Y-113.427
X185.737Y-176.213
X219.075Y-113.348
X219.075Y-176.213
X280.987Y-142.875
X315.516Y-128.588
X321.469Y-186.928
T5
G00X81.478Y-114.742
M15
G01X80.678Y-114.742
M16
G05
G00X81.478Y-123.382
M15
G01X80.678Y-123.382
M16
G05
G00X85.828Y-114.742
M15
G01X84.728Y-114.742
M16
G05
G00X85.828Y-123.382
M15
G01X84.728Y-123.382
M16
G05
G00X182.062Y-162.368
M15
G01X183.162Y-162.368
M16
G05
G00X182.062Y-171.007
M15
G01X183.162Y-171.007
M16
G05
G00X186.412Y-162.368
M15
G01X187.213Y-162.368
M16
G05
G00X186.412Y-171.007
M15
G01X187.213Y-171.007
M16
G05
G00X218.4Y-162.368
M15
G01X217.6Y-162.368
M16
G05
G00X218.4Y-171.008
M15
G01X217.6Y-171.008
M16
G05
G00X222.75Y-162.368
M15
G01X221.65Y-162.368
M16
G05
G00X222.75Y-171.008
M15
G01X221.65Y-171.008
M16
G05
G00X318.984Y-114.743
M15
G01X320.084Y-114.743
M16
G05
G00X318.984Y-123.383
M15
G01X320.084Y-123.383
M16
G05
G00X323.334Y-114.743
M15
G01X324.134Y-114.743
M16
G05
G00X323.334Y-123.383
M15
G01X324.134Y-123.383
M16
G05
M30
